<?xml version="1.0" encoding="UTF-8" standalone="no"?>
<!-- Created with Inkscape (http://www.inkscape.org/) -->

<svg
   width="15.741618mm"
   height="20.235361mm"
   viewBox="0 0 15.741618 20.235361"
   version="1.1"
   id="svg1"
   xml:space="preserve"
   xmlns="http://www.w3.org/2000/svg"
   xmlns:svg="http://www.w3.org/2000/svg"><defs
     id="defs1"><linearGradient
       id="swatch15"><stop
         style="stop-color:#000000;stop-opacity:1;"
         offset="0"
         id="stop15" /></linearGradient><linearGradient
       id="swatch2"><stop
         style="stop-color:#000000;stop-opacity:1;"
         offset="0"
         id="stop2" /></linearGradient></defs><g
     id="layer1"
     transform="translate(-96.979639,-123.54605)"><path
       id="path12"
       style="color:#000000;fill:#aa55ff;stroke-linejoin:round;-inkscape-stroke:none"
       d="m 99.603739,123.54853 c -0.05564,-0.005 -0.111667,-0.003 -0.167948,0.006 -0.148579,0.0235 -0.286362,0.0946 -0.392741,0.20102 l -1.855701,1.8557 c -0.276942,0.277 -0.276942,0.73069 0,1.00769 l 3.976501,3.97651 c 0.27701,0.27695 0.7312,0.27695 1.00821,0 l 0.38085,-0.38086 0.61134,0.6134 c -0.1301,0.3845 -0.12968,0.79518 0,1.17977 l -0.61134,0.61289 -0.38085,-0.38086 c -0.16119,-0.16115 -0.39035,-0.23461 -0.61547,-0.19895 -0.14858,0.0235 -0.28636,0.0925 -0.39274,0.19895 l -3.976501,3.97857 c -0.276942,0.277 -0.276942,0.72914 0,1.00614 l 1.855701,1.85725 c 0.277003,0.27695 0.730689,0.27695 1.00769,0 l 1.67948,-1.67948 -1.810221,5.10149 c -0.09797,0.27635 -0.08626,0.57529 0,0.81856 0.04313,0.12163 0.104981,0.23189 0.191201,0.31626 0.0862,0.0844 0.20339,0.14259 0.33228,0.14262 h 8.81445 c 0.1289,-3e-5 0.24555,-0.0582 0.33176,-0.14262 0.0862,-0.0844 0.14859,-0.19463 0.19172,-0.31626 0.0863,-0.24327 0.098,-0.54221 0,-0.81856 l -1.81074,-5.10149 1.67948,1.67948 c 0.277,0.27695 0.73121,0.27695 1.00821,0 l 1.85519,-1.85725 c 0.27695,-0.277 0.27695,-0.72914 0,-1.00614 l -3.97651,-3.97857 c -0.16118,-0.16115 -0.38983,-0.23461 -0.61495,-0.19895 -0.14858,0.0235 -0.28637,0.0925 -0.39274,0.19895 l -0.38085,0.38086 -0.61133,-0.61289 c 0.1297,-0.38462 0.13012,-0.79526 0,-1.17977 l 0.61133,-0.61133 0.38085,0.37879 c 0.277,0.27695 0.73069,0.27695 1.00769,0 l 3.97651,-3.97651 c 0.27695,-0.277 0.27695,-0.73069 0,-1.00769 l -1.85519,-1.8557 c -0.16118,-0.16116 -0.39034,-0.23668 -0.61546,-0.20102 -0.14858,0.0235 -0.28637,0.0946 -0.39275,0.20102 l -3.97805,3.97651 c -0.27695,0.27699 -0.27695,0.7312 0,1.0082 l 0.38086,0.38086 -0.58808,0.58756 c -0.19934,-0.0704 -0.40389,-0.12506 -0.6134,-0.12506 -0.20957,0 -0.4155,0.0545 -0.61495,0.12506 l -0.58808,-0.58756 0.38086,-0.38086 c 0.27694,-0.277 0.27694,-0.73121 0,-1.0082 l -3.97857,-3.97651 c -0.120887,-0.12087 -0.280086,-0.19343 -0.447001,-0.20722 z m -0.05684,1.71721 2.970871,2.97036 -0.84956,0.84801 -2.968804,-2.96881 z m 10.607621,0 0.84956,0.84956 -2.97088,2.96881 -0.84956,-0.84801 z m -5.59759,7.9313 c 0.1956,0.0314 0.39196,0.0314 0.58756,0 l 0.39946,1.12396 c -0.11752,0.25913 -0.071,0.56706 0.12609,0.77876 a 0.15001501,0.15001501 0 0 0 0.002,0.004 l 0.23048,0.23048 2.38073,6.71328 h -6.86521 l 2.38073,-6.71328 0.23048,-0.23048 c 0.21204,-0.21362 0.26209,-0.53579 0.13642,-0.80357 z m 3.47627,0.555 2.96881,2.97036 -0.84749,0.84801 -2.97088,-2.96881 z m -6.36499,0.002 0.8475,0.84749 -2.968811,2.96881 -0.847493,-0.84749 z" /></g></svg>
