<?xml version="1.0" encoding="UTF-8"?><svg xmlns="http://www.w3.org/2000/svg" xmlns:xlink="http://www.w3.org/1999/xlink" fill-opacity="1" color-rendering="auto" color-interpolation="auto" text-rendering="auto" stroke="black" stroke-linecap="square" width="769" stroke-miterlimit="10" shape-rendering="auto" stroke-opacity="1" fill="black" stroke-dasharray="none" font-weight="normal" stroke-width="1" height="277" font-family="'Dialog'" font-style="normal" stroke-linejoin="miter" font-size="12px" stroke-dashoffset="0" image-rendering="auto">
  <!--Generated by ySVG 2.5-->
  <defs id="genericDefs"/>
  <g>
    <defs id="defs1">
      <clipPath clipPathUnits="userSpaceOnUse" id="clipPath1">
        <path d="M0 0 L769 0 L769 277 L0 277 L0 0 Z"/>
      </clipPath>
      <clipPath clipPathUnits="userSpaceOnUse" id="clipPath2">
        <path d="M211 173 L980 173 L980 450 L211 450 L211 173 Z"/>
      </clipPath>
    </defs>
    <g fill="white" text-rendering="geometricPrecision" shape-rendering="geometricPrecision" transform="translate(-211,-173)" stroke="white">
      <rect x="211" width="769" height="277" y="173" clip-path="url(#clipPath2)" stroke="none"/>
    </g>
    <g fill="white" text-rendering="geometricPrecision" shape-rendering="geometricPrecision" transform="matrix(1,0,0,1,-211,-173)" stroke="white">
      <rect x="319.2493" width="68" height="40" y="289.4958" clip-path="url(#clipPath2)" stroke="none"/>
    </g>
    <g stroke-linecap="butt" transform="matrix(1,0,0,1,-211,-173)" fill="gray" text-rendering="geometricPrecision" shape-rendering="geometricPrecision" stroke="gray" stroke-miterlimit="1.45">
      <rect fill="none" x="319.2493" width="68" height="40" y="289.4958" clip-path="url(#clipPath2)"/>
    </g>
    <g font-size="14px" stroke-linecap="butt" transform="matrix(1,0,0,1,-211,-173)" text-rendering="geometricPrecision" font-family="sans-serif" shape-rendering="geometricPrecision" stroke-miterlimit="1.45">
      <text x="332.5826" xml:space="preserve" y="305.396" clip-path="url(#clipPath2)" stroke="none">parse-</text>
      <text x="327.9652" xml:space="preserve" y="324.4536" clip-path="url(#clipPath2)" stroke="none">request</text>
    </g>
    <g fill="rgb(255,255,204)" text-rendering="geometricPrecision" shape-rendering="geometricPrecision" transform="matrix(1,0,0,1,-211,-173)" stroke="rgb(255,255,204)">
      <path d="M226.5772 238.5915 Q226.5772 228.5915 236.5772 228.5915 L284.5772 228.5915 Q294.5772 228.5915 294.5772 238.5915 L294.5772 258.5916 Q294.5772 268.5916 284.5772 268.5916 L236.5772 268.5916 Q226.5772 268.5916 226.5772 258.5916 Z" stroke="none" clip-path="url(#clipPath2)"/>
    </g>
    <g text-rendering="geometricPrecision" stroke-miterlimit="1.45" shape-rendering="geometricPrecision" transform="matrix(1,0,0,1,-211,-173)" stroke-linecap="butt">
      <path fill="none" d="M226.5772 238.5915 Q226.5772 228.5915 236.5772 228.5915 L284.5772 228.5915 Q294.5772 228.5915 294.5772 238.5915 L294.5772 258.5916 Q294.5772 268.5916 284.5772 268.5916 L236.5772 268.5916 Q226.5772 268.5916 226.5772 258.5916 Z" clip-path="url(#clipPath2)"/>
      <text x="248.3499" xml:space="preserve" y="245.0775" clip-path="url(#clipPath2)" font-family="sans-serif" stroke="none">DNS</text>
      <text x="244.44" xml:space="preserve" y="261.4125" clip-path="url(#clipPath2)" font-family="sans-serif" stroke="none">Client</text>
    </g>
    <g fill="white" text-rendering="geometricPrecision" shape-rendering="geometricPrecision" transform="matrix(1,0,0,1,-211,-173)" stroke="white">
      <rect x="409.2493" width="68" height="40" y="289.4958" clip-path="url(#clipPath2)" stroke="none"/>
    </g>
    <g stroke-linecap="butt" transform="matrix(1,0,0,1,-211,-173)" fill="gray" text-rendering="geometricPrecision" shape-rendering="geometricPrecision" stroke="gray" stroke-miterlimit="1.45">
      <rect fill="none" x="409.2493" width="68" height="40" y="289.4958" clip-path="url(#clipPath2)"/>
    </g>
    <g font-size="14px" stroke-linecap="butt" transform="matrix(1,0,0,1,-211,-173)" text-rendering="geometricPrecision" font-family="sans-serif" shape-rendering="geometricPrecision" stroke-miterlimit="1.45">
      <text x="423.2123" xml:space="preserve" y="305.396" clip-path="url(#clipPath2)" stroke="none">hosts-</text>
      <text x="421.4562" xml:space="preserve" y="324.4536" clip-path="url(#clipPath2)" stroke="none">search</text>
    </g>
    <g fill="white" text-rendering="geometricPrecision" shape-rendering="geometricPrecision" transform="matrix(1,0,0,1,-211,-173)" stroke="white">
      <rect x="499.2493" width="68" height="40" y="289.4958" clip-path="url(#clipPath2)" stroke="none"/>
    </g>
    <g stroke-linecap="butt" transform="matrix(1,0,0,1,-211,-173)" fill="gray" text-rendering="geometricPrecision" shape-rendering="geometricPrecision" stroke="gray" stroke-miterlimit="1.45">
      <rect fill="none" x="499.2493" width="68" height="40" y="289.4958" clip-path="url(#clipPath2)"/>
    </g>
    <g font-size="14px" stroke-linecap="butt" transform="matrix(1,0,0,1,-211,-173)" text-rendering="geometricPrecision" font-family="sans-serif" shape-rendering="geometricPrecision" stroke-miterlimit="1.45">
      <text x="499.8706" xml:space="preserve" y="305.396" clip-path="url(#clipPath2)" stroke="none">file-cache-</text>
      <text x="522.1114" xml:space="preserve" y="324.4536" clip-path="url(#clipPath2)" stroke="none">req</text>
    </g>
    <g fill="white" text-rendering="geometricPrecision" shape-rendering="geometricPrecision" transform="matrix(1,0,0,1,-211,-173)" stroke="white">
      <rect x="687.2493" width="68" height="40" y="289.4958" clip-path="url(#clipPath2)" stroke="none"/>
    </g>
    <g stroke-linecap="butt" transform="matrix(1,0,0,1,-211,-173)" fill="gray" text-rendering="geometricPrecision" shape-rendering="geometricPrecision" stroke="gray" stroke-miterlimit="1.45">
      <rect fill="none" x="687.2493" width="68" height="40" y="289.4958" clip-path="url(#clipPath2)"/>
    </g>
    <g font-size="14px" stroke-linecap="butt" transform="matrix(1,0,0,1,-211,-173)" text-rendering="geometricPrecision" font-family="sans-serif" shape-rendering="geometricPrecision" stroke-miterlimit="1.45">
      <text x="687.8706" xml:space="preserve" y="305.396" clip-path="url(#clipPath2)" stroke="none">file-cache-</text>
      <text x="706.7603" xml:space="preserve" y="324.4536" clip-path="url(#clipPath2)" stroke="none">resp</text>
    </g>
    <g fill="white" text-rendering="geometricPrecision" shape-rendering="geometricPrecision" transform="matrix(1,0,0,1,-211,-173)" stroke="white">
      <rect x="593.2493" width="68" height="40" y="289.4958" clip-path="url(#clipPath2)" stroke="none"/>
    </g>
    <g stroke-linecap="butt" transform="matrix(1,0,0,1,-211,-173)" fill="gray" text-rendering="geometricPrecision" shape-rendering="geometricPrecision" stroke="gray" stroke-miterlimit="1.45">
      <rect fill="none" x="593.2493" width="68" height="40" y="289.4958" clip-path="url(#clipPath2)"/>
    </g>
    <g font-size="14px" stroke-linecap="butt" transform="matrix(1,0,0,1,-211,-173)" text-rendering="geometricPrecision" font-family="sans-serif" shape-rendering="geometricPrecision" stroke-miterlimit="1.45">
      <text x="593.192" xml:space="preserve" y="305.396" clip-path="url(#clipPath2)" stroke="none">upstream-</text>
      <text x="612.7952" xml:space="preserve" y="324.4536" clip-path="url(#clipPath2)" stroke="none">UDP</text>
    </g>
    <g fill="white" text-rendering="geometricPrecision" shape-rendering="geometricPrecision" transform="matrix(1,0,0,1,-211,-173)" stroke="white">
      <rect x="777.2493" width="68" height="40" y="289.4958" clip-path="url(#clipPath2)" stroke="none"/>
    </g>
    <g stroke-linecap="butt" transform="matrix(1,0,0,1,-211,-173)" fill="gray" text-rendering="geometricPrecision" shape-rendering="geometricPrecision" stroke="gray" stroke-miterlimit="1.45">
      <rect fill="none" x="777.2493" width="68" height="40" y="289.4958" clip-path="url(#clipPath2)"/>
    </g>
    <g font-size="14px" stroke-linecap="butt" transform="matrix(1,0,0,1,-211,-173)" text-rendering="geometricPrecision" font-family="sans-serif" shape-rendering="geometricPrecision" stroke-miterlimit="1.45">
      <text x="780.9069" xml:space="preserve" y="314.9248" clip-path="url(#clipPath2)" stroke="none">response</text>
    </g>
    <g fill="white" text-rendering="geometricPrecision" shape-rendering="geometricPrecision" transform="matrix(1,0,0,1,-211,-173)" stroke="white">
      <rect x="867.2493" width="68" height="40" y="289.4958" clip-path="url(#clipPath2)" stroke="none"/>
    </g>
    <g stroke-linecap="butt" transform="matrix(1,0,0,1,-211,-173)" fill="gray" text-rendering="geometricPrecision" shape-rendering="geometricPrecision" stroke="gray" stroke-miterlimit="1.45">
      <rect fill="none" x="867.2493" width="68" height="40" y="289.4958" clip-path="url(#clipPath2)"/>
    </g>
    <g font-size="14px" stroke-linecap="butt" transform="matrix(1,0,0,1,-211,-173)" text-rendering="geometricPrecision" font-family="sans-serif" shape-rendering="geometricPrecision" stroke-miterlimit="1.45">
      <text x="883.0732" xml:space="preserve" y="305.396" clip-path="url(#clipPath2)" stroke="none">send-</text>
      <text x="870.9069" xml:space="preserve" y="324.4536" clip-path="url(#clipPath2)" stroke="none">response</text>
    </g>
    <g fill="white" text-rendering="geometricPrecision" shape-rendering="geometricPrecision" transform="matrix(1,0,0,1,-211,-173)" stroke="white">
      <path d="M593.2493 198.5915 Q593.2493 188.5915 603.2493 188.5915 L651.2493 188.5915 Q661.2493 188.5915 661.2493 198.5915 L661.2493 218.5915 Q661.2493 228.5915 651.2493 228.5915 L603.2493 228.5915 Q593.2493 228.5915 593.2493 218.5915 Z" stroke="none" clip-path="url(#clipPath2)"/>
    </g>
    <g text-rendering="geometricPrecision" stroke-miterlimit="1.45" shape-rendering="geometricPrecision" transform="matrix(1,0,0,1,-211,-173)" stroke-linecap="butt">
      <path fill="none" d="M593.2493 198.5915 Q593.2493 188.5915 603.2493 188.5915 L651.2493 188.5915 Q661.2493 188.5915 661.2493 198.5915 L661.2493 218.5915 Q661.2493 228.5915 651.2493 228.5915 L603.2493 228.5915 Q593.2493 228.5915 593.2493 218.5915 Z" clip-path="url(#clipPath2)"/>
      <text x="602.6208" xml:space="preserve" y="205.0775" clip-path="url(#clipPath2)" font-family="sans-serif" stroke="none">DNS-file-</text>
      <text x="605.6732" xml:space="preserve" y="221.4125" clip-path="url(#clipPath2)" font-family="sans-serif" stroke="none">storage</text>
    </g>
    <g fill="rgb(255,255,204)" text-rendering="geometricPrecision" shape-rendering="geometricPrecision" transform="matrix(1,0,0,1,-211,-173)" stroke="rgb(255,255,204)">
      <path d="M598.5772 404.6 Q598.5772 394.6 608.5772 394.6 L645.9214 394.6 Q655.9214 394.6 655.9214 404.6 L655.9214 424.6 Q655.9214 434.6 645.9214 434.6 L608.5772 434.6 Q598.5772 434.6 598.5772 424.6 Z" stroke="none" clip-path="url(#clipPath2)"/>
    </g>
    <g text-rendering="geometricPrecision" stroke-miterlimit="1.45" shape-rendering="geometricPrecision" transform="matrix(1,0,0,1,-211,-173)" stroke-linecap="butt">
      <path fill="none" d="M598.5772 404.6 Q598.5772 394.6 608.5772 394.6 L645.9214 394.6 Q655.9214 394.6 655.9214 404.6 L655.9214 424.6 Q655.9214 434.6 645.9214 434.6 L608.5772 434.6 Q598.5772 434.6 598.5772 424.6 Z" clip-path="url(#clipPath2)"/>
      <text x="615.022" xml:space="preserve" y="411.0859" clip-path="url(#clipPath2)" font-family="sans-serif" stroke="none">DNS</text>
      <text x="609.1932" xml:space="preserve" y="427.421" clip-path="url(#clipPath2)" font-family="sans-serif" stroke="none">Server</text>
    </g>
    <g fill="white" text-rendering="geometricPrecision" shape-rendering="geometricPrecision" transform="matrix(1,0,0,1,-211,-173)" stroke="white">
      <path d="M409.2493 198.5915 Q409.2493 188.5915 419.2493 188.5915 L467.2493 188.5915 Q477.2493 188.5915 477.2493 198.5915 L477.2493 218.5915 Q477.2493 228.5915 467.2493 228.5915 L419.2493 228.5915 Q409.2493 228.5915 409.2493 218.5915 Z" stroke="none" clip-path="url(#clipPath2)"/>
    </g>
    <g text-rendering="geometricPrecision" stroke-miterlimit="1.45" shape-rendering="geometricPrecision" transform="matrix(1,0,0,1,-211,-173)" stroke-linecap="butt">
      <path fill="none" d="M409.2493 198.5915 Q409.2493 188.5915 419.2493 188.5915 L467.2493 188.5915 Q477.2493 188.5915 477.2493 198.5915 L477.2493 218.5915 Q477.2493 228.5915 467.2493 228.5915 L419.2493 228.5915 Q409.2493 228.5915 409.2493 218.5915 Z" clip-path="url(#clipPath2)"/>
      <text x="418.6988" xml:space="preserve" y="213.245" clip-path="url(#clipPath2)" font-family="sans-serif" stroke="none">hosts-db</text>
    </g>
    <g fill="white" text-rendering="geometricPrecision" shape-rendering="geometricPrecision" transform="matrix(1,0,0,1,-211,-173)" stroke="white">
      <rect x="324.5772" width="57.3442" height="40" y="228.5915" clip-path="url(#clipPath2)" stroke="none"/>
    </g>
    <g stroke-linecap="butt" transform="matrix(1,0,0,1,-211,-173)" fill="gray" text-rendering="geometricPrecision" shape-rendering="geometricPrecision" stroke="gray" stroke-miterlimit="1.45">
      <rect fill="none" x="324.5772" width="57.3442" height="40" y="228.5915" clip-path="url(#clipPath2)"/>
    </g>
    <g font-size="14px" stroke-linecap="butt" transform="matrix(1,0,0,1,-211,-173)" text-rendering="geometricPrecision" font-family="sans-serif" shape-rendering="geometricPrecision" font-weight="bold" stroke-miterlimit="1.45">
      <text x="338.5294" xml:space="preserve" y="244.4918" clip-path="url(#clipPath2)" stroke="none">DNS</text>
      <text x="330.7916" xml:space="preserve" y="263.5493" clip-path="url(#clipPath2)" stroke="none">Server</text>
    </g>
    <g stroke-linecap="butt" transform="matrix(1,0,0,1,-211,-173)" fill="rgb(51,102,255)" text-rendering="geometricPrecision" shape-rendering="geometricPrecision" stroke="rgb(51,102,255)" stroke-miterlimit="1.45">
      <path fill="none" d="M387.219 309.4958 L401.2426 309.4958" clip-path="url(#clipPath2)"/>
    </g>
    <g stroke-linecap="butt" transform="matrix(1,0,0,1,-211,-173)" fill="rgb(51,102,255)" text-rendering="geometricPrecision" shape-rendering="geometricPrecision" stroke="rgb(51,102,255)" stroke-miterlimit="1.45">
      <path d="M409.2426 309.4958 L397.2426 304.4958 L400.2426 309.4958 L397.2426 314.4958 Z" stroke="none" clip-path="url(#clipPath2)"/>
      <path fill="none" d="M477.2041 309.4958 L491.2499 309.4958" clip-path="url(#clipPath2)"/>
      <path d="M499.2499 309.4958 L487.2499 304.4958 L490.2499 309.4958 L487.2499 314.4958 Z" clip-path="url(#clipPath2)" stroke="none"/>
      <path fill="none" d="M567.2227 309.4958 L585.241 309.4958" clip-path="url(#clipPath2)"/>
      <path d="M593.241 309.4958 L581.241 304.4958 L584.241 309.4958 L581.241 314.4958 Z" clip-path="url(#clipPath2)" stroke="none"/>
      <path fill="none" d="M661.26 309.4958 L679.2417 309.4958" clip-path="url(#clipPath2)"/>
      <path d="M687.2417 309.4958 L675.2417 304.4958 L678.2417 309.4958 L675.2417 314.4958 Z" clip-path="url(#clipPath2)" stroke="none"/>
      <path fill="none" d="M755.219 309.4958 L769.2426 309.4958" clip-path="url(#clipPath2)"/>
      <path d="M777.2426 309.4958 L765.2426 304.4958 L768.2426 309.4958 L765.2426 314.4958 Z" clip-path="url(#clipPath2)" stroke="none"/>
      <path fill="none" d="M845.219 309.4958 L859.2426 309.4958" clip-path="url(#clipPath2)"/>
      <path d="M867.2426 309.4958 L855.2426 304.4958 L858.2426 309.4958 L855.2426 314.4958 Z" clip-path="url(#clipPath2)" stroke="none"/>
      <path fill="none" d="M935.2205 309.4958 L964.44 309.4958 L964.44 363.6479 L260.5772 363.6479 L260.5772 276.5635" clip-path="url(#clipPath2)"/>
      <path d="M260.5772 268.5635 L255.5772 280.5635 L260.5772 277.5635 L265.5772 280.5635 Z" clip-path="url(#clipPath2)" stroke="none"/>
      <path fill="none" d="M533.2493 289.5416 L533.2493 208.5915 L585.2385 208.5915" clip-path="url(#clipPath2)"/>
      <path d="M593.2385 208.5915 L581.2385 203.5915 L584.2385 208.5915 L581.2385 213.5915 Z" clip-path="url(#clipPath2)" stroke="none"/>
      <path fill="none" d="M721.2493 289.5416 L721.2493 208.5915 L669.26 208.5915" clip-path="url(#clipPath2)"/>
      <path d="M661.26 208.5915 L673.26 213.5915 L670.26 208.5915 L673.26 203.5915 Z" clip-path="url(#clipPath2)" stroke="none"/>
      <path fill="none" d="M627.2493 329.4958 L627.2493 386.5682" clip-path="url(#clipPath2)"/>
      <path d="M627.2493 394.5682 L632.2493 382.5682 L627.2493 385.5682 L622.2493 382.5682 Z" clip-path="url(#clipPath2)" stroke="none"/>
      <path fill="none" d="M443.2493 289.5416 L443.2493 236.5524" clip-path="url(#clipPath2)"/>
      <path d="M443.2493 228.5524 L438.2493 240.5524 L443.2493 237.5524 L448.2493 240.5524 Z" clip-path="url(#clipPath2)" stroke="none"/>
      <path fill="none" d="M294.6066 248.5915 L316.5581 248.5915" clip-path="url(#clipPath2)"/>
      <path d="M324.5581 248.5915 L312.5581 243.5915 L315.5581 248.5915 L312.5581 253.5915 Z" clip-path="url(#clipPath2)" stroke="none"/>
      <path fill="none" d="M353.2493 268.6055 L353.2493 281.4899" clip-path="url(#clipPath2)"/>
      <path d="M353.2493 289.4899 L358.2493 277.4899 L353.2493 280.4899 L348.2493 277.4899 Z" clip-path="url(#clipPath2)" stroke="none"/>
    </g>
  </g>
</svg>
