<?xml version="1.0" encoding="UTF-8"?><svg xmlns="http://www.w3.org/2000/svg" xmlns:xlink="http://www.w3.org/1999/xlink" fill-opacity="1" color-rendering="auto" color-interpolation="auto" text-rendering="auto" stroke="black" stroke-linecap="square" width="829" stroke-miterlimit="10" shape-rendering="auto" stroke-opacity="1" fill="black" stroke-dasharray="none" font-weight="normal" stroke-width="1" height="317" font-family="'Dialog'" font-style="normal" stroke-linejoin="miter" font-size="12px" stroke-dashoffset="0" image-rendering="auto">
  <!--Generated by ySVG 2.5-->
  <defs id="genericDefs"/>
  <g>
    <defs id="defs1">
      <clipPath clipPathUnits="userSpaceOnUse" id="clipPath1">
        <path d="M0 0 L829 0 L829 317 L0 317 L0 0 Z"/>
      </clipPath>
      <clipPath clipPathUnits="userSpaceOnUse" id="clipPath2">
        <path d="M211 158 L1040 158 L1040 475 L211 475 L211 158 Z"/>
      </clipPath>
    </defs>
    <g fill="white" text-rendering="geometricPrecision" shape-rendering="geometricPrecision" transform="translate(-211,-158)" stroke="white">
      <rect x="211" width="829" height="317" y="158" clip-path="url(#clipPath2)" stroke="none"/>
    </g>
    <g fill="white" text-rendering="geometricPrecision" shape-rendering="geometricPrecision" transform="matrix(1,0,0,1,-211,-158)" stroke="white">
      <rect x="319.2493" width="68" height="40" y="289.4958" clip-path="url(#clipPath2)" stroke="none"/>
    </g>
    <g stroke-linecap="butt" transform="matrix(1,0,0,1,-211,-158)" fill="gray" text-rendering="geometricPrecision" shape-rendering="geometricPrecision" stroke="gray" stroke-miterlimit="1.45">
      <rect fill="none" x="319.2493" width="68" height="40" y="289.4958" clip-path="url(#clipPath2)"/>
      <text x="335.535" y="305.9817" clip-path="url(#clipPath2)" fill="black" font-family="sans-serif" stroke="none" xml:space="preserve">parse-</text>
      <text x="331.5772" y="322.3167" clip-path="url(#clipPath2)" fill="black" font-family="sans-serif" stroke="none" xml:space="preserve">request</text>
    </g>
    <g fill="rgb(255,255,204)" text-rendering="geometricPrecision" shape-rendering="geometricPrecision" transform="matrix(1,0,0,1,-211,-158)" stroke="rgb(255,255,204)">
      <path d="M226.5772 234.5437 Q226.5772 224.5437 236.5772 224.5437 L284.5772 224.5437 Q294.5772 224.5437 294.5772 234.5437 L294.5772 254.5437 Q294.5772 264.5437 284.5772 264.5437 L236.5772 264.5437 Q226.5772 264.5437 226.5772 254.5437 Z" stroke="none" clip-path="url(#clipPath2)"/>
    </g>
    <g text-rendering="geometricPrecision" stroke-miterlimit="1.45" shape-rendering="geometricPrecision" transform="matrix(1,0,0,1,-211,-158)" stroke-linecap="butt">
      <path fill="none" d="M226.5772 234.5437 Q226.5772 224.5437 236.5772 224.5437 L284.5772 224.5437 Q294.5772 224.5437 294.5772 234.5437 L294.5772 254.5437 Q294.5772 264.5437 284.5772 264.5437 L236.5772 264.5437 Q226.5772 264.5437 226.5772 254.5437 Z" clip-path="url(#clipPath2)"/>
      <text x="248.3499" xml:space="preserve" y="241.0296" clip-path="url(#clipPath2)" font-family="sans-serif" stroke="none">DNS</text>
      <text x="244.44" xml:space="preserve" y="257.3646" clip-path="url(#clipPath2)" font-family="sans-serif" stroke="none">Client</text>
    </g>
    <g fill="white" text-rendering="geometricPrecision" shape-rendering="geometricPrecision" transform="matrix(1,0,0,1,-211,-158)" stroke="white">
      <rect x="409.2493" width="68" height="40" y="289.4958" clip-path="url(#clipPath2)" stroke="none"/>
    </g>
    <g stroke-linecap="butt" transform="matrix(1,0,0,1,-211,-158)" fill="gray" text-rendering="geometricPrecision" shape-rendering="geometricPrecision" stroke="gray" stroke-miterlimit="1.45">
      <rect fill="none" x="409.2493" width="68" height="40" y="289.4958" clip-path="url(#clipPath2)"/>
      <text x="426.0747" y="305.9817" clip-path="url(#clipPath2)" fill="black" font-family="sans-serif" stroke="none" xml:space="preserve">hosts-</text>
      <text x="424.5695" y="322.3167" clip-path="url(#clipPath2)" fill="black" font-family="sans-serif" stroke="none" xml:space="preserve">search</text>
    </g>
    <g fill="white" text-rendering="geometricPrecision" shape-rendering="geometricPrecision" transform="matrix(1,0,0,1,-211,-158)" stroke="white">
      <rect x="499.2493" width="68" height="40" y="289.4958" clip-path="url(#clipPath2)" stroke="none"/>
    </g>
    <g stroke-linecap="butt" transform="matrix(1,0,0,1,-211,-158)" fill="gray" text-rendering="geometricPrecision" shape-rendering="geometricPrecision" stroke="gray" stroke-miterlimit="1.45">
      <rect fill="none" x="499.2493" width="68" height="40" y="289.4958" clip-path="url(#clipPath2)"/>
      <text x="504.639" y="305.9817" clip-path="url(#clipPath2)" fill="black" font-family="sans-serif" stroke="none" xml:space="preserve">file-cache-</text>
      <text x="523.7025" y="322.3167" clip-path="url(#clipPath2)" fill="black" font-family="sans-serif" stroke="none" xml:space="preserve">req</text>
    </g>
    <g fill="white" text-rendering="geometricPrecision" shape-rendering="geometricPrecision" transform="matrix(1,0,0,1,-211,-158)" stroke="white">
      <rect x="776.92" width="68" height="40" y="289.4958" clip-path="url(#clipPath2)" stroke="none"/>
    </g>
    <g stroke-linecap="butt" transform="matrix(1,0,0,1,-211,-158)" fill="gray" text-rendering="geometricPrecision" shape-rendering="geometricPrecision" stroke="gray" stroke-miterlimit="1.45">
      <rect fill="none" x="776.92" width="68" height="40" y="289.4958" clip-path="url(#clipPath2)"/>
      <text x="782.3098" y="305.9817" clip-path="url(#clipPath2)" fill="black" font-family="sans-serif" stroke="none" xml:space="preserve">file-cache-</text>
      <text x="798.5009" y="322.3167" clip-path="url(#clipPath2)" fill="black" font-family="sans-serif" stroke="none" xml:space="preserve">resp</text>
    </g>
    <g fill="white" text-rendering="geometricPrecision" shape-rendering="geometricPrecision" transform="matrix(1,0,0,1,-211,-158)" stroke="white">
      <rect x="682.92" width="68" height="40" y="224.5437" clip-path="url(#clipPath2)" stroke="none"/>
    </g>
    <g stroke-linecap="butt" transform="matrix(1,0,0,1,-211,-158)" fill="gray" text-rendering="geometricPrecision" shape-rendering="geometricPrecision" stroke="gray" stroke-miterlimit="1.45">
      <rect fill="none" x="682.92" width="68" height="40" y="224.5437" clip-path="url(#clipPath2)"/>
      <text x="687.728" y="241.0296" clip-path="url(#clipPath2)" fill="black" font-family="sans-serif" stroke="none" xml:space="preserve">upstream-</text>
      <text x="704.5308" y="257.3646" clip-path="url(#clipPath2)" fill="black" font-family="sans-serif" stroke="none" xml:space="preserve">UDP</text>
    </g>
    <g fill="white" text-rendering="geometricPrecision" shape-rendering="geometricPrecision" transform="matrix(1,0,0,1,-211,-158)" stroke="white">
      <rect x="866.92" width="68" height="40" y="289.4958" clip-path="url(#clipPath2)" stroke="none"/>
    </g>
    <g stroke-linecap="butt" transform="matrix(1,0,0,1,-211,-158)" fill="gray" text-rendering="geometricPrecision" shape-rendering="geometricPrecision" stroke="gray" stroke-miterlimit="1.45">
      <rect fill="none" x="866.92" width="68" height="40" y="289.4958" clip-path="url(#clipPath2)"/>
      <text x="874.9123" y="314.1492" clip-path="url(#clipPath2)" fill="black" font-family="sans-serif" stroke="none" xml:space="preserve">response</text>
    </g>
    <g fill="white" text-rendering="geometricPrecision" shape-rendering="geometricPrecision" transform="matrix(1,0,0,1,-211,-158)" stroke="white">
      <rect x="956.92" width="68" height="40" y="289.4958" clip-path="url(#clipPath2)" stroke="none"/>
    </g>
    <g stroke-linecap="butt" transform="matrix(1,0,0,1,-211,-158)" fill="gray" text-rendering="geometricPrecision" shape-rendering="geometricPrecision" stroke="gray" stroke-miterlimit="1.45">
      <rect fill="none" x="956.92" width="68" height="40" y="289.4958" clip-path="url(#clipPath2)"/>
      <text x="975.3406" y="305.9817" clip-path="url(#clipPath2)" fill="black" font-family="sans-serif" stroke="none" xml:space="preserve">send-</text>
      <text x="964.9123" y="322.3167" clip-path="url(#clipPath2)" fill="black" font-family="sans-serif" stroke="none" xml:space="preserve">response</text>
    </g>
    <g fill="white" text-rendering="geometricPrecision" shape-rendering="geometricPrecision" transform="matrix(1,0,0,1,-211,-158)" stroke="white">
      <path d="M593.2493 183.0635 Q593.2493 173.0635 603.2493 173.0635 L651.2493 173.0635 Q661.2493 173.0635 661.2493 183.0635 L661.2493 203.0635 Q661.2493 213.0635 651.2493 213.0635 L603.2493 213.0635 Q593.2493 213.0635 593.2493 203.0635 Z" stroke="none" clip-path="url(#clipPath2)"/>
    </g>
    <g text-rendering="geometricPrecision" stroke-miterlimit="1.45" shape-rendering="geometricPrecision" transform="matrix(1,0,0,1,-211,-158)" stroke-linecap="butt">
      <path fill="none" d="M593.2493 183.0635 Q593.2493 173.0635 603.2493 173.0635 L651.2493 173.0635 Q661.2493 173.0635 661.2493 183.0635 L661.2493 203.0635 Q661.2493 213.0635 651.2493 213.0635 L603.2493 213.0635 Q593.2493 213.0635 593.2493 203.0635 Z" clip-path="url(#clipPath2)"/>
      <text x="602.6208" xml:space="preserve" y="189.5495" clip-path="url(#clipPath2)" font-family="sans-serif" stroke="none">DNS-file-</text>
      <text x="605.6732" xml:space="preserve" y="205.8845" clip-path="url(#clipPath2)" font-family="sans-serif" stroke="none">storage</text>
    </g>
    <g fill="rgb(255,255,204)" text-rendering="geometricPrecision" shape-rendering="geometricPrecision" transform="matrix(1,0,0,1,-211,-158)" stroke="rgb(255,255,204)">
      <path d="M688.2479 299.4958 Q688.2479 289.4958 698.2479 289.4958 L735.5921 289.4958 Q745.5921 289.4958 745.5921 299.4958 L745.5921 319.4958 Q745.5921 329.4958 735.5921 329.4958 L698.2479 329.4958 Q688.2479 329.4958 688.2479 319.4958 Z" stroke="none" clip-path="url(#clipPath2)"/>
    </g>
    <g text-rendering="geometricPrecision" stroke-miterlimit="1.45" shape-rendering="geometricPrecision" transform="matrix(1,0,0,1,-211,-158)" stroke-linecap="butt">
      <path fill="none" d="M688.2479 299.4958 Q688.2479 289.4958 698.2479 289.4958 L735.5921 289.4958 Q745.5921 289.4958 745.5921 299.4958 L745.5921 319.4958 Q745.5921 329.4958 735.5921 329.4958 L698.2479 329.4958 Q688.2479 329.4958 688.2479 319.4958 Z" clip-path="url(#clipPath2)"/>
      <text x="704.6927" xml:space="preserve" y="305.9817" clip-path="url(#clipPath2)" font-family="sans-serif" stroke="none">DNS</text>
      <text x="698.864" xml:space="preserve" y="322.3167" clip-path="url(#clipPath2)" font-family="sans-serif" stroke="none">Server</text>
    </g>
    <g fill="white" text-rendering="geometricPrecision" shape-rendering="geometricPrecision" transform="matrix(1,0,0,1,-211,-158)" stroke="white">
      <path d="M409.2493 198.5915 Q409.2493 188.5915 419.2493 188.5915 L467.2493 188.5915 Q477.2493 188.5915 477.2493 198.5915 L477.2493 218.5915 Q477.2493 228.5915 467.2493 228.5915 L419.2493 228.5915 Q409.2493 228.5915 409.2493 218.5915 Z" stroke="none" clip-path="url(#clipPath2)"/>
    </g>
    <g text-rendering="geometricPrecision" stroke-miterlimit="1.45" shape-rendering="geometricPrecision" transform="matrix(1,0,0,1,-211,-158)" stroke-linecap="butt">
      <path fill="none" d="M409.2493 198.5915 Q409.2493 188.5915 419.2493 188.5915 L467.2493 188.5915 Q477.2493 188.5915 477.2493 198.5915 L477.2493 218.5915 Q477.2493 228.5915 467.2493 228.5915 L419.2493 228.5915 Q409.2493 228.5915 409.2493 218.5915 Z" clip-path="url(#clipPath2)"/>
      <text x="418.6988" xml:space="preserve" y="213.245" clip-path="url(#clipPath2)" font-family="sans-serif" stroke="none">hosts-db</text>
    </g>
    <g fill="white" text-rendering="geometricPrecision" shape-rendering="geometricPrecision" transform="matrix(1,0,0,1,-211,-158)" stroke="white">
      <rect x="682.92" width="68" height="40" y="419.4" clip-path="url(#clipPath2)" stroke="none"/>
    </g>
    <g stroke-linecap="butt" transform="matrix(1,0,0,1,-211,-158)" fill="gray" text-rendering="geometricPrecision" shape-rendering="geometricPrecision" stroke="gray" stroke-miterlimit="1.45">
      <rect fill="none" x="682.92" width="68" height="40" y="419.4" clip-path="url(#clipPath2)"/>
      <text x="687.728" y="435.8859" clip-path="url(#clipPath2)" fill="black" font-family="sans-serif" stroke="none" xml:space="preserve">upstream-</text>
      <text x="703.4154" y="452.2209" clip-path="url(#clipPath2)" fill="black" font-family="sans-serif" stroke="none" xml:space="preserve">DOH</text>
    </g>
    <g fill="white" text-rendering="geometricPrecision" shape-rendering="geometricPrecision" transform="matrix(1,0,0,1,-211,-158)" stroke="white">
      <rect x="688.2479" width="57.3442" height="40" y="354.4479" clip-path="url(#clipPath2)" stroke="none"/>
    </g>
    <g stroke-linecap="butt" transform="matrix(1,0,0,1,-211,-158)" fill="gray" text-rendering="geometricPrecision" shape-rendering="geometricPrecision" stroke="gray" stroke-miterlimit="1.45">
      <rect fill="none" x="688.2479" width="57.3442" height="40" y="354.4479" clip-path="url(#clipPath2)"/>
    </g>
    <g stroke-linecap="butt" transform="matrix(1,0,0,1,-211,-158)" text-rendering="geometricPrecision" font-family="sans-serif" shape-rendering="geometricPrecision" font-weight="bold" stroke-miterlimit="1.45">
      <text x="698.3182" xml:space="preserve" y="370.9338" clip-path="url(#clipPath2)" stroke="none">HTTPS</text>
      <text x="699.3557" xml:space="preserve" y="387.2688" clip-path="url(#clipPath2)" stroke="none">Client</text>
    </g>
    <g fill="white" text-rendering="geometricPrecision" shape-rendering="geometricPrecision" transform="matrix(1,0,0,1,-211,-158)" stroke="white">
      <rect x="324.5772" width="57.3442" height="40" y="224.5437" clip-path="url(#clipPath2)" stroke="none"/>
    </g>
    <g stroke-linecap="butt" transform="matrix(1,0,0,1,-211,-158)" fill="gray" text-rendering="geometricPrecision" shape-rendering="geometricPrecision" stroke="gray" stroke-miterlimit="1.45">
      <rect fill="none" x="324.5772" width="57.3442" height="40" y="224.5437" clip-path="url(#clipPath2)"/>
    </g>
    <g stroke-linecap="butt" transform="matrix(1,0,0,1,-211,-158)" text-rendering="geometricPrecision" font-family="sans-serif" shape-rendering="geometricPrecision" font-weight="bold" stroke-miterlimit="1.45">
      <text x="340.6322" xml:space="preserve" y="241.0296" clip-path="url(#clipPath2)" stroke="none">DNS</text>
      <text x="333.9998" xml:space="preserve" y="257.3646" clip-path="url(#clipPath2)" stroke="none">Server</text>
    </g>
    <g fill="white" text-rendering="geometricPrecision" shape-rendering="geometricPrecision" transform="matrix(1,0,0,1,-211,-158)" stroke="white">
      <rect x="593.2493" width="68" height="40" y="289.4958" clip-path="url(#clipPath2)" stroke="none"/>
    </g>
    <g stroke-linecap="butt" transform="matrix(1,0,0,1,-211,-158)" fill="gray" text-rendering="geometricPrecision" shape-rendering="geometricPrecision" stroke="gray" stroke-miterlimit="1.45">
      <rect fill="none" x="593.2493" width="68" height="40" y="289.4958" clip-path="url(#clipPath2)"/>
      <text x="598.0573" y="305.9817" clip-path="url(#clipPath2)" fill="black" font-family="sans-serif" stroke="none" xml:space="preserve">upstream-</text>
      <text x="615.4777" y="322.3167" clip-path="url(#clipPath2)" fill="black" font-family="sans-serif" stroke="none" xml:space="preserve">mgr</text>
    </g>
    <g stroke-linecap="butt" transform="matrix(1,0,0,1,-211,-158)" fill="rgb(51,102,255)" text-rendering="geometricPrecision" shape-rendering="geometricPrecision" stroke="rgb(51,102,255)" stroke-miterlimit="1.45">
      <path fill="none" d="M387.2493 309.4958 L401.2063 309.4958" clip-path="url(#clipPath2)"/>
    </g>
    <g stroke-linecap="butt" transform="matrix(1,0,0,1,-211,-158)" fill="rgb(51,102,255)" text-rendering="geometricPrecision" shape-rendering="geometricPrecision" stroke="rgb(51,102,255)" stroke-miterlimit="1.45">
      <path d="M409.2063 309.4958 L397.2063 304.4958 L400.2063 309.4958 L397.2063 314.4958 Z" stroke="none" clip-path="url(#clipPath2)"/>
      <path fill="none" d="M477.2493 309.4958 L491.2063 309.4958" clip-path="url(#clipPath2)"/>
      <path d="M499.2063 309.4958 L487.2063 304.4958 L490.2063 309.4958 L487.2063 314.4958 Z" clip-path="url(#clipPath2)" stroke="none"/>
      <path fill="none" d="M750.92 244.5437 L782.5436 244.5437 L795.42 257.42 L795.42 281.4644" clip-path="url(#clipPath2)"/>
      <path d="M795.42 289.4644 L800.42 277.4644 L795.42 280.4644 L790.42 277.4644 Z" clip-path="url(#clipPath2)" stroke="none"/>
      <path fill="none" d="M844.92 309.4958 L858.877 309.4958" clip-path="url(#clipPath2)"/>
      <path d="M866.877 309.4958 L854.877 304.4958 L857.877 309.4958 L854.877 314.4958 Z" clip-path="url(#clipPath2)" stroke="none"/>
      <path fill="none" d="M934.92 309.4958 L948.877 309.4958" clip-path="url(#clipPath2)"/>
      <path d="M956.877 309.4958 L944.877 304.4958 L947.877 309.4958 L944.877 314.4958 Z" clip-path="url(#clipPath2)" stroke="none"/>
      <path fill="none" d="M990.92 289.4584 L990.92 279.92 L988.0197 277.0197 L316.0197 277.0197 L309.5772 270.5772 L309.5772 256.5772 L306.0437 253.0437 L302.5772 253.0437" clip-path="url(#clipPath2)"/>
      <path d="M294.5772 253.0437 L306.5772 258.0436 L303.5772 253.0437 L306.5772 248.0437 Z" clip-path="url(#clipPath2)" stroke="none"/>
      <path fill="none" d="M533.2493 289.4573 L533.2493 210.7507 L550.9365 193.0635 L585.2079 193.0635" clip-path="url(#clipPath2)"/>
      <path d="M593.2079 193.0635 L581.2079 188.0635 L584.2079 193.0635 L581.2079 198.0635 Z" clip-path="url(#clipPath2)" stroke="none"/>
      <path fill="none" d="M826.42 289.4596 L826.42 215.42 L804.0635 193.0635 L669.2493 193.0635" clip-path="url(#clipPath2)"/>
      <path d="M661.2493 193.0635 L673.2493 198.0635 L670.2493 193.0635 L673.2493 188.0635 Z" clip-path="url(#clipPath2)" stroke="none"/>
      <path fill="none" d="M716.92 264.5437 L716.92 281.447" clip-path="url(#clipPath2)"/>
      <path d="M716.92 289.447 L721.92 277.447 L716.92 280.447 L711.92 277.447 Z" clip-path="url(#clipPath2)" stroke="none"/>
      <path fill="none" d="M443.2493 289.466 L443.2493 236.5915" clip-path="url(#clipPath2)"/>
      <path d="M443.2493 228.5915 L438.2493 240.5915 L443.2493 237.5915 L448.2493 240.5915 Z" clip-path="url(#clipPath2)" stroke="none"/>
      <path fill="none" d="M750.92 439.4 L793.6 439.4 L810.92 422.08 L810.92 337.4958" clip-path="url(#clipPath2)"/>
      <path d="M810.92 329.4958 L805.92 341.4958 L810.92 338.4958 L815.92 341.4958 Z" clip-path="url(#clipPath2)" stroke="none"/>
      <path fill="none" d="M704.084 419.3513 L704.084 402.4479" clip-path="url(#clipPath2)"/>
      <path d="M704.084 394.4479 L699.084 406.4479 L704.084 403.4479 L709.084 406.4479 Z" clip-path="url(#clipPath2)" stroke="none"/>
      <path fill="none" d="M729.756 394.4479 L729.756 411.3513" clip-path="url(#clipPath2)"/>
      <path d="M729.756 419.3513 L734.756 407.3513 L729.756 410.3513 L724.756 407.3513 Z" clip-path="url(#clipPath2)" stroke="none"/>
      <path fill="none" d="M716.92 354.3991 L716.92 337.4958" clip-path="url(#clipPath2)"/>
      <path d="M716.92 329.4958 L711.92 341.4958 L716.92 338.4958 L721.92 341.4958 Z" clip-path="url(#clipPath2)" stroke="none"/>
      <path fill="none" d="M294.5772 236.0437 L316.5479 236.0437" clip-path="url(#clipPath2)"/>
      <path d="M324.5479 236.0437 L312.5479 231.0437 L315.5479 236.0437 L312.5479 241.0437 Z" clip-path="url(#clipPath2)" stroke="none"/>
      <path fill="none" d="M353.2493 264.5437 L353.2493 281.447" clip-path="url(#clipPath2)"/>
      <path d="M353.2493 289.447 L358.2493 277.447 L353.2493 280.447 L348.2493 277.447 Z" clip-path="url(#clipPath2)" stroke="none"/>
      <path fill="none" stroke-dasharray="6,2" d="M567.2493 309.4958 L585.2239 309.4958" clip-path="url(#clipPath2)"/>
      <path stroke-dasharray="6,2" d="M593.2239 309.4958 L581.2239 304.4958 L584.2239 309.4958 L581.2239 314.4958 Z" clip-path="url(#clipPath2)" stroke="none"/>
      <path fill="none" stroke-dasharray="6,2" d="M627.2493 329.4958 L627.2493 423.2493 L643.4 439.4 L674.8814 439.4" clip-path="url(#clipPath2)"/>
      <path stroke-dasharray="6,2" d="M682.8814 439.4 L670.8814 434.4 L673.8814 439.4 L670.8814 444.4 Z" clip-path="url(#clipPath2)" stroke="none"/>
      <path fill="none" stroke-dasharray="6,2" d="M627.2493 289.4648 L627.2493 257.7507 L640.4564 244.5437 L674.8785 244.5437" clip-path="url(#clipPath2)"/>
      <path stroke-dasharray="6,2" d="M682.8785 244.5437 L670.8785 239.5437 L673.8785 244.5437 L670.8785 249.5437 Z" clip-path="url(#clipPath2)" stroke="none"/>
    </g>
  </g>
</svg>
