<?xml version="1.0" encoding="UTF-8"?><svg xmlns="http://www.w3.org/2000/svg" xmlns:xlink="http://www.w3.org/1999/xlink" fill-opacity="1" color-rendering="auto" color-interpolation="auto" text-rendering="auto" stroke="black" stroke-linecap="square" width="520" stroke-miterlimit="10" shape-rendering="auto" stroke-opacity="1" fill="black" stroke-dasharray="none" font-weight="normal" stroke-width="1" height="359" font-family="'Dialog'" font-style="normal" stroke-linejoin="miter" font-size="12px" stroke-dashoffset="0" image-rendering="auto">
  <!--Generated by ySVG 2.5-->
  <defs id="genericDefs"/>
  <g>
    <defs id="defs1">
      <clipPath clipPathUnits="userSpaceOnUse" id="clipPath1">
        <path d="M0 0 L520 0 L520 359 L0 359 L0 0 Z"/>
      </clipPath>
      <clipPath clipPathUnits="userSpaceOnUse" id="clipPath2">
        <path d="M351 271 L871 271 L871 630 L351 630 L351 271 Z"/>
      </clipPath>
    </defs>
    <g fill="white" text-rendering="geometricPrecision" shape-rendering="geometricPrecision" transform="translate(-351,-271)" stroke="white">
      <rect x="351" width="520" height="359" y="271" clip-path="url(#clipPath2)" stroke="none"/>
    </g>
    <g fill="white" text-rendering="geometricPrecision" shape-rendering="geometricPrecision" transform="matrix(1,0,0,1,-351,-271)" stroke="white">
      <rect x="630.7688" width="60" height="40" y="286" clip-path="url(#clipPath2)" stroke="none"/>
    </g>
    <g stroke-linecap="butt" transform="matrix(1,0,0,1,-351,-271)" fill="gray" text-rendering="geometricPrecision" shape-rendering="geometricPrecision" stroke="gray" stroke-miterlimit="1.45">
      <rect fill="none" x="630.7688" width="60" height="40" y="286" clip-path="url(#clipPath2)"/>
    </g>
    <g stroke-linecap="butt" transform="matrix(1,0,0,1,-351,-271)" text-rendering="geometricPrecision" font-family="sans-serif" shape-rendering="geometricPrecision" font-weight="bold" stroke-miterlimit="1.45">
      <text x="636.3382" xml:space="preserve" y="302.4859" clip-path="url(#clipPath2)" stroke="none">HTTP-SV</text>
      <text x="643.6602" xml:space="preserve" y="318.821" clip-path="url(#clipPath2)" stroke="none">proxy</text>
    </g>
    <g fill="white" text-rendering="geometricPrecision" shape-rendering="geometricPrecision" transform="matrix(1,0,0,1,-351,-271)" stroke="white">
      <rect x="390.5604" width="57.3442" height="40" y="376" clip-path="url(#clipPath2)" stroke="none"/>
    </g>
    <g stroke-linecap="butt" transform="matrix(1,0,0,1,-351,-271)" fill="gray" text-rendering="geometricPrecision" shape-rendering="geometricPrecision" stroke="gray" stroke-miterlimit="1.45">
      <rect fill="none" x="390.5604" width="57.3442" height="40" y="376" clip-path="url(#clipPath2)"/>
    </g>
    <g stroke-linecap="butt" transform="matrix(1,0,0,1,-351,-271)" text-rendering="geometricPrecision" font-family="sans-serif" shape-rendering="geometricPrecision" font-weight="bold" stroke-miterlimit="1.45">
      <text x="403.9349" xml:space="preserve" y="392.4859" clip-path="url(#clipPath2)" stroke="none">HTTP</text>
      <text x="401.6682" xml:space="preserve" y="408.821" clip-path="url(#clipPath2)" stroke="none">Client</text>
    </g>
    <g fill="white" text-rendering="geometricPrecision" shape-rendering="geometricPrecision" transform="matrix(1,0,0,1,-351,-271)" stroke="white">
      <rect x="630.7688" width="60" height="40" y="426" clip-path="url(#clipPath2)" stroke="none"/>
    </g>
    <g stroke-linecap="butt" transform="matrix(1,0,0,1,-351,-271)" fill="gray" text-rendering="geometricPrecision" shape-rendering="geometricPrecision" stroke="gray" stroke-miterlimit="1.45">
      <rect fill="none" x="630.7688" width="60" height="40" y="426" clip-path="url(#clipPath2)"/>
      <text x="637.1658" y="442.4859" clip-path="url(#clipPath2)" fill="black" font-family="sans-serif" stroke="none" xml:space="preserve">HTTP-CL</text>
      <text x="640.7458" y="458.821" clip-path="url(#clipPath2)" fill="black" font-family="sans-serif" stroke="none" xml:space="preserve">chain...</text>
    </g>
    <g fill="rgb(255,255,204)" text-rendering="geometricPrecision" shape-rendering="geometricPrecision" transform="matrix(1,0,0,1,-351,-271)" stroke="rgb(255,255,204)">
      <path d="M710.5141 586.96 Q710.5141 574.96 722.5141 574.96 L764.0502 574.96 Q776.0502 574.96 776.0502 586.96 L776.0502 602.96 Q776.0502 614.96 764.0502 614.96 L722.5141 614.96 Q710.5141 614.96 710.5141 602.96 Z" stroke="none" clip-path="url(#clipPath2)"/>
    </g>
    <g stroke-linecap="butt" transform="matrix(1,0,0,1,-351,-271)" fill="gray" text-rendering="geometricPrecision" shape-rendering="geometricPrecision" stroke="gray" stroke-miterlimit="1.45">
      <path fill="none" d="M710.5141 586.96 Q710.5141 574.96 722.5141 574.96 L764.0502 574.96 Q776.0502 574.96 776.0502 586.96 L776.0502 602.96 Q776.0502 614.96 764.0502 614.96 L722.5141 614.96 Q710.5141 614.96 710.5141 602.96 Z" clip-path="url(#clipPath2)"/>
      <text x="728.5422" y="591.4459" clip-path="url(#clipPath2)" fill="black" font-family="sans-serif" stroke="none" xml:space="preserve">HTTP</text>
      <text x="725.2261" y="607.7809" clip-path="url(#clipPath2)" fill="black" font-family="sans-serif" stroke="none" xml:space="preserve">Server</text>
    </g>
    <g fill="rgb(255,255,204)" text-rendering="geometricPrecision" shape-rendering="geometricPrecision" transform="matrix(1,0,0,1,-351,-271)" stroke="rgb(255,255,204)">
      <path d="M551.4749 586.96 Q551.4749 574.96 563.4749 574.96 L596.819 574.96 Q608.819 574.96 608.819 586.96 L608.819 602.96 Q608.819 614.96 596.819 614.96 L563.4749 614.96 Q551.4749 614.96 551.4749 602.96 Z" stroke="none" clip-path="url(#clipPath2)"/>
    </g>
    <g stroke-linecap="butt" transform="matrix(1,0,0,1,-351,-271)" fill="gray" text-rendering="geometricPrecision" shape-rendering="geometricPrecision" stroke="gray" stroke-miterlimit="1.45">
      <path fill="none" d="M551.4749 586.96 Q551.4749 574.96 563.4749 574.96 L596.819 574.96 Q608.819 574.96 608.819 586.96 L608.819 602.96 Q608.819 614.96 596.819 614.96 L563.4749 614.96 Q551.4749 614.96 551.4749 602.96 Z" clip-path="url(#clipPath2)"/>
      <text x="567.9196" y="591.4459" clip-path="url(#clipPath2)" fill="black" font-family="sans-serif" stroke="none" xml:space="preserve">DNS</text>
      <text x="562.0908" y="607.7809" clip-path="url(#clipPath2)" fill="black" font-family="sans-serif" stroke="none" xml:space="preserve">Server</text>
    </g>
    <g fill="white" text-rendering="geometricPrecision" shape-rendering="geometricPrecision" transform="matrix(1,0,0,1,-351,-271)" stroke="white">
      <rect x="366.5247" width="105.4156" height="20.0667" y="333.4479" clip-path="url(#clipPath2)" stroke="none"/>
    </g>
    <g stroke-linecap="butt" transform="matrix(1,0,0,1,-351,-271)" fill="gray" text-rendering="geometricPrecision" shape-rendering="geometricPrecision" stroke="gray" stroke-miterlimit="1.45">
      <rect fill="none" x="366.5247" width="105.4156" height="20.0667" y="333.4479" clip-path="url(#clipPath2)"/>
      <text x="378.5749" y="348.1347" clip-path="url(#clipPath2)" fill="black" font-family="sans-serif" stroke="none" xml:space="preserve">conf { chain[] }</text>
    </g>
    <g fill="white" text-rendering="geometricPrecision" shape-rendering="geometricPrecision" transform="matrix(1,0,0,1,-351,-271)" stroke="white">
      <rect x="795.7955" width="60" height="40" y="426" clip-path="url(#clipPath2)" stroke="none"/>
    </g>
    <g stroke-linecap="butt" transform="matrix(1,0,0,1,-351,-271)" fill="gray" text-rendering="geometricPrecision" shape-rendering="geometricPrecision" stroke="gray" stroke-miterlimit="1.45">
      <rect fill="none" x="795.7955" width="60" height="40" y="426" clip-path="url(#clipPath2)"/>
      <text x="807.8413" y="442.4859" clip-path="url(#clipPath2)" fill="black" font-family="sans-serif" stroke="none" xml:space="preserve">proxy-</text>
      <text x="816.2967" y="458.821" clip-path="url(#clipPath2)" fill="black" font-family="sans-serif" stroke="none" xml:space="preserve">out</text>
    </g>
    <g fill="white" text-rendering="geometricPrecision" shape-rendering="geometricPrecision" transform="matrix(1,0,0,1,-351,-271)" stroke="white">
      <rect x="466.9916" width="60" height="40" y="426" clip-path="url(#clipPath2)" stroke="none"/>
    </g>
    <g stroke-linecap="butt" transform="matrix(1,0,0,1,-351,-271)" fill="gray" text-rendering="geometricPrecision" shape-rendering="geometricPrecision" stroke="gray" stroke-miterlimit="1.45">
      <rect fill="none" x="466.9916" width="60" height="40" y="426" clip-path="url(#clipPath2)"/>
      <text x="479.0375" y="442.4859" clip-path="url(#clipPath2)" fill="black" font-family="sans-serif" stroke="none" xml:space="preserve">proxy-</text>
      <text x="491.7385" y="458.821" clip-path="url(#clipPath2)" fill="black" font-family="sans-serif" stroke="none" xml:space="preserve">in</text>
    </g>
    <g stroke-linecap="butt" transform="matrix(1,0,0,1,-351,-271)" fill="gray" text-rendering="geometricPrecision" shape-rendering="geometricPrecision" stroke="gray" stroke-miterlimit="1.45">
      <path fill="none" d="M630.7197 297.5 L429.5 297.5 L419.2325 307.7675 L419.2325 325.4229" clip-path="url(#clipPath2)"/>
    </g>
    <g stroke-linecap="butt" transform="matrix(1,0,0,1,-351,-271)" fill="gray" text-rendering="geometricPrecision" shape-rendering="geometricPrecision" stroke="gray" stroke-miterlimit="1.45">
      <path d="M419.2325 333.4229 L424.2325 321.4229 L419.2325 324.4229 L414.2325 321.4229 Z" stroke="none" clip-path="url(#clipPath2)"/>
      <path fill="none" d="M419.2325 353.5146 L419.2325 367.9561" clip-path="url(#clipPath2)"/>
      <path d="M419.2325 375.9561 L424.2325 363.9561 L419.2325 366.9561 L414.2325 363.9561 Z" clip-path="url(#clipPath2)" stroke="none"/>
      <path fill="none" d="M690.7688 437.5 L787.7698 437.5" clip-path="url(#clipPath2)" stroke="rgb(51,102,255)"/>
      <path fill="rgb(51,102,255)" d="M795.7698 437.5 L783.7698 432.5 L786.7698 437.5 L783.7698 442.5 Z" clip-path="url(#clipPath2)" stroke="none"/>
      <path fill="none" d="M825.7955 425.9525 L825.7955 328.7955 L803 306 L698.7688 306" clip-path="url(#clipPath2)" stroke="rgb(51,102,255)"/>
      <path fill="rgb(51,102,255)" d="M690.7688 306 L702.7688 311 L699.7688 306 L702.7688 301 Z" clip-path="url(#clipPath2)" stroke="none"/>
      <path fill="none" d="M419.2325 416 L419.2325 437.2325 L428 446 L458.9536 446" clip-path="url(#clipPath2)" stroke="rgb(51,102,255)"/>
      <path fill="rgb(51,102,255)" d="M466.9536 446 L454.9536 441 L457.9536 446 L454.9536 451 Z" clip-path="url(#clipPath2)" stroke="none"/>
      <path fill="none" d="M630.7277 314.5 L546.5 314.5 L523.5693 337.4307 L523.5693 417.9568" clip-path="url(#clipPath2)" stroke="rgb(51,102,255)"/>
      <path fill="rgb(51,102,255)" d="M523.5693 425.9568 L528.5693 413.9568 L523.5693 416.9568 L518.5693 413.9568 Z" clip-path="url(#clipPath2)" stroke="none"/>
      <path fill="none" stroke-dasharray="6,2" d="M526.9916 437.5 L622.7435 437.5" clip-path="url(#clipPath2)" stroke="rgb(51,102,255)"/>
      <path fill="rgb(51,102,255)" stroke-dasharray="6,2" d="M630.7435 437.5 L618.7435 432.5 L621.7435 437.5 L618.7435 442.5 Z" clip-path="url(#clipPath2)" stroke="none"/>
    </g>
    <g fill="rgb(104,176,227)" text-rendering="geometricPrecision" shape-rendering="geometricPrecision" transform="matrix(1,0,0,1,-351,-271)" stroke="rgb(104,176,227)">
      <path d="M533.1469 474.5 L533.1469 564.835 L788.2821 564.835 L788.2821 474.5 ZM534.1469 496.5 L534.1469 563.835 L787.2821 563.835 L787.2821 496.5 Z" fill-rule="evenodd" clip-path="url(#clipPath2)" stroke="none"/>
    </g>
    <g stroke-linecap="butt" transform="matrix(1,0,0,1,-351,-271)" fill="white" text-rendering="geometricPrecision" font-family="sans-serif" shape-rendering="geometricPrecision" stroke="white" stroke-miterlimit="1.45">
      <text x="535.1469" xml:space="preserve" y="489.321" clip-path="url(#clipPath2)" stroke="none">Tunnel Mode</text>
    </g>
    <g fill="white" text-rendering="geometricPrecision" shape-rendering="geometricPrecision" transform="matrix(1,0,0,1,-351,-271)" stroke="white">
      <rect x="548.1469" width="60" height="40" y="509.835" clip-path="url(#clipPath2)" stroke="none"/>
    </g>
    <g stroke-linecap="butt" transform="matrix(1,0,0,1,-351,-271)" fill="gray" text-rendering="geometricPrecision" shape-rendering="geometricPrecision" stroke="gray" stroke-miterlimit="1.45">
      <rect fill="none" x="548.1469" width="60" height="40" y="509.835" clip-path="url(#clipPath2)"/>
      <text x="557.8121" y="534.4885" clip-path="url(#clipPath2)" fill="black" font-family="sans-serif" stroke="none" xml:space="preserve">resolve</text>
    </g>
    <g fill="white" text-rendering="geometricPrecision" shape-rendering="geometricPrecision" transform="matrix(1,0,0,1,-351,-271)" stroke="white">
      <rect x="630.7688" width="60" height="40" y="509.835" clip-path="url(#clipPath2)" stroke="none"/>
    </g>
    <g stroke-linecap="butt" transform="matrix(1,0,0,1,-351,-271)" fill="gray" text-rendering="geometricPrecision" shape-rendering="geometricPrecision" stroke="gray" stroke-miterlimit="1.45">
      <rect fill="none" x="630.7688" width="60" height="40" y="509.835" clip-path="url(#clipPath2)"/>
      <text x="638.425" y="534.4885" clip-path="url(#clipPath2)" fill="black" font-family="sans-serif" stroke="none" xml:space="preserve">connect</text>
    </g>
    <g fill="white" text-rendering="geometricPrecision" shape-rendering="geometricPrecision" transform="matrix(1,0,0,1,-351,-271)" stroke="white">
      <rect x="713.2821" width="60" height="40" y="509.835" clip-path="url(#clipPath2)" stroke="none"/>
    </g>
    <g stroke-linecap="butt" transform="matrix(1,0,0,1,-351,-271)" fill="gray" text-rendering="geometricPrecision" shape-rendering="geometricPrecision" stroke="gray" stroke-miterlimit="1.45">
      <rect fill="none" x="713.2821" width="60" height="40" y="509.835" clip-path="url(#clipPath2)"/>
      <text x="738.107" y="534.4885" clip-path="url(#clipPath2)" fill="black" font-family="sans-serif" stroke="none" xml:space="preserve">io</text>
    </g>
    <g stroke-linecap="butt" transform="matrix(1,0,0,1,-351,-271)" fill="rgb(51,102,255)" text-rendering="geometricPrecision" shape-rendering="geometricPrecision" stroke-dasharray="6,2" stroke="rgb(51,102,255)" stroke-miterlimit="1.45">
      <path fill="none" d="M526.9916 454.5 L563.5 454.5 L578.1469 469.1469 L578.1469 501.7953" clip-path="url(#clipPath2)"/>
      <path d="M578.1469 509.7953 L583.1469 497.7953 L578.1469 500.7953 L573.1469 497.7953 Z" clip-path="url(#clipPath2)" stroke="none"/>
      <path fill="none" stroke-dasharray="none" d="M579.8109 549.835 L579.8109 566.9109" clip-path="url(#clipPath2)"/>
      <path stroke-dasharray="none" d="M579.8109 574.9109 L584.8109 562.9109 L579.8109 565.9109 L574.8109 562.9109 Z" clip-path="url(#clipPath2)" stroke="none"/>
      <path fill="none" stroke-dasharray="none" d="M608.1469 529.835 L622.7246 529.835" clip-path="url(#clipPath2)"/>
      <path stroke-dasharray="none" d="M630.7246 529.835 L618.7246 524.835 L621.7246 529.835 L618.7246 534.835 Z" clip-path="url(#clipPath2)" stroke="none"/>
      <path fill="none" stroke-dasharray="none" d="M660.7688 549.835 L660.7688 581.7688 L673.96 594.96 L702.4784 594.96" clip-path="url(#clipPath2)"/>
      <path stroke-dasharray="none" d="M710.4784 594.96 L698.4784 589.96 L701.4784 594.96 L698.4784 599.96 Z" clip-path="url(#clipPath2)" stroke="none"/>
      <path fill="none" stroke-dasharray="none" d="M690.7688 529.835 L705.2382 529.835" clip-path="url(#clipPath2)"/>
      <path stroke-dasharray="none" d="M713.2382 529.835 L701.2382 524.835 L704.2382 529.835 L701.2382 534.835 Z" clip-path="url(#clipPath2)" stroke="none"/>
      <path fill="none" stroke-dasharray="none" d="M729.7821 574.9109 L729.7821 557.835" clip-path="url(#clipPath2)"/>
      <path stroke-dasharray="none" d="M729.7821 549.835 L724.7821 561.835 L729.7821 558.835 L734.7821 561.835 Z" clip-path="url(#clipPath2)" stroke="none"/>
      <path fill="none" stroke-dasharray="none" d="M743.2821 509.7949 L743.2821 468.7179 L757.5 454.5 L787.7581 454.5" clip-path="url(#clipPath2)"/>
      <path stroke-dasharray="none" d="M795.7581 454.5 L783.7581 449.5 L786.7581 454.5 L783.7581 459.5 Z" clip-path="url(#clipPath2)" stroke="none"/>
      <path fill="none" stroke-dasharray="none" d="M756.7821 549.835 L756.7821 566.9109" clip-path="url(#clipPath2)"/>
      <path stroke-dasharray="none" d="M756.7821 574.9109 L761.7821 562.9109 L756.7821 565.9109 L751.7821 562.9109 Z" clip-path="url(#clipPath2)" stroke="none"/>
    </g>
  </g>
</svg>
