<?xml version="1.0" encoding="UTF-8"?><svg xmlns="http://www.w3.org/2000/svg" xmlns:xlink="http://www.w3.org/1999/xlink" fill-opacity="1" color-rendering="auto" color-interpolation="auto" text-rendering="auto" stroke="black" stroke-linecap="square" width="1125" stroke-miterlimit="10" shape-rendering="auto" stroke-opacity="1" fill="black" stroke-dasharray="none" font-weight="normal" stroke-width="1" height="535" font-family="'Dialog'" font-style="normal" stroke-linejoin="miter" font-size="12px" stroke-dashoffset="0" image-rendering="auto">
  <!--Generated by ySVG 2.5-->
  <defs id="genericDefs"/>
  <g>
    <defs id="defs1">
      <clipPath clipPathUnits="userSpaceOnUse" id="clipPath1">
        <path d="M0 0 L1125 0 L1125 535 L0 535 L0 0 Z"/>
      </clipPath>
      <clipPath clipPathUnits="userSpaceOnUse" id="clipPath2">
        <path d="M-153 -402 L972 -402 L972 133 L-153 133 L-153 -402 Z"/>
      </clipPath>
    </defs>
    <g fill="white" text-rendering="geometricPrecision" shape-rendering="geometricPrecision" transform="translate(153,402)" stroke="white">
      <rect x="-153" width="1125" height="535" y="-402" clip-path="url(#clipPath2)" stroke="none"/>
    </g>
    <g fill="white" text-rendering="geometricPrecision" shape-rendering="geometricPrecision" transform="matrix(1,0,0,1,153,402)" stroke="white">
      <rect x="108.2114" width="60" height="40" y="-120" clip-path="url(#clipPath2)" stroke="none"/>
    </g>
    <g stroke-linecap="butt" transform="matrix(1,0,0,1,153,402)" fill="gray" text-rendering="geometricPrecision" shape-rendering="geometricPrecision" stroke="gray" stroke-miterlimit="1.45">
      <rect fill="none" x="108.2114" width="60" height="40" y="-120" clip-path="url(#clipPath2)"/>
      <text x="120.4971" y="-103.5141" clip-path="url(#clipPath2)" fill="black" font-family="sans-serif" stroke="none" xml:space="preserve">parse-</text>
      <text x="116.5393" y="-87.179" clip-path="url(#clipPath2)" fill="black" font-family="sans-serif" stroke="none" xml:space="preserve">request</text>
    </g>
    <g fill="white" text-rendering="geometricPrecision" shape-rendering="geometricPrecision" transform="matrix(1,0,0,1,153,402)" stroke="white">
      <rect x="644.5489" width="60" height="40" y="-120" clip-path="url(#clipPath2)" stroke="none"/>
    </g>
    <g stroke-linecap="butt" transform="matrix(1,0,0,1,153,402)" fill="gray" text-rendering="geometricPrecision" shape-rendering="geometricPrecision" stroke="gray" stroke-miterlimit="1.45">
      <rect fill="none" x="644.5489" width="60" height="40" y="-120" clip-path="url(#clipPath2)"/>
      <text x="659.3832" y="-103.5141" clip-path="url(#clipPath2)" fill="black" font-family="sans-serif" stroke="none" xml:space="preserve">prep-</text>
      <text x="648.5412" y="-87.179" clip-path="url(#clipPath2)" fill="black" font-family="sans-serif" stroke="none" xml:space="preserve">response</text>
    </g>
    <g fill="white" text-rendering="geometricPrecision" shape-rendering="geometricPrecision" transform="matrix(1,0,0,1,153,402)" stroke="white">
      <rect x="811.7764" width="60" height="40" y="-120" clip-path="url(#clipPath2)" stroke="none"/>
    </g>
    <g stroke-linecap="butt" transform="matrix(1,0,0,1,153,402)" fill="gray" text-rendering="geometricPrecision" shape-rendering="geometricPrecision" stroke="gray" stroke-miterlimit="1.45">
      <rect fill="none" x="811.7764" width="60" height="40" y="-120" clip-path="url(#clipPath2)"/>
      <text x="821.5975" y="-103.5141" clip-path="url(#clipPath2)" fill="black" font-family="sans-serif" stroke="none" xml:space="preserve">access-</text>
      <text x="832.9133" y="-87.179" clip-path="url(#clipPath2)" fill="black" font-family="sans-serif" stroke="none" xml:space="preserve">log</text>
    </g>
    <g fill="white" text-rendering="geometricPrecision" shape-rendering="geometricPrecision" transform="matrix(1,0,0,1,153,402)" stroke="white">
      <rect x="520.0012" width="60" height="40" y="-55.335" clip-path="url(#clipPath2)" stroke="none"/>
    </g>
    <g stroke-linecap="butt" transform="matrix(1,0,0,1,153,402)" fill="gray" text-rendering="geometricPrecision" shape-rendering="geometricPrecision" stroke="gray" stroke-miterlimit="1.45">
      <rect fill="none" x="520.0012" width="60" height="40" y="-55.335" clip-path="url(#clipPath2)"/>
      <text x="535.5612" y="-30.6816" clip-path="url(#clipPath2)" fill="black" font-family="sans-serif" stroke="none" xml:space="preserve">error</text>
    </g>
    <g fill="white" text-rendering="geometricPrecision" shape-rendering="geometricPrecision" transform="matrix(1,0,0,1,153,402)" stroke="white">
      <rect x="896.4905" width="60" height="40" y="-120" clip-path="url(#clipPath2)" stroke="none"/>
    </g>
    <g stroke-linecap="butt" transform="matrix(1,0,0,1,153,402)" fill="gray" text-rendering="geometricPrecision" shape-rendering="geometricPrecision" stroke="gray" stroke-miterlimit="1.45">
      <rect fill="none" x="896.4905" width="60" height="40" y="-120" clip-path="url(#clipPath2)"/>
      <text x="910.9051" y="-103.5141" clip-path="url(#clipPath2)" fill="black" font-family="sans-serif" stroke="none" xml:space="preserve">keep-</text>
      <text x="913.6036" y="-87.179" clip-path="url(#clipPath2)" fill="black" font-family="sans-serif" stroke="none" xml:space="preserve">alive</text>
    </g>
    <g fill="white" text-rendering="geometricPrecision" shape-rendering="geometricPrecision" transform="matrix(1,0,0,1,153,402)" stroke="white">
      <rect x="562.0356" width="60" height="40" y="-120" clip-path="url(#clipPath2)" stroke="none"/>
    </g>
    <g stroke-linecap="butt" transform="matrix(1,0,0,1,153,402)" fill="gray" text-rendering="geometricPrecision" shape-rendering="geometricPrecision" stroke="gray" stroke-miterlimit="1.45">
      <rect fill="none" x="562.0356" width="60" height="40" y="-120" clip-path="url(#clipPath2)"/>
      <text x="580.6059" y="-103.5141" clip-path="url(#clipPath2)" fill="black" font-family="sans-serif" stroke="none" xml:space="preserve">out-</text>
      <text x="569.53" y="-87.179" clip-path="url(#clipPath2)" fill="black" font-family="sans-serif" stroke="none" xml:space="preserve">transfer</text>
    </g>
    <g fill="white" text-rendering="geometricPrecision" shape-rendering="geometricPrecision" transform="matrix(1,0,0,1,153,402)" stroke="white">
      <rect x="33.116" width="60" height="40" y="-120" clip-path="url(#clipPath2)" stroke="none"/>
    </g>
    <g stroke-linecap="butt" transform="matrix(1,0,0,1,153,402)" fill="gray" text-rendering="geometricPrecision" shape-rendering="geometricPrecision" stroke="gray" stroke-miterlimit="1.45">
      <rect fill="none" x="33.116" width="60" height="40" y="-120" clip-path="url(#clipPath2)"/>
      <text x="41.0901" y="-103.5141" clip-path="url(#clipPath2)" fill="black" font-family="sans-serif" stroke="none" xml:space="preserve">receive-</text>
      <text x="41.4439" y="-87.179" clip-path="url(#clipPath2)" fill="black" font-family="sans-serif" stroke="none" xml:space="preserve">request</text>
    </g>
    <g fill="white" text-rendering="geometricPrecision" shape-rendering="geometricPrecision" transform="matrix(1,0,0,1,153,402)" stroke="white">
      <rect x="727.0623" width="60" height="40" y="-120" clip-path="url(#clipPath2)" stroke="none"/>
    </g>
    <g stroke-linecap="butt" transform="matrix(1,0,0,1,153,402)" fill="gray" text-rendering="geometricPrecision" shape-rendering="geometricPrecision" stroke="gray" stroke-miterlimit="1.45">
      <rect fill="none" x="727.0623" width="60" height="40" y="-120" clip-path="url(#clipPath2)"/>
      <text x="741.4828" y="-103.5141" clip-path="url(#clipPath2)" fill="black" font-family="sans-serif" stroke="none" xml:space="preserve">send-</text>
      <text x="731.0546" y="-87.179" clip-path="url(#clipPath2)" fill="black" font-family="sans-serif" stroke="none" xml:space="preserve">response</text>
    </g>
    <g fill="rgb(255,255,204)" text-rendering="geometricPrecision" shape-rendering="geometricPrecision" transform="matrix(1,0,0,1,153,402)" stroke="rgb(255,255,204)">
      <path d="M-137.0949 -214.0042 Q-137.0949 -226.0042 -125.0949 -226.0042 L-91.7507 -226.0042 Q-79.7507 -226.0042 -79.7507 -214.0042 L-79.7507 -198.0042 Q-79.7507 -186.0042 -91.7507 -186.0042 L-125.0949 -186.0042 Q-137.0949 -186.0042 -137.0949 -198.0042 Z" stroke="none" clip-path="url(#clipPath2)"/>
    </g>
    <g stroke-linecap="butt" transform="matrix(1,0,0,1,153,402)" fill="gray" text-rendering="geometricPrecision" shape-rendering="geometricPrecision" stroke="gray" stroke-miterlimit="1.45">
      <path fill="none" d="M-137.0949 -214.0042 Q-137.0949 -226.0042 -125.0949 -226.0042 L-91.7507 -226.0042 Q-79.7507 -226.0042 -79.7507 -214.0042 L-79.7507 -198.0042 Q-79.7507 -186.0042 -91.7507 -186.0042 L-125.0949 -186.0042 Q-137.0949 -186.0042 -137.0949 -198.0042 Z" clip-path="url(#clipPath2)"/>
      <text x="-123.1627" y="-209.5183" clip-path="url(#clipPath2)" fill="black" font-family="sans-serif" stroke="none" xml:space="preserve">HTTP</text>
      <text x="-124.56" y="-193.1833" clip-path="url(#clipPath2)" fill="black" font-family="sans-serif" stroke="none" xml:space="preserve">Client</text>
    </g>
    <g fill="white" text-rendering="geometricPrecision" shape-rendering="geometricPrecision" transform="matrix(1,0,0,1,153,402)" stroke="white">
      <rect x="0.1802" width="37.7346" height="40" y="-366.5482" clip-path="url(#clipPath2)" stroke="none"/>
    </g>
    <g stroke-linecap="butt" transform="matrix(1,0,0,1,153,402)" fill="gray" text-rendering="geometricPrecision" shape-rendering="geometricPrecision" stroke="gray" stroke-miterlimit="1.45">
      <rect fill="none" x="0.1802" width="37.7346" height="40" y="-366.5482" clip-path="url(#clipPath2)"/>
      <text x="4.8234" y="-341.8947" clip-path="url(#clipPath2)" fill="black" font-family="sans-serif" stroke="none" xml:space="preserve">main</text>
    </g>
    <g fill="white" text-rendering="geometricPrecision" shape-rendering="geometricPrecision" transform="matrix(1,0,0,1,153,402)" stroke="white">
      <rect x="-60.1677" width="57.3442" height="40" y="-251.4662" clip-path="url(#clipPath2)" stroke="none"/>
    </g>
    <g stroke-linecap="butt" transform="matrix(1,0,0,1,153,402)" fill="gray" text-rendering="geometricPrecision" shape-rendering="geometricPrecision" stroke="gray" stroke-miterlimit="1.45">
      <rect fill="none" x="-60.1677" width="57.3442" height="40" y="-251.4662" clip-path="url(#clipPath2)"/>
    </g>
    <g stroke-linecap="butt" transform="matrix(1,0,0,1,153,402)" text-rendering="geometricPrecision" font-family="sans-serif" shape-rendering="geometricPrecision" font-weight="bold" stroke-miterlimit="1.45">
      <text x="-42.5535" xml:space="preserve" y="-234.9802" clip-path="url(#clipPath2)" stroke="none">TCP</text>
      <text x="-56.0461" xml:space="preserve" y="-218.6452" clip-path="url(#clipPath2)" stroke="none">Listener</text>
    </g>
    <g fill="white" text-rendering="geometricPrecision" shape-rendering="geometricPrecision" transform="matrix(1,0,0,1,153,402)" stroke="white">
      <rect x="34.4439" width="57.3442" height="40" y="-180" clip-path="url(#clipPath2)" stroke="none"/>
    </g>
    <g stroke-linecap="butt" transform="matrix(1,0,0,1,153,402)" fill="gray" text-rendering="geometricPrecision" shape-rendering="geometricPrecision" stroke="gray" stroke-miterlimit="1.45">
      <rect fill="none" x="34.4439" width="57.3442" height="40" y="-180" clip-path="url(#clipPath2)"/>
    </g>
    <g stroke-linecap="butt" transform="matrix(1,0,0,1,153,402)" text-rendering="geometricPrecision" font-family="sans-serif" shape-rendering="geometricPrecision" font-weight="bold" stroke-miterlimit="1.45">
      <text x="47.8184" xml:space="preserve" y="-163.5141" clip-path="url(#clipPath2)" stroke="none">HTTP</text>
      <text x="47.7045" xml:space="preserve" y="-147.179" clip-path="url(#clipPath2)" stroke="none">Conn</text>
    </g>
    <g fill="white" text-rendering="geometricPrecision" shape-rendering="geometricPrecision" transform="matrix(1,0,0,1,153,402)" stroke="white">
      <rect x="-31.7348" width="101.5647" height="20.0667" y="-293.0005" clip-path="url(#clipPath2)" stroke="none"/>
    </g>
    <g stroke-linecap="butt" transform="matrix(1,0,0,1,153,402)" fill="gray" text-rendering="geometricPrecision" shape-rendering="geometricPrecision" stroke="gray" stroke-miterlimit="1.45">
      <rect fill="none" x="-31.7348" width="101.5647" height="20.0667" y="-293.0005" clip-path="url(#clipPath2)"/>
      <text x="-21.6101" y="-278.3137" clip-path="url(#clipPath2)" fill="black" font-family="sans-serif" stroke="none" xml:space="preserve">conf { chain[] }</text>
    </g>
    <g fill="white" text-rendering="geometricPrecision" shape-rendering="geometricPrecision" transform="matrix(1,0,0,1,153,402)" stroke="white">
      <rect x="-37.5544" width="37.7346" height="20.0667" y="-346.6148" clip-path="url(#clipPath2)" stroke="none"/>
    </g>
    <g stroke-linecap="butt" transform="matrix(1,0,0,1,153,402)" fill="gray" text-rendering="geometricPrecision" shape-rendering="geometricPrecision" stroke="gray" stroke-miterlimit="1.45">
      <rect fill="none" x="-37.5544" width="37.7346" height="20.0667" y="-346.6148" clip-path="url(#clipPath2)"/>
      <text x="-30.8724" y="-331.9281" clip-path="url(#clipPath2)" fill="black" font-family="sans-serif" stroke="none" xml:space="preserve">KCQ</text>
    </g>
    <g fill="white" text-rendering="geometricPrecision" shape-rendering="geometricPrecision" transform="matrix(1,0,0,1,153,402)" stroke="white">
      <rect x="-37.5544" width="37.7346" height="20.0667" y="-366.6815" clip-path="url(#clipPath2)" stroke="none"/>
    </g>
    <g stroke-linecap="butt" transform="matrix(1,0,0,1,153,402)" fill="gray" text-rendering="geometricPrecision" shape-rendering="geometricPrecision" stroke="gray" stroke-miterlimit="1.45">
      <rect fill="none" x="-37.5544" width="37.7346" height="20.0667" y="-366.6815" clip-path="url(#clipPath2)"/>
      <text x="-27.5502" y="-351.9947" clip-path="url(#clipPath2)" fill="black" font-family="sans-serif" stroke="none" xml:space="preserve">log</text>
    </g>
    <g fill="white" text-rendering="geometricPrecision" shape-rendering="geometricPrecision" transform="matrix(1,0,0,1,153,402)" stroke="white">
      <rect x="0.1802" width="37.7346" height="20.0667" y="-386.6148" clip-path="url(#clipPath2)" stroke="none"/>
    </g>
    <g stroke-linecap="butt" transform="matrix(1,0,0,1,153,402)" fill="gray" text-rendering="geometricPrecision" shape-rendering="geometricPrecision" stroke="gray" stroke-miterlimit="1.45">
      <rect fill="none" x="0.1802" width="37.7346" height="20.0667" y="-386.6148" clip-path="url(#clipPath2)"/>
      <text x="6.8742" y="-371.9281" clip-path="url(#clipPath2)" fill="black" font-family="sans-serif" stroke="none" xml:space="preserve">cmd</text>
    </g>
    <g fill="white" text-rendering="geometricPrecision" shape-rendering="geometricPrecision" transform="matrix(1,0,0,1,153,402)" stroke="white">
      <rect x="37.9148" width="42.8801" height="20.0667" y="-346.6148" clip-path="url(#clipPath2)" stroke="none"/>
    </g>
    <g stroke-linecap="butt" transform="matrix(1,0,0,1,153,402)" fill="gray" text-rendering="geometricPrecision" shape-rendering="geometricPrecision" stroke="gray" stroke-miterlimit="1.45">
      <rect fill="none" x="37.9148" width="42.8801" height="20.0667" y="-346.6148" clip-path="url(#clipPath2)"/>
      <text x="50.9595" y="-331.9281" clip-path="url(#clipPath2)" fill="black" font-family="sans-serif" stroke="none" xml:space="preserve">KQ</text>
    </g>
    <g fill="white" text-rendering="geometricPrecision" shape-rendering="geometricPrecision" transform="matrix(1,0,0,1,153,402)" stroke="white">
      <rect x="37.9148" width="42.8801" height="20.0667" y="-366.6815" clip-path="url(#clipPath2)" stroke="none"/>
    </g>
    <g stroke-linecap="butt" transform="matrix(1,0,0,1,153,402)" fill="gray" text-rendering="geometricPrecision" shape-rendering="geometricPrecision" stroke="gray" stroke-miterlimit="1.45">
      <rect fill="none" x="37.9148" width="42.8801" height="20.0667" y="-366.6815" clip-path="url(#clipPath2)"/>
      <text x="43.0079" y="-351.9947" clip-path="url(#clipPath2)" fill="black" font-family="sans-serif" stroke="none" xml:space="preserve">Timer</text>
    </g>
    <g fill="white" text-rendering="geometricPrecision" shape-rendering="geometricPrecision" transform="matrix(1,0,0,1,153,402)" stroke="white">
      <rect x="110.795" width="57.3442" height="40" y="-293.0005" clip-path="url(#clipPath2)" stroke="none"/>
    </g>
    <g stroke-linecap="butt" transform="matrix(1,0,0,1,153,402)" fill="red" text-rendering="geometricPrecision" shape-rendering="geometricPrecision" stroke-dasharray="6,2" stroke="red" stroke-miterlimit="1.45">
      <rect fill="none" x="110.795" width="57.3442" height="40" y="-293.0005" clip-path="url(#clipPath2)"/>
    </g>
    <g text-rendering="geometricPrecision" stroke-miterlimit="1.45" shape-rendering="geometricPrecision" font-family="sans-serif" transform="matrix(1,0,0,1,153,402)" stroke-linecap="butt">
      <text x="123.12" xml:space="preserve" y="-268.347" clip-path="url(#clipPath2)" stroke="none">linger</text>
    </g>
    <g fill="white" text-rendering="geometricPrecision" shape-rendering="geometricPrecision" transform="matrix(1,0,0,1,153,402)" stroke="white">
      <rect x="189.3667" width="60" height="40" y="-120" clip-path="url(#clipPath2)" stroke="none"/>
    </g>
    <g stroke-linecap="butt" transform="matrix(1,0,0,1,153,402)" fill="red" text-rendering="geometricPrecision" shape-rendering="geometricPrecision" stroke-dasharray="6,2" stroke="red" stroke-miterlimit="1.45">
      <rect fill="none" x="189.3667" width="60" height="40" y="-120" clip-path="url(#clipPath2)"/>
    </g>
    <g text-rendering="geometricPrecision" stroke-miterlimit="1.45" shape-rendering="geometricPrecision" font-family="sans-serif" transform="matrix(1,0,0,1,153,402)" stroke-linecap="butt">
      <text x="212.1826" xml:space="preserve" y="-103.5141" clip-path="url(#clipPath2)" stroke="none">in-</text>
      <text x="196.8611" xml:space="preserve" y="-87.179" clip-path="url(#clipPath2)" stroke="none">transfer</text>
    </g>
    <g stroke-linecap="butt" transform="matrix(1,0,0,1,153,402)" fill="rgb(255,153,153)" text-rendering="geometricPrecision" shape-rendering="geometricPrecision" stroke="rgb(255,153,153)" stroke-miterlimit="1.45">
      <path fill="none" d="M138.2114 -80 L138.2114 92.2114 L161 115 L528 115 L550.0012 92.9988 L550.0012 -7.335" clip-path="url(#clipPath2)"/>
    </g>
    <g stroke-linecap="butt" transform="matrix(1,0,0,1,153,402)" fill="rgb(255,153,153)" text-rendering="geometricPrecision" shape-rendering="geometricPrecision" stroke="rgb(255,153,153)" stroke-miterlimit="1.45">
      <path d="M550.0012 -15.335 L545.0012 -3.335 L550.0012 -6.335 L555.0012 -3.335 Z" stroke="none" clip-path="url(#clipPath2)"/>
      <path fill="none" d="M871.7764 -100 L888.4423 -100" clip-path="url(#clipPath2)" stroke="rgb(51,153,102)"/>
      <path fill="rgb(51,153,102)" d="M896.4423 -100 L884.4423 -105 L887.4423 -100 L884.4423 -95 Z" clip-path="url(#clipPath2)" stroke="none"/>
      <path fill="none" d="M570.2512 -55.3832 L570.2512 -72" clip-path="url(#clipPath2)" stroke="rgb(51,153,102)"/>
      <path fill="rgb(51,153,102)" d="M570.2512 -80 L565.2512 -68 L570.2512 -71 L575.2512 -68 Z" clip-path="url(#clipPath2)" stroke="none"/>
      <path fill="none" d="M622.0356 -100 L636.5049 -100" clip-path="url(#clipPath2)" stroke="rgb(51,153,102)"/>
      <path fill="rgb(51,153,102)" d="M644.5049 -100 L632.5049 -105 L635.5049 -100 L632.5049 -95 Z" clip-path="url(#clipPath2)" stroke="none"/>
      <path fill="none" d="M926.4905 -80 L926.4905 95.5095 L904 118 L86 118 L63.116 95.116 L63.116 -72" clip-path="url(#clipPath2)" stroke="rgb(51,153,102)"/>
      <path fill="rgb(51,153,102)" d="M63.116 -80 L58.116 -68 L63.116 -71 L68.116 -68 Z" clip-path="url(#clipPath2)" stroke="none"/>
      <path fill="none" d="M93.116 -100 L100.1819 -100" clip-path="url(#clipPath2)" stroke="rgb(51,153,102)"/>
      <path fill="rgb(51,153,102)" d="M108.1819 -100 L96.1819 -105 L99.1819 -100 L96.1819 -95 Z" clip-path="url(#clipPath2)" stroke="none"/>
      <path fill="none" d="M704.549 -100 L719.0183 -100" clip-path="url(#clipPath2)" stroke="rgb(51,153,102)"/>
      <path fill="rgb(51,153,102)" d="M727.0183 -100 L715.0183 -105 L718.0183 -100 L715.0183 -95 Z" clip-path="url(#clipPath2)" stroke="none"/>
      <path fill="none" d="M787.0623 -100 L803.7281 -100" clip-path="url(#clipPath2)" stroke="rgb(51,153,102)"/>
      <path fill="rgb(51,153,102)" d="M811.7281 -100 L799.7281 -105 L802.7281 -100 L799.7281 -95 Z" clip-path="url(#clipPath2)" stroke="none"/>
      <path fill="none" d="M757.0623 -120.0263 L757.0623 -173.9377 L735.2669 -195.7331 L-71.7507 -195.7331" clip-path="url(#clipPath2)" stroke="rgb(51,153,102)"/>
      <path fill="rgb(51,153,102)" d="M-79.7507 -195.7331 L-67.7507 -190.7331 L-70.7507 -195.7331 L-67.7507 -200.7331 Z" clip-path="url(#clipPath2)" stroke="none"/>
      <path fill="none" d="M-108.4228 -186.0042 L-108.4228 -122.4228 L-86 -100 L25.0869 -100" clip-path="url(#clipPath2)" stroke="rgb(51,153,102)"/>
      <path fill="rgb(51,153,102)" d="M33.0869 -100 L21.0869 -105 L24.0869 -100 L21.0869 -95 Z" clip-path="url(#clipPath2)" stroke="none"/>
      <path fill="none" d="M-80.3051 -218.7352 L-68.207 -218.7352" clip-path="url(#clipPath2)" stroke="gray"/>
      <path fill="gray" d="M-60.207 -218.7352 L-72.207 -223.7352 L-69.207 -218.7352 L-72.207 -213.7352 Z" clip-path="url(#clipPath2)" stroke="none"/>
      <path fill="none" d="M-44.6446 -251.511 L-44.6446 -297.3554 L-27.7098 -314.2902 L12.3971 -314.2902 L12.3971 -318.5482" clip-path="url(#clipPath2)" stroke="rgb(51,153,102)"/>
      <path fill="rgb(51,153,102)" d="M12.3971 -326.5482 L7.3971 -314.5482 L12.3971 -317.5482 L17.3971 -314.5482 Z" clip-path="url(#clipPath2)" stroke="none"/>
      <path fill="none" d="M63.116 -140 L63.116 -128.0391" clip-path="url(#clipPath2)" stroke="rgb(51,153,102)"/>
      <path fill="rgb(51,153,102)" d="M63.116 -120.0391 L68.116 -132.0391 L63.116 -129.0391 L58.116 -132.0391 Z" clip-path="url(#clipPath2)" stroke="none"/>
      <path fill="none" d="M84.309 -180.0265 L84.309 -288.691 L67.7416 -305.2585 L26.7416 -305.2585 L21.2644 -310.7356 L21.2644 -318.5482" clip-path="url(#clipPath2)"/>
      <path d="M21.2644 -326.5482 L16.2644 -314.5482 L21.2644 -317.5482 L26.2644 -314.5482 Z" clip-path="url(#clipPath2)" stroke="none"/>
      <path fill="none" d="M16.8307 -326.5482 L16.8307 -301.0333" clip-path="url(#clipPath2)" stroke="gray"/>
      <path fill="gray" d="M16.8307 -293.0333 L21.8307 -305.0333 L16.8307 -302.0333 L11.8307 -305.0333 Z" clip-path="url(#clipPath2)" stroke="none"/>
      <path fill="none" d="M52.1369 -272.9338 L52.1369 -188.0454" clip-path="url(#clipPath2)" stroke="rgb(51,153,102)"/>
      <path fill="rgb(51,153,102)" d="M52.1369 -180.0454 L57.1369 -192.0454 L52.1369 -189.0454 L47.1369 -192.0454 Z" clip-path="url(#clipPath2)" stroke="none"/>
      <path fill="none" d="M-17.2791 -272.9338 L-17.2791 -259.5081" clip-path="url(#clipPath2)" stroke="gray"/>
      <path fill="gray" d="M-17.2791 -251.5081 L-12.2791 -263.5081 L-17.2791 -260.5081 L-22.2791 -263.5081 Z" clip-path="url(#clipPath2)" stroke="none"/>
      <path fill="none" d="M25.698 -326.5482 L25.698 -314.302 L30.2257 -309.7743 L135.2257 -309.7743 L139.4671 -305.5329 L139.4671 -301.0495" clip-path="url(#clipPath2)"/>
      <path d="M139.4671 -293.0495 L144.4671 -305.0495 L139.4671 -302.0495 L134.4671 -305.0495 Z" clip-path="url(#clipPath2)" stroke="none"/>
      <path fill="none" d="M168.2114 -100 L181.3254 -100" clip-path="url(#clipPath2)" stroke="rgb(51,153,102)"/>
      <path fill="rgb(51,153,102)" d="M189.3254 -100 L177.3254 -105 L180.3254 -100 L177.3254 -95 Z" clip-path="url(#clipPath2)" stroke="none"/>
    </g>
    <g fill="rgb(104,176,227)" text-rendering="geometricPrecision" shape-rendering="geometricPrecision" transform="matrix(1,0,0,1,153,402)" stroke="rgb(104,176,227)">
      <path d="M256.9886 -155.335 L256.9886 -65 L512.0153 -65 L512.0153 -155.335 ZM257.9886 -133.335 L257.9886 -66 L511.0152 -66 L511.0152 -133.335 Z" fill-rule="evenodd" clip-path="url(#clipPath2)" stroke="none"/>
    </g>
    <g stroke-linecap="butt" transform="matrix(1,0,0,1,153,402)" fill="white" text-rendering="geometricPrecision" font-family="sans-serif" shape-rendering="geometricPrecision" stroke="white" stroke-miterlimit="1.45">
      <text x="258.9886" xml:space="preserve" y="-140.5141" clip-path="url(#clipPath2)" stroke="none">Local File Mode</text>
    </g>
    <g fill="white" text-rendering="geometricPrecision" shape-rendering="geometricPrecision" transform="matrix(1,0,0,1,153,402)" stroke="white">
      <rect x="271.9886" width="60" height="40" y="-120" clip-path="url(#clipPath2)" stroke="none"/>
    </g>
    <g stroke-linecap="butt" transform="matrix(1,0,0,1,153,402)" fill="gray" text-rendering="geometricPrecision" shape-rendering="geometricPrecision" stroke="gray" stroke-miterlimit="1.45">
      <rect fill="none" x="271.9886" width="60" height="40" y="-120" clip-path="url(#clipPath2)"/>
      <text x="286.4931" y="-95.3466" clip-path="url(#clipPath2)" fill="black" font-family="sans-serif" stroke="none" xml:space="preserve">index</text>
    </g>
    <g fill="white" text-rendering="geometricPrecision" shape-rendering="geometricPrecision" transform="matrix(1,0,0,1,153,402)" stroke="white">
      <rect x="437.0152" width="60" height="40" y="-120" clip-path="url(#clipPath2)" stroke="none"/>
    </g>
    <g stroke-linecap="butt" transform="matrix(1,0,0,1,153,402)" fill="gray" text-rendering="geometricPrecision" shape-rendering="geometricPrecision" stroke="gray" stroke-miterlimit="1.45">
      <rect fill="none" x="437.0152" width="60" height="40" y="-120" clip-path="url(#clipPath2)"/>
      <text x="458.4759" y="-95.3466" clip-path="url(#clipPath2)" fill="black" font-family="sans-serif" stroke="none" xml:space="preserve">file</text>
    </g>
    <g fill="white" text-rendering="geometricPrecision" shape-rendering="geometricPrecision" transform="matrix(1,0,0,1,153,402)" stroke="white">
      <rect x="354.5019" width="60" height="40" y="-120" clip-path="url(#clipPath2)" stroke="none"/>
    </g>
    <g stroke-linecap="butt" transform="matrix(1,0,0,1,153,402)" fill="gray" text-rendering="geometricPrecision" shape-rendering="geometricPrecision" stroke="gray" stroke-miterlimit="1.45">
      <rect fill="none" x="354.5019" width="60" height="40" y="-120" clip-path="url(#clipPath2)"/>
      <text x="369.708" y="-103.5141" clip-path="url(#clipPath2)" fill="black" font-family="sans-serif" stroke="none" xml:space="preserve">auto-</text>
      <text x="369.0064" y="-87.179" clip-path="url(#clipPath2)" fill="black" font-family="sans-serif" stroke="none" xml:space="preserve">index</text>
    </g>
    <g stroke-linecap="butt" transform="matrix(1,0,0,1,153,402)" fill="rgb(51,153,102)" text-rendering="geometricPrecision" shape-rendering="geometricPrecision" stroke-dasharray="6,2" stroke="rgb(51,153,102)" stroke-miterlimit="1.45">
      <path fill="none" d="M249.3667 -100 L263.9444 -100" clip-path="url(#clipPath2)"/>
      <path d="M271.9444 -100 L259.9444 -105 L262.9444 -100 L259.9444 -95 Z" clip-path="url(#clipPath2)" stroke="none"/>
      <path fill="none" stroke-dasharray="none" d="M288.4886 -80 L288.4886 -69.5114 L291.8875 -66.1125 L529.7512 -66.1125 L529.7512 -63.3771" clip-path="url(#clipPath2)" stroke="rgb(255,153,153)"/>
      <path fill="rgb(255,153,153)" stroke-dasharray="none" d="M529.7512 -55.3771 L534.7512 -67.3771 L529.7512 -64.3771 L524.7512 -67.3771 Z" clip-path="url(#clipPath2)" stroke="none"/>
      <path fill="none" stroke-dasharray="none" d="M301.9886 -120.0391 L301.9886 -130 L467.0152 -130 L467.0152 -128.0391" clip-path="url(#clipPath2)"/>
      <path stroke-dasharray="none" d="M467.0152 -120.0391 L472.0152 -132.0391 L467.0152 -129.0391 L462.0152 -132.0391 Z" clip-path="url(#clipPath2)" stroke="none"/>
      <path fill="none" stroke-dasharray="none" d="M497.0152 -91.5 L541.5 -91.5 L552.0356 -80.9644 L552.0356 -63.3601" clip-path="url(#clipPath2)" stroke="rgb(255,153,153)"/>
      <path fill="rgb(255,153,153)" stroke-dasharray="none" d="M552.0356 -55.3601 L557.0356 -67.36 L552.0356 -64.36 L547.0356 -67.36 Z" clip-path="url(#clipPath2)" stroke="none"/>
      <path fill="none" stroke-dasharray="none" d="M497.0152 -108.5 L554.0038 -108.5" clip-path="url(#clipPath2)"/>
      <path stroke-dasharray="none" d="M562.0038 -108.5 L550.0038 -113.5 L553.0038 -108.5 L550.0038 -103.5 Z" clip-path="url(#clipPath2)" stroke="none"/>
      <path fill="none" d="M331.9886 -100 L346.4579 -100" clip-path="url(#clipPath2)"/>
      <path d="M354.4579 -100 L342.4579 -105 L345.4579 -100 L342.4579 -95 Z" clip-path="url(#clipPath2)" stroke="none"/>
      <path fill="none" d="M414.5019 -100 L428.9713 -100" clip-path="url(#clipPath2)"/>
      <path d="M436.9713 -100 L424.9713 -105 L427.9713 -100 L424.9713 -95 Z" clip-path="url(#clipPath2)" stroke="none"/>
      <path fill="none" stroke-dasharray="none" d="M384.5019 -80 L384.5019 -69.1125 L537.8875 -69.1125 L540.8934 -66.1066 L540.8934 -63.3771" clip-path="url(#clipPath2)" stroke="rgb(255,153,153)"/>
      <path fill="rgb(255,153,153)" stroke-dasharray="none" d="M540.8934 -55.3771 L545.8934 -67.3771 L540.8934 -64.3771 L535.8934 -67.3771 Z" clip-path="url(#clipPath2)" stroke="none"/>
      <path fill="none" stroke-dasharray="none" d="M384.5019 -120.0371 L384.5019 -129.5019 L388 -133 L592.0356 -133 L592.0356 -128.0254" clip-path="url(#clipPath2)"/>
      <path stroke-dasharray="none" d="M592.0356 -120.0254 L597.0356 -132.0254 L592.0356 -129.0254 L587.0356 -132.0254 Z" clip-path="url(#clipPath2)" stroke="none"/>
    </g>
    <g fill="rgb(104,176,227)" text-rendering="geometricPrecision" shape-rendering="geometricPrecision" transform="matrix(1,0,0,1,153,402)" stroke="rgb(104,176,227)">
      <path d="M258.3165 -55.335 L258.3165 105 L512.0153 105 L512.0153 -55.335 ZM259.3165 -33.335 L259.3165 104 L511.0152 104 L511.0152 -33.335 Z" fill-rule="evenodd" clip-path="url(#clipPath2)" stroke="none"/>
    </g>
    <g stroke-linecap="butt" transform="matrix(1,0,0,1,153,402)" fill="white" text-rendering="geometricPrecision" font-family="sans-serif" shape-rendering="geometricPrecision" stroke="white" stroke-miterlimit="1.45">
      <text x="260.3165" xml:space="preserve" y="-40.5141" clip-path="url(#clipPath2)" stroke="none">Proxy Mode</text>
    </g>
    <g fill="white" text-rendering="geometricPrecision" shape-rendering="geometricPrecision" transform="matrix(1,0,0,1,153,402)" stroke="white">
      <rect x="360.3704" width="60" height="40" y="-20" clip-path="url(#clipPath2)" stroke="none"/>
    </g>
    <g stroke-linecap="butt" transform="matrix(1,0,0,1,153,402)" fill="gray" text-rendering="geometricPrecision" shape-rendering="geometricPrecision" stroke="gray" stroke-miterlimit="1.45">
      <rect fill="none" x="360.3704" width="60" height="40" y="-20" clip-path="url(#clipPath2)"/>
    </g>
    <g stroke-linecap="butt" transform="matrix(1,0,0,1,153,402)" text-rendering="geometricPrecision" font-family="sans-serif" shape-rendering="geometricPrecision" font-weight="bold" stroke-miterlimit="1.45">
      <text x="373.2618" xml:space="preserve" y="4.6534" clip-path="url(#clipPath2)" stroke="none">proxy</text>
    </g>
    <g fill="rgb(255,255,204)" text-rendering="geometricPrecision" shape-rendering="geometricPrecision" transform="matrix(1,0,0,1,153,402)" stroke="rgb(255,255,204)">
      <path d="M356.7686 62 Q356.7686 50 368.7686 50 L411.9722 50 Q423.9722 50 423.9722 62 L423.9722 78 Q423.9722 90 411.9722 90 L368.7686 90 Q356.7686 90 356.7686 78 Z" stroke="none" clip-path="url(#clipPath2)"/>
    </g>
    <g stroke-linecap="butt" transform="matrix(1,0,0,1,153,402)" fill="gray" text-rendering="geometricPrecision" shape-rendering="geometricPrecision" stroke="gray" stroke-miterlimit="1.45">
      <path fill="none" d="M356.7686 62 Q356.7686 50 368.7686 50 L411.9722 50 Q423.9722 50 423.9722 62 L423.9722 78 Q423.9722 90 411.9722 90 L368.7686 90 Q356.7686 90 356.7686 78 Z" clip-path="url(#clipPath2)"/>
      <text x="375.6305" y="66.4859" clip-path="url(#clipPath2)" fill="black" font-family="sans-serif" stroke="none" xml:space="preserve">HTTP</text>
      <text x="372.3144" y="82.821" clip-path="url(#clipPath2)" fill="black" font-family="sans-serif" stroke="none" xml:space="preserve">Server</text>
    </g>
    <g fill="rgb(255,255,204)" text-rendering="geometricPrecision" shape-rendering="geometricPrecision" transform="matrix(1,0,0,1,153,402)" stroke="rgb(255,255,204)">
      <path d="M273.3165 62 Q273.3165 50 285.3165 50 L318.6606 50 Q330.6606 50 330.6606 62 L330.6606 78 Q330.6606 90 318.6606 90 L285.3165 90 Q273.3165 90 273.3165 78 Z" stroke="none" clip-path="url(#clipPath2)"/>
    </g>
    <g stroke-linecap="butt" transform="matrix(1,0,0,1,153,402)" fill="gray" text-rendering="geometricPrecision" shape-rendering="geometricPrecision" stroke="gray" stroke-miterlimit="1.45">
      <path fill="none" d="M273.3165 62 Q273.3165 50 285.3165 50 L318.6606 50 Q330.6606 50 330.6606 62 L330.6606 78 Q330.6606 90 318.6606 90 L285.3165 90 Q273.3165 90 273.3165 78 Z" clip-path="url(#clipPath2)"/>
      <text x="289.7613" y="66.4859" clip-path="url(#clipPath2)" fill="black" font-family="sans-serif" stroke="none" xml:space="preserve">DNS</text>
      <text x="283.9325" y="82.821" clip-path="url(#clipPath2)" fill="black" font-family="sans-serif" stroke="none" xml:space="preserve">Server</text>
    </g>
    <g stroke-linecap="butt" transform="matrix(1,0,0,1,153,402)" fill="rgb(51,153,102)" text-rendering="geometricPrecision" shape-rendering="geometricPrecision" stroke-dasharray="6,2" stroke="rgb(51,153,102)" stroke-miterlimit="1.45">
      <path fill="none" d="M219.3667 -80 L219.3667 -29.6333 L240.5 -8.5 L352.3412 -8.5" clip-path="url(#clipPath2)"/>
      <path d="M360.3412 -8.5 L348.3412 -13.5 L351.3412 -8.5 L348.3412 -3.5 Z" clip-path="url(#clipPath2)" stroke="none"/>
      <path fill="none" stroke-dasharray="none" d="M390.3704 -20.03 L390.3704 -35.3704 L396.1675 -41.1675 L511.971 -41.1675" clip-path="url(#clipPath2)" stroke="rgb(255,153,153)"/>
      <path fill="rgb(255,153,153)" stroke-dasharray="none" d="M519.9709 -41.1675 L507.9709 -46.1675 L510.9709 -41.1675 L507.9709 -36.1675 Z" clip-path="url(#clipPath2)" stroke="none"/>
      <path fill="none" stroke-dasharray="none" d="M420.3704 5.8325 L582.1675 5.8325 L604.5184 -16.5184 L604.5184 -72" clip-path="url(#clipPath2)"/>
      <path stroke-dasharray="none" d="M604.5184 -80 L599.5184 -68 L604.5184 -71 L609.5184 -68 Z" clip-path="url(#clipPath2)" stroke="none"/>
      <path fill="none" stroke-dasharray="none" d="M390.3704 20 L390.3704 41.9707" clip-path="url(#clipPath2)" stroke="gray"/>
      <path fill="gray" stroke-dasharray="none" d="M390.3704 49.9707 L395.3704 37.9707 L390.3704 40.9707 L385.3704 37.9707 Z" clip-path="url(#clipPath2)" stroke="none"/>
      <path fill="none" stroke-dasharray="none" d="M360.3246 8.5 L313.5 8.5 L301.9886 20.0114 L301.9886 41.9707" clip-path="url(#clipPath2)" stroke="gray"/>
      <path fill="gray" stroke-dasharray="none" d="M301.9886 49.9707 L306.9886 37.9707 L301.9886 40.9707 L296.9886 37.9707 Z" clip-path="url(#clipPath2)" stroke="none"/>
    </g>
  </g>
</svg>
