<?xml version="1.0" encoding="UTF-8"?><svg xmlns="http://www.w3.org/2000/svg" xmlns:xlink="http://www.w3.org/1999/xlink" fill-opacity="1" color-rendering="auto" color-interpolation="auto" text-rendering="auto" stroke="black" stroke-linecap="square" width="1300" stroke-miterlimit="10" shape-rendering="auto" stroke-opacity="1" fill="black" stroke-dasharray="none" font-weight="normal" stroke-width="1" height="370" font-family="'Dialog'" font-style="normal" stroke-linejoin="miter" font-size="12px" stroke-dashoffset="0" image-rendering="auto">
  <!--Generated by ySVG 2.5-->
  <defs id="genericDefs"/>
  <g>
    <defs id="defs1">
      <clipPath clipPathUnits="userSpaceOnUse" id="clipPath1">
        <path d="M0 0 L1300 0 L1300 370 L0 370 L0 0 Z"/>
      </clipPath>
      <clipPath clipPathUnits="userSpaceOnUse" id="clipPath2">
        <path d="M87 150 L1387 150 L1387 520 L87 520 L87 150 Z"/>
      </clipPath>
    </defs>
    <g fill="white" text-rendering="geometricPrecision" shape-rendering="geometricPrecision" transform="translate(-87,-150)" stroke="white">
      <rect x="87" width="1300" height="370" y="150" clip-path="url(#clipPath2)" stroke="none"/>
    </g>
    <g fill="white" text-rendering="geometricPrecision" shape-rendering="geometricPrecision" transform="matrix(1,0,0,1,-87,-150)" stroke="white">
      <rect x="304.7252" width="60" height="40" y="295" clip-path="url(#clipPath2)" stroke="none"/>
    </g>
    <g stroke-linecap="butt" transform="matrix(1,0,0,1,-87,-150)" fill="gray" text-rendering="geometricPrecision" shape-rendering="geometricPrecision" stroke="gray" stroke-miterlimit="1.45">
      <rect fill="none" x="304.7252" width="60" height="40" y="295" clip-path="url(#clipPath2)"/>
    </g>
    <g font-size="14px" stroke-linecap="butt" transform="matrix(1,0,0,1,-87,-150)" text-rendering="geometricPrecision" font-family="sans-serif" shape-rendering="geometricPrecision" stroke-miterlimit="1.45">
      <text x="311.0013" xml:space="preserve" y="320.429" clip-path="url(#clipPath2)" stroke="none">resolve</text>
    </g>
    <g fill="white" text-rendering="geometricPrecision" shape-rendering="geometricPrecision" transform="matrix(1,0,0,1,-87,-150)" stroke="white">
      <rect x="383.5698" width="60" height="40" y="295" clip-path="url(#clipPath2)" stroke="none"/>
    </g>
    <g stroke-linecap="butt" transform="matrix(1,0,0,1,-87,-150)" fill="gray" text-rendering="geometricPrecision" shape-rendering="geometricPrecision" stroke="gray" stroke-miterlimit="1.45">
      <rect fill="none" x="383.5698" width="60" height="40" y="295" clip-path="url(#clipPath2)"/>
    </g>
    <g font-size="14px" stroke-linecap="butt" transform="matrix(1,0,0,1,-87,-150)" text-rendering="geometricPrecision" font-family="sans-serif" shape-rendering="geometricPrecision" stroke-miterlimit="1.45">
      <text x="387.5021" xml:space="preserve" y="320.429" clip-path="url(#clipPath2)" stroke="none">connect</text>
    </g>
    <g fill="white" text-rendering="geometricPrecision" shape-rendering="geometricPrecision" transform="matrix(1,0,0,1,-87,-150)" stroke="white">
      <rect x="227.2086" width="57.3442" height="40" y="232" clip-path="url(#clipPath2)" stroke="none"/>
    </g>
    <g stroke-linecap="butt" transform="matrix(1,0,0,1,-87,-150)" fill="gray" text-rendering="geometricPrecision" shape-rendering="geometricPrecision" stroke="gray" stroke-miterlimit="1.45">
      <rect fill="none" x="227.2086" width="57.3442" height="40" y="232" clip-path="url(#clipPath2)"/>
    </g>
    <g font-size="14px" stroke-linecap="butt" transform="matrix(1,0,0,1,-87,-150)" text-rendering="geometricPrecision" font-family="sans-serif" shape-rendering="geometricPrecision" font-weight="bold" stroke-miterlimit="1.45">
      <text x="238.0334" xml:space="preserve" y="247.9003" clip-path="url(#clipPath2)" stroke="none">HTTP</text>
      <text x="235.3889" xml:space="preserve" y="266.9578" clip-path="url(#clipPath2)" stroke="none">Client</text>
    </g>
    <g fill="white" text-rendering="geometricPrecision" shape-rendering="geometricPrecision" transform="matrix(1,0,0,1,-87,-150)" stroke="white">
      <rect x="740.0203" width="60" height="40" y="295" clip-path="url(#clipPath2)" stroke="none"/>
    </g>
    <g stroke-linecap="butt" transform="matrix(1,0,0,1,-87,-150)" fill="gray" text-rendering="geometricPrecision" shape-rendering="geometricPrecision" stroke="gray" stroke-miterlimit="1.45">
      <rect fill="none" x="740.0203" width="60" height="40" y="295" clip-path="url(#clipPath2)"/>
    </g>
    <g font-size="14px" stroke-linecap="butt" transform="matrix(1,0,0,1,-87,-150)" text-rendering="geometricPrecision" font-family="sans-serif" shape-rendering="geometricPrecision" stroke-miterlimit="1.45">
      <text x="752.327" xml:space="preserve" y="310.9003" clip-path="url(#clipPath2)" stroke="none">prep-</text>
      <text x="744.7361" xml:space="preserve" y="329.9578" clip-path="url(#clipPath2)" stroke="none">request</text>
    </g>
    <g fill="white" text-rendering="geometricPrecision" shape-rendering="geometricPrecision" transform="matrix(1,0,0,1,-87,-150)" stroke="white">
      <rect x="860.9521" width="60" height="40" y="295" clip-path="url(#clipPath2)" stroke="none"/>
    </g>
    <g stroke-linecap="butt" transform="matrix(1,0,0,1,-87,-150)" fill="gray" text-rendering="geometricPrecision" shape-rendering="geometricPrecision" stroke="gray" stroke-miterlimit="1.45">
      <rect fill="none" x="860.9521" width="60" height="40" y="295" clip-path="url(#clipPath2)"/>
    </g>
    <g font-size="14px" stroke-linecap="butt" transform="matrix(1,0,0,1,-87,-150)" text-rendering="geometricPrecision" font-family="sans-serif" shape-rendering="geometricPrecision" stroke-miterlimit="1.45">
      <text x="872.7761" xml:space="preserve" y="310.9003" clip-path="url(#clipPath2)" stroke="none">send-</text>
      <text x="865.668" xml:space="preserve" y="329.9578" clip-path="url(#clipPath2)" stroke="none">request</text>
    </g>
    <g fill="white" text-rendering="geometricPrecision" shape-rendering="geometricPrecision" transform="matrix(1,0,0,1,-87,-150)" stroke="white">
      <rect x="933.6617" width="60" height="40" y="295" clip-path="url(#clipPath2)" stroke="none"/>
    </g>
    <g stroke-linecap="butt" transform="matrix(1,0,0,1,-87,-150)" fill="gray" text-rendering="geometricPrecision" shape-rendering="geometricPrecision" stroke="gray" stroke-miterlimit="1.45">
      <rect fill="none" x="933.6617" width="60" height="40" y="295" clip-path="url(#clipPath2)"/>
    </g>
    <g font-size="14px" stroke-linecap="butt" transform="matrix(1,0,0,1,-87,-150)" text-rendering="geometricPrecision" font-family="sans-serif" shape-rendering="geometricPrecision" stroke-miterlimit="1.45">
      <text x="947.6614" xml:space="preserve" y="310.9003" clip-path="url(#clipPath2)" stroke="none">recv-</text>
      <text x="933.3193" xml:space="preserve" y="329.9578" clip-path="url(#clipPath2)" stroke="none">response</text>
    </g>
    <g fill="white" text-rendering="geometricPrecision" shape-rendering="geometricPrecision" transform="matrix(1,0,0,1,-87,-150)" stroke="white">
      <rect x="1053.3771" width="60" height="40" y="295" clip-path="url(#clipPath2)" stroke="none"/>
    </g>
    <g stroke-linecap="butt" transform="matrix(1,0,0,1,-87,-150)" fill="gray" text-rendering="geometricPrecision" shape-rendering="geometricPrecision" stroke="gray" stroke-miterlimit="1.45">
      <rect fill="none" x="1053.3771" width="60" height="40" y="295" clip-path="url(#clipPath2)"/>
    </g>
    <g font-size="14px" stroke-linecap="butt" transform="matrix(1,0,0,1,-87,-150)" text-rendering="geometricPrecision" font-family="sans-serif" shape-rendering="geometricPrecision" stroke-miterlimit="1.45">
      <text x="1062.7104" xml:space="preserve" y="310.9003" clip-path="url(#clipPath2)" stroke="none">parse-</text>
      <text x="1053.0348" xml:space="preserve" y="329.9578" clip-path="url(#clipPath2)" stroke="none">response</text>
    </g>
    <g fill="white" text-rendering="geometricPrecision" shape-rendering="geometricPrecision" transform="matrix(1,0,0,1,-87,-150)" stroke="white">
      <rect x="1132.2217" width="60" height="40" y="295" clip-path="url(#clipPath2)" stroke="none"/>
    </g>
    <g stroke-linecap="butt" transform="matrix(1,0,0,1,-87,-150)" fill="gray" text-rendering="geometricPrecision" shape-rendering="geometricPrecision" stroke="gray" stroke-miterlimit="1.45">
      <rect fill="none" x="1132.2217" width="60" height="40" y="295" clip-path="url(#clipPath2)"/>
    </g>
    <g font-size="14px" stroke-linecap="butt" transform="matrix(1,0,0,1,-87,-150)" text-rendering="geometricPrecision" font-family="sans-serif" shape-rendering="geometricPrecision" stroke-miterlimit="1.45">
      <text x="1153.8403" xml:space="preserve" y="310.9003" clip-path="url(#clipPath2)" stroke="none">in-</text>
      <text x="1135.9651" xml:space="preserve" y="329.9578" clip-path="url(#clipPath2)" stroke="none">transfer</text>
    </g>
    <g fill="rgb(255,255,204)" text-rendering="geometricPrecision" shape-rendering="geometricPrecision" transform="matrix(1,0,0,1,-87,-150)" stroke="rgb(255,255,204)">
      <path d="M684.8609 477 Q684.8609 465 696.8609 465 L759.0051 465 Q771.0051 465 771.0051 477 L771.0051 493 Q771.0051 505 759.0051 505 L696.8609 505 Q684.8609 505 684.8609 493 Z" stroke="none" clip-path="url(#clipPath2)"/>
    </g>
    <g stroke-linecap="butt" transform="matrix(1,0,0,1,-87,-150)" fill="gray" text-rendering="geometricPrecision" shape-rendering="geometricPrecision" stroke="gray" stroke-miterlimit="1.45">
      <path fill="none" d="M684.8609 477 Q684.8609 465 696.8609 465 L759.0051 465 Q771.0051 465 771.0051 477 L771.0051 493 Q771.0051 505 759.0051 505 L696.8609 505 Q684.8609 505 684.8609 493 Z" clip-path="url(#clipPath2)"/>
    </g>
    <g font-size="14px" stroke-linecap="butt" transform="matrix(1,0,0,1,-87,-150)" text-rendering="geometricPrecision" font-family="sans-serif" shape-rendering="geometricPrecision" stroke-miterlimit="1.45">
      <text x="688.2578" xml:space="preserve" y="480.9003" clip-path="url(#clipPath2)" stroke="none">HTTP|Proxy</text>
      <text x="706.8676" xml:space="preserve" y="499.9578" clip-path="url(#clipPath2)" stroke="none">Server</text>
    </g>
    <g fill="rgb(255,255,204)" text-rendering="geometricPrecision" shape-rendering="geometricPrecision" transform="matrix(1,0,0,1,-87,-150)" stroke="rgb(255,255,204)">
      <path d="M306.0531 477 Q306.0531 465 318.0531 465 L351.3973 465 Q363.3973 465 363.3973 477 L363.3973 493 Q363.3973 505 351.3973 505 L318.0531 505 Q306.0531 505 306.0531 493 Z" stroke="none" clip-path="url(#clipPath2)"/>
    </g>
    <g stroke-linecap="butt" transform="matrix(1,0,0,1,-87,-150)" fill="gray" text-rendering="geometricPrecision" shape-rendering="geometricPrecision" stroke="gray" stroke-miterlimit="1.45">
      <path fill="none" d="M306.0531 477 Q306.0531 465 318.0531 465 L351.3973 465 Q363.3973 465 363.3973 477 L363.3973 493 Q363.3973 505 351.3973 505 L318.0531 505 Q306.0531 505 306.0531 493 Z" clip-path="url(#clipPath2)"/>
    </g>
    <g font-size="14px" stroke-linecap="butt" transform="matrix(1,0,0,1,-87,-150)" text-rendering="geometricPrecision" font-family="sans-serif" shape-rendering="geometricPrecision" stroke-miterlimit="1.45">
      <text x="320.4601" xml:space="preserve" y="480.9003" clip-path="url(#clipPath2)" stroke="none">DNS</text>
      <text x="313.6598" xml:space="preserve" y="499.9578" clip-path="url(#clipPath2)" stroke="none">Server</text>
    </g>
    <g fill="white" text-rendering="geometricPrecision" shape-rendering="geometricPrecision" transform="matrix(1,0,0,1,-87,-150)" stroke="white">
      <rect x="1221.8663" width="60" height="40" y="295" clip-path="url(#clipPath2)" stroke="none"/>
    </g>
    <g stroke-linecap="butt" transform="matrix(1,0,0,1,-87,-150)" fill="gray" text-rendering="geometricPrecision" shape-rendering="geometricPrecision" stroke-dasharray="6,2" stroke="gray" stroke-miterlimit="1.45">
      <rect fill="none" x="1221.8663" width="60" height="40" y="295" clip-path="url(#clipPath2)"/>
    </g>
    <g font-size="14px" stroke-linecap="butt" transform="matrix(1,0,0,1,-87,-150)" text-rendering="geometricPrecision" font-family="sans-serif" shape-rendering="geometricPrecision" stroke-miterlimit="1.45">
      <text x="1226.2043" xml:space="preserve" y="320.429" clip-path="url(#clipPath2)" stroke="none">redirect</text>
    </g>
    <g fill="white" text-rendering="geometricPrecision" shape-rendering="geometricPrecision" transform="matrix(1,0,0,1,-87,-150)" stroke="white">
      <rect x="661.1757" width="60" height="40" y="295" clip-path="url(#clipPath2)" stroke="none"/>
    </g>
    <g stroke-linecap="butt" transform="matrix(1,0,0,1,-87,-150)" fill="red" text-rendering="geometricPrecision" shape-rendering="geometricPrecision" stroke-dasharray="6,2" stroke="red" stroke-miterlimit="1.45">
      <rect fill="none" x="661.1757" width="60" height="40" y="295" clip-path="url(#clipPath2)"/>
    </g>
    <g font-size="14px" stroke-linecap="butt" transform="matrix(1,0,0,1,-87,-150)" text-rendering="geometricPrecision" font-family="sans-serif" shape-rendering="geometricPrecision" stroke-miterlimit="1.45">
      <text x="677.841" xml:space="preserve" y="310.9003" clip-path="url(#clipPath2)" stroke="none">out-</text>
      <text x="664.9191" xml:space="preserve" y="329.9578" clip-path="url(#clipPath2)" stroke="none">transfer</text>
    </g>
    <g fill="white" text-rendering="geometricPrecision" shape-rendering="geometricPrecision" transform="matrix(1,0,0,1,-87,-150)" stroke="white">
      <rect x="203.1728" width="105.4156" height="20.0667" y="175.8958" clip-path="url(#clipPath2)" stroke="none"/>
    </g>
    <g stroke-linecap="butt" transform="matrix(1,0,0,1,-87,-150)" fill="gray" text-rendering="geometricPrecision" shape-rendering="geometricPrecision" stroke="gray" stroke-miterlimit="1.45">
      <rect fill="none" x="203.1728" width="105.4156" height="20.0667" y="175.8958" clip-path="url(#clipPath2)"/>
    </g>
    <g font-size="14px" stroke-linecap="butt" transform="matrix(1,0,0,1,-87,-150)" text-rendering="geometricPrecision" font-family="sans-serif" shape-rendering="geometricPrecision" stroke-miterlimit="1.45">
      <text x="207.4533" xml:space="preserve" y="191.3582" clip-path="url(#clipPath2)" stroke="none">conf { filters[] }</text>
    </g>
    <g fill="white" text-rendering="geometricPrecision" shape-rendering="geometricPrecision" transform="matrix(1,0,0,1,-87,-150)" stroke="white">
      <path d="M102.2085 177.9292 Q102.2085 165.9292 114.2085 165.9292 L147.5527 165.9292 Q159.5527 165.9292 159.5527 177.9292 L159.5527 193.9292 Q159.5527 205.9292 147.5527 205.9292 L114.2085 205.9292 Q102.2085 205.9292 102.2085 193.9292 Z" stroke="none" clip-path="url(#clipPath2)"/>
    </g>
    <g stroke-linecap="butt" transform="matrix(1,0,0,1,-87,-150)" fill="gray" text-rendering="geometricPrecision" shape-rendering="geometricPrecision" stroke="gray" stroke-miterlimit="1.45">
      <path fill="none" d="M102.2085 177.9292 Q102.2085 165.9292 114.2085 165.9292 L147.5527 165.9292 Q159.5527 165.9292 159.5527 177.9292 L159.5527 193.9292 Q159.5527 205.9292 147.5527 205.9292 L114.2085 205.9292 Q102.2085 205.9292 102.2085 193.9292 Z" clip-path="url(#clipPath2)"/>
    </g>
    <g font-size="14px" stroke-linecap="butt" transform="matrix(1,0,0,1,-87,-150)" text-rendering="geometricPrecision" font-family="sans-serif" shape-rendering="geometricPrecision" font-weight="bold" stroke-miterlimit="1.45">
      <text x="114.8035" xml:space="preserve" y="191.3582" clip-path="url(#clipPath2)" stroke="none">User</text>
    </g>
    <g fill="white" text-rendering="geometricPrecision" shape-rendering="geometricPrecision" transform="matrix(1,0,0,1,-87,-150)" stroke="white">
      <rect x="1311.8663" width="60" height="40" y="295" clip-path="url(#clipPath2)" stroke="none"/>
    </g>
    <g stroke-linecap="butt" transform="matrix(1,0,0,1,-87,-150)" fill="gray" text-rendering="geometricPrecision" shape-rendering="geometricPrecision" stroke="gray" stroke-miterlimit="1.45">
      <rect fill="none" x="1311.8663" width="60" height="40" y="295" clip-path="url(#clipPath2)"/>
    </g>
    <g font-size="14px" stroke-linecap="butt" transform="matrix(1,0,0,1,-87,-150)" text-rendering="geometricPrecision" font-family="sans-serif" shape-rendering="geometricPrecision" stroke-miterlimit="1.45">
      <text x="1325.1035" xml:space="preserve" y="310.9003" clip-path="url(#clipPath2)" stroke="none">user-</text>
      <text x="1326.4886" xml:space="preserve" y="329.9578" clip-path="url(#clipPath2)" stroke="none">filter</text>
    </g>
    <g stroke-linecap="butt" transform="matrix(1,0,0,1,-87,-150)" fill="rgb(51,102,255)" text-rendering="geometricPrecision" shape-rendering="geometricPrecision" stroke="rgb(51,102,255)" stroke-miterlimit="1.45">
      <path fill="none" d="M364.7252 315 L375.533 315" clip-path="url(#clipPath2)"/>
    </g>
    <g stroke-linecap="butt" transform="matrix(1,0,0,1,-87,-150)" fill="rgb(51,102,255)" text-rendering="geometricPrecision" shape-rendering="geometricPrecision" stroke="rgb(51,102,255)" stroke-miterlimit="1.45">
      <path d="M383.533 315 L371.533 310 L374.533 315 L371.533 320 Z" stroke="none" clip-path="url(#clipPath2)"/>
      <path fill="none" d="M255.8806 272 L255.8806 315 L296.6775 315" clip-path="url(#clipPath2)"/>
      <path d="M304.6775 315 L292.6775 310 L295.6775 315 L292.6775 320 Z" clip-path="url(#clipPath2)" stroke="none"/>
      <path fill="none" d="M800.0203 315 L852.9224 315" clip-path="url(#clipPath2)"/>
      <path d="M860.9224 315 L848.9224 310 L851.9224 315 L848.9224 320 Z" clip-path="url(#clipPath2)" stroke="none"/>
      <path fill="none" d="M920.9521 315 L925.612 315" clip-path="url(#clipPath2)"/>
      <path d="M933.612 315 L921.612 310 L924.612 315 L921.612 320 Z" clip-path="url(#clipPath2)" stroke="none"/>
      <path fill="none" d="M993.6617 315 L1045.3479 315" clip-path="url(#clipPath2)"/>
      <path d="M1053.3479 315 L1041.3479 310 L1044.3479 315 L1041.3479 320 Z" clip-path="url(#clipPath2)" stroke="none"/>
      <path fill="none" d="M1113.3771 315 L1124.1848 315" clip-path="url(#clipPath2)"/>
      <path d="M1132.1848 315 L1120.1848 310 L1123.1848 315 L1120.1848 320 Z" clip-path="url(#clipPath2)" stroke="none"/>
      <path fill="none" d="M890.9521 335 L890.9521 352.5 L707.897 352.5 L707.897 456.9725" clip-path="url(#clipPath2)"/>
      <path d="M707.897 464.9725 L712.897 452.9725 L707.897 455.9725 L702.897 452.9725 Z" clip-path="url(#clipPath2)" stroke="none"/>
      <path fill="none" d="M400.0698 335 L400.0698 496.3333 L677.1074 496.3333" clip-path="url(#clipPath2)"/>
      <path d="M685.1074 496.3333 L673.1074 491.3333 L676.1074 496.3333 L673.1074 501.3333 Z" clip-path="url(#clipPath2)" stroke="none"/>
      <path fill="none" d="M747.9691 464.9524 L747.9691 367.5 L963.6617 367.5 L963.6617 343" clip-path="url(#clipPath2)"/>
      <path d="M963.6617 335 L958.6617 347 L963.6617 344 L968.6617 347 Z" clip-path="url(#clipPath2)" stroke="none"/>
      <path fill="none" d="M334.7252 335 L334.7252 456.9683" clip-path="url(#clipPath2)"/>
      <path d="M334.7252 464.9683 L339.7252 452.9683 L334.7252 455.9683 L329.7252 452.9683 Z" clip-path="url(#clipPath2)" stroke="none"/>
      <path fill="none" d="M1192.2217 315 L1213.8373 315" clip-path="url(#clipPath2)"/>
      <path d="M1221.8373 315 L1209.8373 310 L1212.8373 315 L1209.8373 320 Z" clip-path="url(#clipPath2)" stroke="none"/>
      <path fill="none" stroke-dasharray="6,2" d="M1251.8662 294.9609 L1251.8662 285 L334.7252 285 L334.7252 286.9609" clip-path="url(#clipPath2)"/>
      <path stroke-dasharray="6,2" d="M334.7252 294.9609 L339.7252 282.9609 L334.7252 285.9609 L329.7252 282.9609 Z" clip-path="url(#clipPath2)" stroke="none"/>
      <path fill="none" stroke-dasharray="6,2" d="M443.5698 315 L653.1491 315" clip-path="url(#clipPath2)"/>
      <path stroke-dasharray="6,2" d="M661.1491 315 L649.1491 310 L652.1491 315 L649.1491 320 Z" clip-path="url(#clipPath2)" stroke="none"/>
      <path fill="none" d="M721.1757 315 L731.9835 315" clip-path="url(#clipPath2)"/>
      <path d="M739.9835 315 L727.9835 310 L730.9835 315 L727.9835 320 Z" clip-path="url(#clipPath2)" stroke="none"/>
      <path fill="none" d="M255.8806 195.9625 L255.8806 223.9648" clip-path="url(#clipPath2)" stroke="gray"/>
      <path fill="gray" d="M255.8806 231.9648 L260.8806 219.9648 L255.8806 222.9648 L250.8806 219.9648 Z" clip-path="url(#clipPath2)" stroke="none"/>
      <path fill="none" d="M227.1615 252 L130.8806 252 L130.8806 213.9292" clip-path="url(#clipPath2)"/>
      <path d="M130.8806 205.9292 L125.8806 217.9292 L130.8806 214.9292 L135.8806 217.9292 Z" clip-path="url(#clipPath2)" stroke="none"/>
      <path fill="none" d="M159.5527 185.9292 L195.1302 185.9292" clip-path="url(#clipPath2)" stroke="gray"/>
      <path fill="gray" d="M203.1302 185.9292 L191.1302 180.9292 L194.1302 185.9292 L191.1302 190.9292 Z" clip-path="url(#clipPath2)" stroke="none"/>
      <path fill="none" d="M1281.8662 315 L1303.8369 315" clip-path="url(#clipPath2)"/>
      <path d="M1311.8369 315 L1299.8369 310 L1302.8369 315 L1299.8369 320 Z" clip-path="url(#clipPath2)" stroke="none"/>
      <path fill="none" d="M1341.8662 294.9536 L1341.8662 247.5 L292.5527 247.5" clip-path="url(#clipPath2)"/>
      <path d="M284.5527 247.5 L296.5527 252.5 L293.5527 247.5 L296.5527 242.5 Z" clip-path="url(#clipPath2)" stroke="none"/>
    </g>
    <g fill="rgb(104,176,227)" text-rendering="geometricPrecision" shape-rendering="geometricPrecision" transform="matrix(1,0,0,1,-87,-150)" stroke="rgb(104,176,227)">
      <path d="M447.4144 349.665 L447.4144 440 L1085.8617 440 L1085.8617 349.665 ZM448.4144 371.665 L448.4144 439 L1084.8617 439 L1084.8617 371.665 Z" fill-rule="evenodd" clip-path="url(#clipPath2)" stroke="none"/>
    </g>
    <g stroke-linecap="butt" transform="matrix(1,0,0,1,-87,-150)" fill="white" text-rendering="geometricPrecision" font-family="sans-serif" shape-rendering="geometricPrecision" stroke="white" stroke-miterlimit="1.45">
      <text x="449.4144" xml:space="preserve" y="364.4859" clip-path="url(#clipPath2)" stroke="none">SSL Mode</text>
    </g>
    <g fill="white" text-rendering="geometricPrecision" shape-rendering="geometricPrecision" transform="matrix(1,0,0,1,-87,-150)" stroke="white">
      <rect x="462.4144" width="60" height="40" y="385" clip-path="url(#clipPath2)" stroke="none"/>
    </g>
    <g stroke-linecap="butt" transform="matrix(1,0,0,1,-87,-150)" fill="gray" text-rendering="geometricPrecision" shape-rendering="geometricPrecision" stroke="gray" stroke-miterlimit="1.45">
      <rect fill="none" x="462.4144" width="60" height="40" y="385" clip-path="url(#clipPath2)"/>
    </g>
    <g font-size="14px" stroke-linecap="butt" transform="matrix(1,0,0,1,-87,-150)" text-rendering="geometricPrecision" font-family="sans-serif" shape-rendering="geometricPrecision" stroke-miterlimit="1.45">
      <text x="481.6543" xml:space="preserve" y="400.9003" clip-path="url(#clipPath2)" stroke="none">ssl-</text>
      <text x="478.667" xml:space="preserve" y="419.9578" clip-path="url(#clipPath2)" stroke="none">recv</text>
    </g>
    <g fill="white" text-rendering="geometricPrecision" shape-rendering="geometricPrecision" transform="matrix(1,0,0,1,-87,-150)" stroke="white">
      <rect x="539.6712" width="60" height="40" y="385" clip-path="url(#clipPath2)" stroke="none"/>
    </g>
    <g stroke-linecap="butt" transform="matrix(1,0,0,1,-87,-150)" fill="gray" text-rendering="geometricPrecision" shape-rendering="geometricPrecision" stroke="gray" stroke-miterlimit="1.45">
      <rect fill="none" x="539.6712" width="60" height="40" y="385" clip-path="url(#clipPath2)"/>
    </g>
    <g font-size="14px" stroke-linecap="butt" transform="matrix(1,0,0,1,-87,-150)" text-rendering="geometricPrecision" font-family="sans-serif" shape-rendering="geometricPrecision" stroke-miterlimit="1.45">
      <text x="558.9111" xml:space="preserve" y="400.9003" clip-path="url(#clipPath2)" stroke="none">ssl-</text>
      <text x="543.8134" xml:space="preserve" y="419.9578" clip-path="url(#clipPath2)" stroke="none">h-shake</text>
    </g>
    <g fill="white" text-rendering="geometricPrecision" shape-rendering="geometricPrecision" transform="matrix(1,0,0,1,-87,-150)" stroke="white">
      <rect x="616.4235" width="60" height="40" y="385" clip-path="url(#clipPath2)" stroke="none"/>
    </g>
    <g stroke-linecap="butt" transform="matrix(1,0,0,1,-87,-150)" fill="gray" text-rendering="geometricPrecision" shape-rendering="geometricPrecision" stroke="gray" stroke-miterlimit="1.45">
      <rect fill="none" x="616.4235" width="60" height="40" y="385" clip-path="url(#clipPath2)"/>
    </g>
    <g font-size="14px" stroke-linecap="butt" transform="matrix(1,0,0,1,-87,-150)" text-rendering="geometricPrecision" font-family="sans-serif" shape-rendering="geometricPrecision" stroke-miterlimit="1.45">
      <text x="635.6634" xml:space="preserve" y="400.9003" clip-path="url(#clipPath2)" stroke="none">ssl-</text>
      <text x="630.5002" xml:space="preserve" y="419.9578" clip-path="url(#clipPath2)" stroke="none">send</text>
    </g>
    <g fill="white" text-rendering="geometricPrecision" shape-rendering="geometricPrecision" transform="matrix(1,0,0,1,-87,-150)" stroke="white">
      <rect x="779.4426" width="60" height="40" y="385" clip-path="url(#clipPath2)" stroke="none"/>
    </g>
    <g stroke-linecap="butt" transform="matrix(1,0,0,1,-87,-150)" fill="gray" text-rendering="geometricPrecision" shape-rendering="geometricPrecision" stroke="gray" stroke-miterlimit="1.45">
      <rect fill="none" x="779.4426" width="60" height="40" y="385" clip-path="url(#clipPath2)"/>
    </g>
    <g font-size="14px" stroke-linecap="butt" transform="matrix(1,0,0,1,-87,-150)" text-rendering="geometricPrecision" font-family="sans-serif" shape-rendering="geometricPrecision" stroke-miterlimit="1.45">
      <text x="787.5446" xml:space="preserve" y="410.429" clip-path="url(#clipPath2)" stroke="none">ssl-req</text>
    </g>
    <g fill="white" text-rendering="geometricPrecision" shape-rendering="geometricPrecision" transform="matrix(1,0,0,1,-87,-150)" stroke="white">
      <rect x="1010.8617" width="60" height="40" y="385" clip-path="url(#clipPath2)" stroke="none"/>
    </g>
    <g stroke-linecap="butt" transform="matrix(1,0,0,1,-87,-150)" fill="gray" text-rendering="geometricPrecision" shape-rendering="geometricPrecision" stroke="gray" stroke-miterlimit="1.45">
      <rect fill="none" x="1010.8617" width="60" height="40" y="385" clip-path="url(#clipPath2)"/>
    </g>
    <g font-size="14px" stroke-linecap="butt" transform="matrix(1,0,0,1,-87,-150)" text-rendering="geometricPrecision" font-family="sans-serif" shape-rendering="geometricPrecision" stroke-miterlimit="1.45">
      <text x="1015.6125" xml:space="preserve" y="410.429" clip-path="url(#clipPath2)" stroke="none">ssl-resp</text>
    </g>
    <g fill="white" text-rendering="geometricPrecision" shape-rendering="geometricPrecision" transform="matrix(1,0,0,1,-87,-150)" stroke="white">
      <rect x="933.6617" width="60" height="40" y="385" clip-path="url(#clipPath2)" stroke="none"/>
    </g>
    <g stroke-linecap="butt" transform="matrix(1,0,0,1,-87,-150)" fill="gray" text-rendering="geometricPrecision" shape-rendering="geometricPrecision" stroke="gray" stroke-miterlimit="1.45">
      <rect fill="none" x="933.6617" width="60" height="40" y="385" clip-path="url(#clipPath2)"/>
    </g>
    <g font-size="14px" stroke-linecap="butt" transform="matrix(1,0,0,1,-87,-150)" text-rendering="geometricPrecision" font-family="sans-serif" shape-rendering="geometricPrecision" stroke-miterlimit="1.45">
      <text x="952.9016" xml:space="preserve" y="400.9003" clip-path="url(#clipPath2)" stroke="none">ssl-</text>
      <text x="949.9142" xml:space="preserve" y="419.9578" clip-path="url(#clipPath2)" stroke="none">recv</text>
    </g>
    <g fill="white" text-rendering="geometricPrecision" shape-rendering="geometricPrecision" transform="matrix(1,0,0,1,-87,-150)" stroke="white">
      <rect x="860.9521" width="60" height="40" y="385" clip-path="url(#clipPath2)" stroke="none"/>
    </g>
    <g stroke-linecap="butt" transform="matrix(1,0,0,1,-87,-150)" fill="gray" text-rendering="geometricPrecision" shape-rendering="geometricPrecision" stroke="gray" stroke-miterlimit="1.45">
      <rect fill="none" x="860.9521" width="60" height="40" y="385" clip-path="url(#clipPath2)"/>
    </g>
    <g font-size="14px" stroke-linecap="butt" transform="matrix(1,0,0,1,-87,-150)" text-rendering="geometricPrecision" font-family="sans-serif" shape-rendering="geometricPrecision" stroke-miterlimit="1.45">
      <text x="880.192" xml:space="preserve" y="400.9003" clip-path="url(#clipPath2)" stroke="none">ssl-</text>
      <text x="875.0289" xml:space="preserve" y="419.9578" clip-path="url(#clipPath2)" stroke="none">send</text>
    </g>
    <g fill="white" text-rendering="geometricPrecision" shape-rendering="geometricPrecision" transform="matrix(1,0,0,1,-87,-150)" stroke="white">
      <path d="M539.6712 177.9292 Q539.6712 165.9292 551.6712 165.9292 L587.6712 165.9292 Q599.6712 165.9292 599.6712 177.9292 L599.6712 193.9292 Q599.6712 205.9292 587.6712 205.9292 L551.6712 205.9292 Q539.6712 205.9292 539.6712 193.9292 Z" stroke="none" clip-path="url(#clipPath2)"/>
    </g>
    <g stroke-linecap="butt" transform="matrix(1,0,0,1,-87,-150)" fill="gray" text-rendering="geometricPrecision" shape-rendering="geometricPrecision" stroke="gray" stroke-miterlimit="1.45">
      <path fill="none" d="M539.6712 177.9292 Q539.6712 165.9292 551.6712 165.9292 L587.6712 165.9292 Q599.6712 165.9292 599.6712 177.9292 L599.6712 193.9292 Q599.6712 205.9292 587.6712 205.9292 L551.6712 205.9292 Q539.6712 205.9292 539.6712 193.9292 Z" clip-path="url(#clipPath2)"/>
    </g>
    <g font-size="14px" stroke-linecap="butt" transform="matrix(1,0,0,1,-87,-150)" text-rendering="geometricPrecision" font-family="sans-serif" shape-rendering="geometricPrecision" stroke-miterlimit="1.45">
      <text x="558.3235" xml:space="preserve" y="181.8294" clip-path="url(#clipPath2)" stroke="none">SSL</text>
      <text x="545.0588" xml:space="preserve" y="200.8869" clip-path="url(#clipPath2)" stroke="none">context</text>
    </g>
    <g stroke-linecap="butt" transform="matrix(1,0,0,1,-87,-150)" fill="rgb(51,102,255)" text-rendering="geometricPrecision" shape-rendering="geometricPrecision" stroke-dasharray="6,2" stroke="rgb(51,102,255)" stroke-miterlimit="1.45">
      <path fill="none" d="M427.0698 335 L427.0698 405 L454.3799 405" clip-path="url(#clipPath2)"/>
      <path d="M462.3799 405 L450.3799 400 L453.3799 405 L450.3799 410 Z" clip-path="url(#clipPath2)" stroke="none"/>
      <path fill="none" stroke-dasharray="none" d="M684.814 485 L492.4144 485 L492.4144 433" clip-path="url(#clipPath2)"/>
      <path stroke-dasharray="none" d="M492.4144 425 L487.4144 437 L492.4144 434 L497.4144 437 Z" clip-path="url(#clipPath2)" stroke="none"/>
      <path fill="none" stroke-dasharray="none" d="M522.4144 396.5 L531.6375 396.5" clip-path="url(#clipPath2)"/>
      <path stroke-dasharray="none" d="M539.6375 396.5 L527.6375 391.5 L530.6375 396.5 L527.6375 401.5 Z" clip-path="url(#clipPath2)" stroke="none"/>
      <path fill="none" stroke-dasharray="none" d="M539.6375 413.5 L530.4144 413.5" clip-path="url(#clipPath2)"/>
      <path stroke-dasharray="none" d="M522.4144 413.5 L534.4144 418.5 L531.4144 413.5 L534.4144 408.5 Z" clip-path="url(#clipPath2)" stroke="none"/>
      <path fill="none" stroke-dasharray="none" d="M599.6712 396.5 L608.3907 396.5" clip-path="url(#clipPath2)"/>
      <path stroke-dasharray="none" d="M616.3907 396.5 L604.3907 391.5 L607.3907 396.5 L604.3907 401.5 Z" clip-path="url(#clipPath2)" stroke="none"/>
      <path fill="none" stroke-dasharray="none" d="M668.7996 384.9512 L668.7996 343" clip-path="url(#clipPath2)"/>
      <path stroke-dasharray="none" d="M668.7996 335 L663.7996 347 L668.7996 344 L673.7996 347 Z" clip-path="url(#clipPath2)" stroke="none"/>
      <path fill="none" stroke-dasharray="none" d="M646.4235 425 L646.4235 473.6667 L677.1044 473.6667" clip-path="url(#clipPath2)"/>
      <path stroke-dasharray="none" d="M685.1044 473.6667 L673.1044 468.6667 L676.1044 473.6667 L673.1044 478.6667 Z" clip-path="url(#clipPath2)" stroke="none"/>
      <path fill="none" stroke-dasharray="none" d="M616.3907 413.5 L607.6712 413.5" clip-path="url(#clipPath2)"/>
      <path stroke-dasharray="none" d="M599.6712 413.5 L611.6712 418.5 L608.6712 413.5 L611.6712 408.5 Z" clip-path="url(#clipPath2)" stroke="none"/>
      <path fill="none" stroke-dasharray="none" d="M789.7314 335 L789.7314 376.9512" clip-path="url(#clipPath2)"/>
      <path stroke-dasharray="none" d="M789.7314 384.9512 L794.7314 372.9512 L789.7314 375.9512 L784.7314 372.9512 Z" clip-path="url(#clipPath2)" stroke="none"/>
      <path fill="none" stroke-dasharray="none" d="M1062.1194 384.9512 L1062.1194 343" clip-path="url(#clipPath2)"/>
      <path stroke-dasharray="none" d="M1062.1194 335 L1057.1194 347 L1062.1194 344 L1067.1194 347 Z" clip-path="url(#clipPath2)" stroke="none"/>
      <path fill="none" stroke-dasharray="none" d="M771.0051 493.5 L963.6617 493.5 L963.6617 433" clip-path="url(#clipPath2)"/>
      <path stroke-dasharray="none" d="M963.6617 425 L958.6617 437 L963.6617 434 L968.6617 437 Z" clip-path="url(#clipPath2)" stroke="none"/>
      <path fill="none" stroke-dasharray="none" d="M1010.8281 413.5 L1001.6617 413.5" clip-path="url(#clipPath2)"/>
      <path stroke-dasharray="none" d="M993.6617 413.5 L1005.6617 418.5 L1002.6617 413.5 L1005.6617 408.5 Z" clip-path="url(#clipPath2)" stroke="none"/>
      <path fill="none" stroke-dasharray="none" d="M993.6617 396.5 L1002.8281 396.5" clip-path="url(#clipPath2)"/>
      <path stroke-dasharray="none" d="M1010.8281 396.5 L998.8281 391.5 L1001.8281 396.5 L998.8281 401.5 Z" clip-path="url(#clipPath2)" stroke="none"/>
      <path fill="none" stroke-dasharray="none" d="M839.4426 396.5 L852.9101 396.5" clip-path="url(#clipPath2)"/>
      <path stroke-dasharray="none" d="M860.9101 396.5 L848.9101 391.5 L851.9101 396.5 L848.9101 401.5 Z" clip-path="url(#clipPath2)" stroke="none"/>
      <path fill="none" stroke-dasharray="none" d="M890.9521 425 L890.9521 476.5 L779.0051 476.5" clip-path="url(#clipPath2)"/>
      <path stroke-dasharray="none" d="M771.0051 476.5 L783.0051 481.5 L780.0051 476.5 L783.0051 471.5 Z" clip-path="url(#clipPath2)" stroke="none"/>
      <path fill="none" d="M920.9521 405 L925.612 405" clip-path="url(#clipPath2)"/>
      <path d="M933.612 405 L921.612 400 L924.612 405 L921.612 410 Z" clip-path="url(#clipPath2)" stroke="none"/>
      <path fill="none" stroke-dasharray="none" d="M860.9101 413.5 L847.4426 413.5" clip-path="url(#clipPath2)"/>
      <path stroke-dasharray="none" d="M839.4426 413.5 L851.4426 418.5 L848.4426 413.5 L851.4426 408.5 Z" clip-path="url(#clipPath2)" stroke="none"/>
      <path fill="none" stroke-dasharray="none" d="M308.6259 185.9292 L531.6854 185.9292" clip-path="url(#clipPath2)" stroke="gray"/>
      <path fill="gray" stroke-dasharray="none" d="M539.6854 185.9292 L527.6854 180.9292 L530.6854 185.9292 L527.6854 190.9292 Z" clip-path="url(#clipPath2)" stroke="none"/>
      <path fill="none" stroke-dasharray="none" d="M569.6712 385.0237 L569.6712 213.9067" clip-path="url(#clipPath2)" stroke="gray"/>
      <path fill="gray" stroke-dasharray="none" d="M569.6712 205.9067 L564.6712 217.9067 L569.6712 214.9067 L574.6712 217.9067 Z" clip-path="url(#clipPath2)" stroke="none"/>
    </g>
  </g>
</svg>
