<?xml version="1.0" encoding="UTF-8"?><svg xmlns="http://www.w3.org/2000/svg" xmlns:xlink="http://www.w3.org/1999/xlink" fill-opacity="1" color-rendering="auto" color-interpolation="auto" text-rendering="auto" stroke="black" stroke-linecap="square" width="520" stroke-miterlimit="10" shape-rendering="auto" stroke-opacity="1" fill="black" stroke-dasharray="none" font-weight="normal" stroke-width="1" height="359" font-family="'Dialog'" font-style="normal" stroke-linejoin="miter" font-size="12px" stroke-dashoffset="0" image-rendering="auto">
  <!--Generated by ySVG 2.5-->
  <defs id="genericDefs"/>
  <g>
    <defs id="defs1">
      <clipPath clipPathUnits="userSpaceOnUse" id="clipPath1">
        <path d="M0 0 L520 0 L520 359 L0 359 L0 0 Z"/>
      </clipPath>
      <clipPath clipPathUnits="userSpaceOnUse" id="clipPath2">
        <path d="M351 271 L871 271 L871 630 L351 630 L351 271 Z"/>
      </clipPath>
    </defs>
    <g fill="white" text-rendering="geometricPrecision" shape-rendering="geometricPrecision" transform="translate(-351,-271)" stroke="white">
      <rect x="351" width="520" height="359" y="271" clip-path="url(#clipPath2)" stroke="none"/>
    </g>
    <g fill="white" text-rendering="geometricPrecision" shape-rendering="geometricPrecision" transform="matrix(1,0,0,1,-351,-271)" stroke="white">
      <rect x="630.7688" width="60" height="40" y="286" clip-path="url(#clipPath2)" stroke="none"/>
    </g>
    <g stroke-linecap="butt" transform="matrix(1,0,0,1,-351,-271)" fill="gray" text-rendering="geometricPrecision" shape-rendering="geometricPrecision" stroke="gray" stroke-miterlimit="1.45">
      <rect fill="none" x="630.7688" width="60" height="40" y="286" clip-path="url(#clipPath2)"/>
    </g>
    <g font-size="14px" stroke-linecap="butt" transform="matrix(1,0,0,1,-351,-271)" text-rendering="geometricPrecision" font-family="sans-serif" shape-rendering="geometricPrecision" font-weight="bold" stroke-miterlimit="1.45">
      <text x="632.2665" xml:space="preserve" y="301.9003" clip-path="url(#clipPath2)" stroke="none">HTTP-SV</text>
      <text x="640.8088" xml:space="preserve" y="320.9578" clip-path="url(#clipPath2)" stroke="none">proxy</text>
    </g>
    <g fill="white" text-rendering="geometricPrecision" shape-rendering="geometricPrecision" transform="matrix(1,0,0,1,-351,-271)" stroke="white">
      <rect x="390.5604" width="57.3442" height="40" y="376" clip-path="url(#clipPath2)" stroke="none"/>
    </g>
    <g stroke-linecap="butt" transform="matrix(1,0,0,1,-351,-271)" fill="gray" text-rendering="geometricPrecision" shape-rendering="geometricPrecision" stroke="gray" stroke-miterlimit="1.45">
      <rect fill="none" x="390.5604" width="57.3442" height="40" y="376" clip-path="url(#clipPath2)"/>
    </g>
    <g font-size="14px" stroke-linecap="butt" transform="matrix(1,0,0,1,-351,-271)" text-rendering="geometricPrecision" font-family="sans-serif" shape-rendering="geometricPrecision" font-weight="bold" stroke-miterlimit="1.45">
      <text x="401.3853" xml:space="preserve" y="391.9003" clip-path="url(#clipPath2)" stroke="none">HTTP</text>
      <text x="398.7408" xml:space="preserve" y="410.9578" clip-path="url(#clipPath2)" stroke="none">Client</text>
    </g>
    <g fill="white" text-rendering="geometricPrecision" shape-rendering="geometricPrecision" transform="matrix(1,0,0,1,-351,-271)" stroke="white">
      <rect x="630.7688" width="60" height="40" y="426" clip-path="url(#clipPath2)" stroke="none"/>
    </g>
    <g stroke-linecap="butt" transform="matrix(1,0,0,1,-351,-271)" fill="gray" text-rendering="geometricPrecision" shape-rendering="geometricPrecision" stroke="gray" stroke-miterlimit="1.45">
      <rect fill="none" x="630.7688" width="60" height="40" y="426" clip-path="url(#clipPath2)"/>
    </g>
    <g font-size="14px" stroke-linecap="butt" transform="matrix(1,0,0,1,-351,-271)" text-rendering="geometricPrecision" font-family="sans-serif" shape-rendering="geometricPrecision" stroke-miterlimit="1.45">
      <text x="633.2319" xml:space="preserve" y="441.9003" clip-path="url(#clipPath2)" stroke="none">HTTP-CL</text>
      <text x="636.4152" xml:space="preserve" y="460.9578" clip-path="url(#clipPath2)" stroke="none">filters...</text>
    </g>
    <g fill="rgb(255,255,204)" text-rendering="geometricPrecision" shape-rendering="geometricPrecision" transform="matrix(1,0,0,1,-351,-271)" stroke="rgb(255,255,204)">
      <path d="M702.21 586.96 Q702.21 574.96 714.21 574.96 L776.3542 574.96 Q788.3542 574.96 788.3542 586.96 L788.3542 602.96 Q788.3542 614.96 776.3542 614.96 L714.21 614.96 Q702.21 614.96 702.21 602.96 Z" stroke="none" clip-path="url(#clipPath2)"/>
    </g>
    <g stroke-linecap="butt" transform="matrix(1,0,0,1,-351,-271)" fill="gray" text-rendering="geometricPrecision" shape-rendering="geometricPrecision" stroke="gray" stroke-miterlimit="1.45">
      <path fill="none" d="M702.21 586.96 Q702.21 574.96 714.21 574.96 L776.3542 574.96 Q788.3542 574.96 788.3542 586.96 L788.3542 602.96 Q788.3542 614.96 776.3542 614.96 L714.21 614.96 Q702.21 614.96 702.21 602.96 Z" clip-path="url(#clipPath2)"/>
    </g>
    <g font-size="14px" stroke-linecap="butt" transform="matrix(1,0,0,1,-351,-271)" text-rendering="geometricPrecision" font-family="sans-serif" shape-rendering="geometricPrecision" stroke-miterlimit="1.45">
      <text x="705.6069" xml:space="preserve" y="590.8602" clip-path="url(#clipPath2)" stroke="none">HTTP|Proxy</text>
      <text x="724.2167" xml:space="preserve" y="609.9178" clip-path="url(#clipPath2)" stroke="none">Server</text>
    </g>
    <g fill="rgb(255,255,204)" text-rendering="geometricPrecision" shape-rendering="geometricPrecision" transform="matrix(1,0,0,1,-351,-271)" stroke="rgb(255,255,204)">
      <path d="M551.4749 586.96 Q551.4749 574.96 563.4749 574.96 L596.819 574.96 Q608.819 574.96 608.819 586.96 L608.819 602.96 Q608.819 614.96 596.819 614.96 L563.4749 614.96 Q551.4749 614.96 551.4749 602.96 Z" stroke="none" clip-path="url(#clipPath2)"/>
    </g>
    <g stroke-linecap="butt" transform="matrix(1,0,0,1,-351,-271)" fill="gray" text-rendering="geometricPrecision" shape-rendering="geometricPrecision" stroke="gray" stroke-miterlimit="1.45">
      <path fill="none" d="M551.4749 586.96 Q551.4749 574.96 563.4749 574.96 L596.819 574.96 Q608.819 574.96 608.819 586.96 L608.819 602.96 Q608.819 614.96 596.819 614.96 L563.4749 614.96 Q551.4749 614.96 551.4749 602.96 Z" clip-path="url(#clipPath2)"/>
    </g>
    <g font-size="14px" stroke-linecap="butt" transform="matrix(1,0,0,1,-351,-271)" text-rendering="geometricPrecision" font-family="sans-serif" shape-rendering="geometricPrecision" stroke-miterlimit="1.45">
      <text x="565.8818" xml:space="preserve" y="590.8602" clip-path="url(#clipPath2)" stroke="none">DNS</text>
      <text x="559.0815" xml:space="preserve" y="609.9178" clip-path="url(#clipPath2)" stroke="none">Server</text>
    </g>
    <g fill="white" text-rendering="geometricPrecision" shape-rendering="geometricPrecision" transform="matrix(1,0,0,1,-351,-271)" stroke="white">
      <rect x="366.5247" width="105.4156" height="20.0667" y="333.4479" clip-path="url(#clipPath2)" stroke="none"/>
    </g>
    <g stroke-linecap="butt" transform="matrix(1,0,0,1,-351,-271)" fill="gray" text-rendering="geometricPrecision" shape-rendering="geometricPrecision" stroke="gray" stroke-miterlimit="1.45">
      <rect fill="none" x="366.5247" width="105.4156" height="20.0667" y="333.4479" clip-path="url(#clipPath2)"/>
    </g>
    <g font-size="14px" stroke-linecap="butt" transform="matrix(1,0,0,1,-351,-271)" text-rendering="geometricPrecision" font-family="sans-serif" shape-rendering="geometricPrecision" stroke-miterlimit="1.45">
      <text x="370.8051" xml:space="preserve" y="348.9103" clip-path="url(#clipPath2)" stroke="none">conf { filters[] }</text>
    </g>
    <g fill="white" text-rendering="geometricPrecision" shape-rendering="geometricPrecision" transform="matrix(1,0,0,1,-351,-271)" stroke="white">
      <rect x="795.7955" width="60" height="40" y="426" clip-path="url(#clipPath2)" stroke="none"/>
    </g>
    <g stroke-linecap="butt" transform="matrix(1,0,0,1,-351,-271)" fill="gray" text-rendering="geometricPrecision" shape-rendering="geometricPrecision" stroke="gray" stroke-miterlimit="1.45">
      <rect fill="none" x="795.7955" width="60" height="40" y="426" clip-path="url(#clipPath2)"/>
    </g>
    <g font-size="14px" stroke-linecap="butt" transform="matrix(1,0,0,1,-351,-271)" text-rendering="geometricPrecision" font-family="sans-serif" shape-rendering="geometricPrecision" stroke-miterlimit="1.45">
      <text x="804.849" xml:space="preserve" y="441.9003" clip-path="url(#clipPath2)" stroke="none">proxy-</text>
      <text x="814.7136" xml:space="preserve" y="460.9578" clip-path="url(#clipPath2)" stroke="none">out</text>
    </g>
    <g fill="white" text-rendering="geometricPrecision" shape-rendering="geometricPrecision" transform="matrix(1,0,0,1,-351,-271)" stroke="white">
      <rect x="466.9916" width="60" height="40" y="426" clip-path="url(#clipPath2)" stroke="none"/>
    </g>
    <g stroke-linecap="butt" transform="matrix(1,0,0,1,-351,-271)" fill="gray" text-rendering="geometricPrecision" shape-rendering="geometricPrecision" stroke="gray" stroke-miterlimit="1.45">
      <rect fill="none" x="466.9916" width="60" height="40" y="426" clip-path="url(#clipPath2)"/>
    </g>
    <g font-size="14px" stroke-linecap="butt" transform="matrix(1,0,0,1,-351,-271)" text-rendering="geometricPrecision" font-family="sans-serif" shape-rendering="geometricPrecision" stroke-miterlimit="1.45">
      <text x="476.0451" xml:space="preserve" y="441.9003" clip-path="url(#clipPath2)" stroke="none">proxy-</text>
      <text x="490.863" xml:space="preserve" y="460.9578" clip-path="url(#clipPath2)" stroke="none">in</text>
    </g>
    <g stroke-linecap="butt" transform="matrix(1,0,0,1,-351,-271)" fill="gray" text-rendering="geometricPrecision" shape-rendering="geometricPrecision" stroke="gray" stroke-miterlimit="1.45">
      <path fill="none" d="M630.743 297.5 L419.2325 297.5 L419.2325 325.4128" clip-path="url(#clipPath2)"/>
    </g>
    <g stroke-linecap="butt" transform="matrix(1,0,0,1,-351,-271)" fill="gray" text-rendering="geometricPrecision" shape-rendering="geometricPrecision" stroke="gray" stroke-miterlimit="1.45">
      <path d="M419.2325 333.4128 L424.2325 321.4128 L419.2325 324.4128 L414.2325 321.4128 Z" stroke="none" clip-path="url(#clipPath2)"/>
      <path fill="none" d="M419.2325 353.5146 L419.2325 367.9561" clip-path="url(#clipPath2)"/>
      <path d="M419.2325 375.9561 L424.2325 363.9561 L419.2325 366.9561 L414.2325 363.9561 Z" clip-path="url(#clipPath2)" stroke="none"/>
      <path fill="none" d="M690.7688 437.5 L787.7698 437.5" clip-path="url(#clipPath2)" stroke="rgb(51,102,255)"/>
      <path fill="rgb(51,102,255)" d="M795.7698 437.5 L783.7698 432.5 L786.7698 437.5 L783.7698 442.5 Z" clip-path="url(#clipPath2)" stroke="none"/>
      <path fill="none" d="M825.7955 425.9707 L825.7955 306 L698.7688 306" clip-path="url(#clipPath2)" stroke="rgb(51,102,255)"/>
      <path fill="rgb(51,102,255)" d="M690.7688 306 L702.7688 311 L699.7688 306 L702.7688 301 Z" clip-path="url(#clipPath2)" stroke="none"/>
      <path fill="none" d="M419.2325 416 L419.2325 446 L458.945 446" clip-path="url(#clipPath2)" stroke="rgb(51,102,255)"/>
      <path fill="rgb(51,102,255)" d="M466.945 446 L454.945 441 L457.945 446 L454.945 451 Z" clip-path="url(#clipPath2)" stroke="none"/>
      <path fill="none" d="M630.7426 314.5 L523.5693 314.5 L523.5693 417.9728" clip-path="url(#clipPath2)" stroke="rgb(51,102,255)"/>
      <path fill="rgb(51,102,255)" d="M523.5693 425.9728 L528.5693 413.9728 L523.5693 416.9728 L518.5693 413.9728 Z" clip-path="url(#clipPath2)" stroke="none"/>
      <path fill="none" stroke-dasharray="6,2" d="M526.9916 437.5 L622.7435 437.5" clip-path="url(#clipPath2)" stroke="rgb(51,102,255)"/>
      <path fill="rgb(51,102,255)" stroke-dasharray="6,2" d="M630.7435 437.5 L618.7435 432.5 L621.7435 437.5 L618.7435 442.5 Z" clip-path="url(#clipPath2)" stroke="none"/>
    </g>
    <g fill="rgb(104,176,227)" text-rendering="geometricPrecision" shape-rendering="geometricPrecision" transform="matrix(1,0,0,1,-351,-271)" stroke="rgb(104,176,227)">
      <path d="M533.1469 474.5 L533.1469 564.835 L788.2821 564.835 L788.2821 474.5 ZM534.1469 496.5 L534.1469 563.835 L787.2821 563.835 L787.2821 496.5 Z" fill-rule="evenodd" clip-path="url(#clipPath2)" stroke="none"/>
    </g>
    <g stroke-linecap="butt" transform="matrix(1,0,0,1,-351,-271)" fill="white" text-rendering="geometricPrecision" font-family="sans-serif" shape-rendering="geometricPrecision" stroke="white" stroke-miterlimit="1.45">
      <text x="535.1469" xml:space="preserve" y="489.321" clip-path="url(#clipPath2)" stroke="none">Tunnel Mode</text>
    </g>
    <g fill="white" text-rendering="geometricPrecision" shape-rendering="geometricPrecision" transform="matrix(1,0,0,1,-351,-271)" stroke="white">
      <rect x="548.1469" width="60" height="40" y="509.835" clip-path="url(#clipPath2)" stroke="none"/>
    </g>
    <g stroke-linecap="butt" transform="matrix(1,0,0,1,-351,-271)" fill="gray" text-rendering="geometricPrecision" shape-rendering="geometricPrecision" stroke="gray" stroke-miterlimit="1.45">
      <rect fill="none" x="548.1469" width="60" height="40" y="509.835" clip-path="url(#clipPath2)"/>
    </g>
    <g font-size="14px" stroke-linecap="butt" transform="matrix(1,0,0,1,-351,-271)" text-rendering="geometricPrecision" font-family="sans-serif" shape-rendering="geometricPrecision" stroke-miterlimit="1.45">
      <text x="554.423" xml:space="preserve" y="535.264" clip-path="url(#clipPath2)" stroke="none">resolve</text>
    </g>
    <g fill="white" text-rendering="geometricPrecision" shape-rendering="geometricPrecision" transform="matrix(1,0,0,1,-351,-271)" stroke="white">
      <rect x="630.7688" width="60" height="40" y="509.835" clip-path="url(#clipPath2)" stroke="none"/>
    </g>
    <g stroke-linecap="butt" transform="matrix(1,0,0,1,-351,-271)" fill="gray" text-rendering="geometricPrecision" shape-rendering="geometricPrecision" stroke="gray" stroke-miterlimit="1.45">
      <rect fill="none" x="630.7688" width="60" height="40" y="509.835" clip-path="url(#clipPath2)"/>
    </g>
    <g font-size="14px" stroke-linecap="butt" transform="matrix(1,0,0,1,-351,-271)" text-rendering="geometricPrecision" font-family="sans-serif" shape-rendering="geometricPrecision" stroke-miterlimit="1.45">
      <text x="634.7011" xml:space="preserve" y="535.264" clip-path="url(#clipPath2)" stroke="none">connect</text>
    </g>
    <g fill="white" text-rendering="geometricPrecision" shape-rendering="geometricPrecision" transform="matrix(1,0,0,1,-351,-271)" stroke="white">
      <rect x="713.2821" width="60" height="40" y="509.835" clip-path="url(#clipPath2)" stroke="none"/>
    </g>
    <g stroke-linecap="butt" transform="matrix(1,0,0,1,-351,-271)" fill="gray" text-rendering="geometricPrecision" shape-rendering="geometricPrecision" stroke="gray" stroke-miterlimit="1.45">
      <rect fill="none" x="713.2821" width="60" height="40" y="509.835" clip-path="url(#clipPath2)"/>
    </g>
    <g font-size="14px" stroke-linecap="butt" transform="matrix(1,0,0,1,-351,-271)" text-rendering="geometricPrecision" font-family="sans-serif" shape-rendering="geometricPrecision" stroke-miterlimit="1.45">
      <text x="737.2444" xml:space="preserve" y="535.264" clip-path="url(#clipPath2)" stroke="none">io</text>
    </g>
    <g stroke-linecap="butt" transform="matrix(1,0,0,1,-351,-271)" fill="rgb(51,102,255)" text-rendering="geometricPrecision" shape-rendering="geometricPrecision" stroke-dasharray="6,2" stroke="rgb(51,102,255)" stroke-miterlimit="1.45">
      <path fill="none" d="M526.9916 454.5 L578.1469 454.5 L578.1469 501.808" clip-path="url(#clipPath2)"/>
      <path d="M578.1469 509.808 L583.1469 497.808 L578.1469 500.808 L573.1469 497.808 Z" clip-path="url(#clipPath2)" stroke="none"/>
      <path fill="none" stroke-dasharray="none" d="M579.8109 549.835 L579.8109 566.9109" clip-path="url(#clipPath2)"/>
      <path stroke-dasharray="none" d="M579.8109 574.9109 L584.8109 562.9109 L579.8109 565.9109 L574.8109 562.9109 Z" clip-path="url(#clipPath2)" stroke="none"/>
      <path fill="none" stroke-dasharray="none" d="M608.1469 529.835 L622.7246 529.835" clip-path="url(#clipPath2)"/>
      <path stroke-dasharray="none" d="M630.7246 529.835 L618.7246 524.835 L621.7246 529.835 L618.7246 534.835 Z" clip-path="url(#clipPath2)" stroke="none"/>
      <path fill="none" stroke-dasharray="none" d="M660.7688 549.835 L660.7688 594.96 L694.1696 594.96" clip-path="url(#clipPath2)"/>
      <path stroke-dasharray="none" d="M702.1696 594.96 L690.1696 589.96 L693.1696 594.96 L690.1696 599.96 Z" clip-path="url(#clipPath2)" stroke="none"/>
      <path fill="none" stroke-dasharray="none" d="M690.7688 529.835 L705.2382 529.835" clip-path="url(#clipPath2)"/>
      <path stroke-dasharray="none" d="M713.2382 529.835 L701.2382 524.835 L704.2382 529.835 L701.2382 534.835 Z" clip-path="url(#clipPath2)" stroke="none"/>
      <path fill="none" stroke-dasharray="none" d="M729.7821 574.9109 L729.7821 557.835" clip-path="url(#clipPath2)"/>
      <path stroke-dasharray="none" d="M729.7821 549.835 L724.7821 561.835 L729.7821 558.835 L734.7821 561.835 Z" clip-path="url(#clipPath2)" stroke="none"/>
      <path fill="none" stroke-dasharray="none" d="M743.2821 509.808 L743.2821 454.5 L787.7698 454.5" clip-path="url(#clipPath2)"/>
      <path stroke-dasharray="none" d="M795.7698 454.5 L783.7698 449.5 L786.7698 454.5 L783.7698 459.5 Z" clip-path="url(#clipPath2)" stroke="none"/>
      <path fill="none" stroke-dasharray="none" d="M756.7821 549.835 L756.7821 566.9109" clip-path="url(#clipPath2)"/>
      <path stroke-dasharray="none" d="M756.7821 574.9109 L761.7821 562.9109 L756.7821 565.9109 L751.7821 562.9109 Z" clip-path="url(#clipPath2)" stroke="none"/>
    </g>
  </g>
</svg>
