<?xml version="1.0" encoding="UTF-8"?><svg xmlns="http://www.w3.org/2000/svg" xmlns:xlink="http://www.w3.org/1999/xlink" fill-opacity="1" color-rendering="auto" color-interpolation="auto" text-rendering="auto" stroke="black" stroke-linecap="square" width="1325" stroke-miterlimit="10" shape-rendering="auto" stroke-opacity="1" fill="black" stroke-dasharray="none" font-weight="normal" stroke-width="1" height="456" font-family="'Dialog'" font-style="normal" stroke-linejoin="miter" font-size="12px" stroke-dashoffset="0" image-rendering="auto">
  <!--Generated by ySVG 2.5-->
  <defs id="genericDefs"/>
  <g>
    <defs id="defs1">
      <clipPath clipPathUnits="userSpaceOnUse" id="clipPath1">
        <path d="M0 0 L1325 0 L1325 456 L0 456 L0 0 Z"/>
      </clipPath>
      <clipPath clipPathUnits="userSpaceOnUse" id="clipPath2">
        <path d="M100 140 L1425 140 L1425 596 L100 596 L100 140 Z"/>
      </clipPath>
    </defs>
    <g fill="white" text-rendering="geometricPrecision" shape-rendering="geometricPrecision" transform="translate(-100,-140)" stroke="white">
      <rect x="100" width="1325" height="456" y="140" clip-path="url(#clipPath2)" stroke="none"/>
    </g>
    <g fill="rgb(104,176,227)" text-rendering="geometricPrecision" shape-rendering="geometricPrecision" transform="matrix(1,0,0,1,-100,-140)" stroke="rgb(104,176,227)">
      <path d="M507.2419 425 L507.2419 515.335 L1145.6892 515.335 L1145.6892 425 ZM508.2419 447 L508.2419 514.335 L1144.6892 514.335 L1144.6892 447 Z" fill-rule="evenodd" clip-path="url(#clipPath2)" stroke="none"/>
    </g>
    <g stroke-linecap="butt" transform="matrix(1,0,0,1,-100,-140)" fill="white" text-rendering="geometricPrecision" font-family="sans-serif" shape-rendering="geometricPrecision" stroke="white" stroke-miterlimit="1.45">
      <text x="509.2419" xml:space="preserve" y="439.821" clip-path="url(#clipPath2)" stroke="none">SSL Mode</text>
    </g>
    <g fill="white" text-rendering="geometricPrecision" shape-rendering="geometricPrecision" transform="matrix(1,0,0,1,-100,-140)" stroke="white">
      <rect x="522.2419" width="60" height="40" y="460.335" clip-path="url(#clipPath2)" stroke="none"/>
    </g>
    <g stroke-linecap="butt" transform="matrix(1,0,0,1,-100,-140)" fill="gray" text-rendering="geometricPrecision" shape-rendering="geometricPrecision" stroke="gray" stroke-miterlimit="1.45">
      <rect fill="none" x="522.2419" width="60" height="40" y="460.335" clip-path="url(#clipPath2)"/>
      <text x="543.019" y="476.821" clip-path="url(#clipPath2)" fill="black" font-family="sans-serif" stroke="none" xml:space="preserve">ssl-</text>
      <text x="540.4584" y="493.156" clip-path="url(#clipPath2)" fill="black" font-family="sans-serif" stroke="none" xml:space="preserve">recv</text>
    </g>
    <g fill="white" text-rendering="geometricPrecision" shape-rendering="geometricPrecision" transform="matrix(1,0,0,1,-100,-140)" stroke="white">
      <rect x="599.4987" width="60" height="40" y="460.335" clip-path="url(#clipPath2)" stroke="none"/>
    </g>
    <g stroke-linecap="butt" transform="matrix(1,0,0,1,-100,-140)" fill="gray" text-rendering="geometricPrecision" shape-rendering="geometricPrecision" stroke="gray" stroke-miterlimit="1.45">
      <rect fill="none" x="599.4987" width="60" height="40" y="460.335" clip-path="url(#clipPath2)"/>
      <text x="620.2758" y="476.821" clip-path="url(#clipPath2)" fill="black" font-family="sans-serif" stroke="none" xml:space="preserve">ssl-</text>
      <text x="607.3349" y="493.156" clip-path="url(#clipPath2)" fill="black" font-family="sans-serif" stroke="none" xml:space="preserve">h-shake</text>
    </g>
    <g fill="white" text-rendering="geometricPrecision" shape-rendering="geometricPrecision" transform="matrix(1,0,0,1,-100,-140)" stroke="white">
      <rect x="676.251" width="60" height="40" y="460.335" clip-path="url(#clipPath2)" stroke="none"/>
    </g>
    <g stroke-linecap="butt" transform="matrix(1,0,0,1,-100,-140)" fill="gray" text-rendering="geometricPrecision" shape-rendering="geometricPrecision" stroke="gray" stroke-miterlimit="1.45">
      <rect fill="none" x="676.251" width="60" height="40" y="460.335" clip-path="url(#clipPath2)"/>
      <text x="697.028" y="476.821" clip-path="url(#clipPath2)" fill="black" font-family="sans-serif" stroke="none" xml:space="preserve">ssl-</text>
      <text x="692.6025" y="493.156" clip-path="url(#clipPath2)" fill="black" font-family="sans-serif" stroke="none" xml:space="preserve">send</text>
    </g>
    <g fill="white" text-rendering="geometricPrecision" shape-rendering="geometricPrecision" transform="matrix(1,0,0,1,-100,-140)" stroke="white">
      <rect x="839.2701" width="60" height="40" y="460.335" clip-path="url(#clipPath2)" stroke="none"/>
    </g>
    <g stroke-linecap="butt" transform="matrix(1,0,0,1,-100,-140)" fill="gray" text-rendering="geometricPrecision" shape-rendering="geometricPrecision" stroke="gray" stroke-miterlimit="1.45">
      <rect fill="none" x="839.2701" width="60" height="40" y="460.335" clip-path="url(#clipPath2)"/>
      <text x="850.5004" y="484.9885" clip-path="url(#clipPath2)" fill="black" font-family="sans-serif" stroke="none" xml:space="preserve">ssl-req</text>
    </g>
    <g fill="white" text-rendering="geometricPrecision" shape-rendering="geometricPrecision" transform="matrix(1,0,0,1,-100,-140)" stroke="white">
      <rect x="1070.6892" width="60" height="40" y="460.335" clip-path="url(#clipPath2)" stroke="none"/>
    </g>
    <g stroke-linecap="butt" transform="matrix(1,0,0,1,-100,-140)" fill="gray" text-rendering="geometricPrecision" shape-rendering="geometricPrecision" stroke="gray" stroke-miterlimit="1.45">
      <rect fill="none" x="1070.6892" width="60" height="40" y="460.335" clip-path="url(#clipPath2)"/>
      <text x="1079.0471" y="484.9885" clip-path="url(#clipPath2)" fill="black" font-family="sans-serif" stroke="none" xml:space="preserve">ssl-resp</text>
    </g>
    <g fill="white" text-rendering="geometricPrecision" shape-rendering="geometricPrecision" transform="matrix(1,0,0,1,-100,-140)" stroke="white">
      <rect x="993.4892" width="60" height="40" y="460.335" clip-path="url(#clipPath2)" stroke="none"/>
    </g>
    <g stroke-linecap="butt" transform="matrix(1,0,0,1,-100,-140)" fill="gray" text-rendering="geometricPrecision" shape-rendering="geometricPrecision" stroke="gray" stroke-miterlimit="1.45">
      <rect fill="none" x="993.4892" width="60" height="40" y="460.335" clip-path="url(#clipPath2)"/>
      <text x="1014.2662" y="476.821" clip-path="url(#clipPath2)" fill="black" font-family="sans-serif" stroke="none" xml:space="preserve">ssl-</text>
      <text x="1011.7056" y="493.156" clip-path="url(#clipPath2)" fill="black" font-family="sans-serif" stroke="none" xml:space="preserve">recv</text>
    </g>
    <g fill="white" text-rendering="geometricPrecision" shape-rendering="geometricPrecision" transform="matrix(1,0,0,1,-100,-140)" stroke="white">
      <rect x="920.7796" width="60" height="40" y="460.335" clip-path="url(#clipPath2)" stroke="none"/>
    </g>
    <g stroke-linecap="butt" transform="matrix(1,0,0,1,-100,-140)" fill="gray" text-rendering="geometricPrecision" shape-rendering="geometricPrecision" stroke="gray" stroke-miterlimit="1.45">
      <rect fill="none" x="920.7796" width="60" height="40" y="460.335" clip-path="url(#clipPath2)"/>
      <text x="941.5567" y="476.821" clip-path="url(#clipPath2)" fill="black" font-family="sans-serif" stroke="none" xml:space="preserve">ssl-</text>
      <text x="937.1311" y="493.156" clip-path="url(#clipPath2)" fill="black" font-family="sans-serif" stroke="none" xml:space="preserve">send</text>
    </g>
    <g fill="white" text-rendering="geometricPrecision" shape-rendering="geometricPrecision" transform="matrix(1,0,0,1,-100,-140)" stroke="white">
      <rect x="284.5527" width="60" height="40" y="295" clip-path="url(#clipPath2)" stroke="none"/>
    </g>
    <g stroke-linecap="butt" transform="matrix(1,0,0,1,-100,-140)" fill="gray" text-rendering="geometricPrecision" shape-rendering="geometricPrecision" stroke="gray" stroke-miterlimit="1.45">
      <rect fill="none" x="284.5527" width="60" height="40" y="295" clip-path="url(#clipPath2)"/>
      <text x="294.2179" y="319.6534" clip-path="url(#clipPath2)" fill="black" font-family="sans-serif" stroke="none" xml:space="preserve">resolve</text>
    </g>
    <g fill="white" text-rendering="geometricPrecision" shape-rendering="geometricPrecision" transform="matrix(1,0,0,1,-100,-140)" stroke="white">
      <rect x="443.3973" width="60" height="40" y="295" clip-path="url(#clipPath2)" stroke="none"/>
    </g>
    <g stroke-linecap="butt" transform="matrix(1,0,0,1,-100,-140)" fill="gray" text-rendering="geometricPrecision" shape-rendering="geometricPrecision" stroke="gray" stroke-miterlimit="1.45">
      <rect fill="none" x="443.3973" width="60" height="40" y="295" clip-path="url(#clipPath2)"/>
      <text x="451.0536" y="319.6534" clip-path="url(#clipPath2)" fill="black" font-family="sans-serif" stroke="none" xml:space="preserve">connect</text>
    </g>
    <g fill="white" text-rendering="geometricPrecision" shape-rendering="geometricPrecision" transform="matrix(1,0,0,1,-100,-140)" stroke="white">
      <rect x="227.2086" width="57.3442" height="40" y="232" clip-path="url(#clipPath2)" stroke="none"/>
    </g>
    <g stroke-linecap="butt" transform="matrix(1,0,0,1,-100,-140)" fill="gray" text-rendering="geometricPrecision" shape-rendering="geometricPrecision" stroke="gray" stroke-miterlimit="1.45">
      <rect fill="none" x="227.2086" width="57.3442" height="40" y="232" clip-path="url(#clipPath2)"/>
    </g>
    <g stroke-linecap="butt" transform="matrix(1,0,0,1,-100,-140)" text-rendering="geometricPrecision" font-family="sans-serif" shape-rendering="geometricPrecision" font-weight="bold" stroke-miterlimit="1.45">
      <text x="240.5831" xml:space="preserve" y="248.4859" clip-path="url(#clipPath2)" stroke="none">HTTP</text>
      <text x="238.3163" xml:space="preserve" y="264.821" clip-path="url(#clipPath2)" stroke="none">Client</text>
    </g>
    <g fill="white" text-rendering="geometricPrecision" shape-rendering="geometricPrecision" transform="matrix(1,0,0,1,-100,-140)" stroke="white">
      <rect x="799.8478" width="60" height="40" y="295" clip-path="url(#clipPath2)" stroke="none"/>
    </g>
    <g stroke-linecap="butt" transform="matrix(1,0,0,1,-100,-140)" fill="gray" text-rendering="geometricPrecision" shape-rendering="geometricPrecision" stroke="gray" stroke-miterlimit="1.45">
      <rect fill="none" x="799.8478" width="60" height="40" y="295" clip-path="url(#clipPath2)"/>
      <text x="814.6821" y="311.4859" clip-path="url(#clipPath2)" fill="black" font-family="sans-serif" stroke="none" xml:space="preserve">prep-</text>
      <text x="808.1757" y="327.821" clip-path="url(#clipPath2)" fill="black" font-family="sans-serif" stroke="none" xml:space="preserve">request</text>
    </g>
    <g fill="white" text-rendering="geometricPrecision" shape-rendering="geometricPrecision" transform="matrix(1,0,0,1,-100,-140)" stroke="white">
      <rect x="916.7796" width="60" height="40" y="295" clip-path="url(#clipPath2)" stroke="none"/>
    </g>
    <g stroke-linecap="butt" transform="matrix(1,0,0,1,-100,-140)" fill="gray" text-rendering="geometricPrecision" shape-rendering="geometricPrecision" stroke="gray" stroke-miterlimit="1.45">
      <rect fill="none" x="916.7796" width="60" height="40" y="295" clip-path="url(#clipPath2)"/>
      <text x="931.2002" y="311.4859" clip-path="url(#clipPath2)" fill="black" font-family="sans-serif" stroke="none" xml:space="preserve">send-</text>
      <text x="925.1075" y="327.821" clip-path="url(#clipPath2)" fill="black" font-family="sans-serif" stroke="none" xml:space="preserve">request</text>
    </g>
    <g fill="white" text-rendering="geometricPrecision" shape-rendering="geometricPrecision" transform="matrix(1,0,0,1,-100,-140)" stroke="white">
      <rect x="993.4892" width="60" height="40" y="295" clip-path="url(#clipPath2)" stroke="none"/>
    </g>
    <g stroke-linecap="butt" transform="matrix(1,0,0,1,-100,-140)" fill="gray" text-rendering="geometricPrecision" shape-rendering="geometricPrecision" stroke="gray" stroke-miterlimit="1.45">
      <rect fill="none" x="993.4892" width="60" height="40" y="295" clip-path="url(#clipPath2)"/>
      <text x="1009.7747" y="311.4859" clip-path="url(#clipPath2)" fill="black" font-family="sans-serif" stroke="none" xml:space="preserve">recv-</text>
      <text x="997.4814" y="327.821" clip-path="url(#clipPath2)" fill="black" font-family="sans-serif" stroke="none" xml:space="preserve">response</text>
    </g>
    <g fill="white" text-rendering="geometricPrecision" shape-rendering="geometricPrecision" transform="matrix(1,0,0,1,-100,-140)" stroke="white">
      <rect x="1113.2046" width="60" height="40" y="295" clip-path="url(#clipPath2)" stroke="none"/>
    </g>
    <g stroke-linecap="butt" transform="matrix(1,0,0,1,-100,-140)" fill="gray" text-rendering="geometricPrecision" shape-rendering="geometricPrecision" stroke="gray" stroke-miterlimit="1.45">
      <rect fill="none" x="1113.2046" width="60" height="40" y="295" clip-path="url(#clipPath2)"/>
      <text x="1125.4904" y="311.4859" clip-path="url(#clipPath2)" fill="black" font-family="sans-serif" stroke="none" xml:space="preserve">parse-</text>
      <text x="1117.1969" y="327.821" clip-path="url(#clipPath2)" fill="black" font-family="sans-serif" stroke="none" xml:space="preserve">response</text>
    </g>
    <g fill="white" text-rendering="geometricPrecision" shape-rendering="geometricPrecision" transform="matrix(1,0,0,1,-100,-140)" stroke="white">
      <rect x="1192.0492" width="60" height="40" y="295" clip-path="url(#clipPath2)" stroke="none"/>
    </g>
    <g stroke-linecap="butt" transform="matrix(1,0,0,1,-100,-140)" fill="gray" text-rendering="geometricPrecision" shape-rendering="geometricPrecision" stroke="gray" stroke-miterlimit="1.45">
      <rect fill="none" x="1192.0492" width="60" height="40" y="295" clip-path="url(#clipPath2)"/>
      <text x="1214.8651" y="311.4859" clip-path="url(#clipPath2)" fill="black" font-family="sans-serif" stroke="none" xml:space="preserve">in-</text>
      <text x="1199.5436" y="327.821" clip-path="url(#clipPath2)" fill="black" font-family="sans-serif" stroke="none" xml:space="preserve">transfer</text>
    </g>
    <g fill="rgb(255,255,204)" text-rendering="geometricPrecision" shape-rendering="geometricPrecision" transform="matrix(1,0,0,1,-100,-140)" stroke="rgb(255,255,204)">
      <path d="M752.2124 552.335 Q752.2124 540.335 764.2124 540.335 L826.3566 540.335 Q838.3566 540.335 838.3566 552.335 L838.3566 568.335 Q838.3566 580.335 826.3566 580.335 L764.2124 580.335 Q752.2124 580.335 752.2124 568.335 Z" stroke="none" clip-path="url(#clipPath2)"/>
    </g>
    <g stroke-linecap="butt" transform="matrix(1,0,0,1,-100,-140)" fill="gray" text-rendering="geometricPrecision" shape-rendering="geometricPrecision" stroke="gray" stroke-miterlimit="1.45">
      <path fill="none" d="M752.2124 552.335 Q752.2124 540.335 764.2124 540.335 L826.3566 540.335 Q838.3566 540.335 838.3566 552.335 L838.3566 568.335 Q838.3566 580.335 826.3566 580.335 L764.2124 580.335 Q752.2124 580.335 752.2124 568.335 Z" clip-path="url(#clipPath2)"/>
      <text x="777.2524" y="556.8209" clip-path="url(#clipPath2)" fill="black" font-family="sans-serif" stroke="none" xml:space="preserve">HTTPS</text>
      <text x="777.2284" y="573.156" clip-path="url(#clipPath2)" fill="black" font-family="sans-serif" stroke="none" xml:space="preserve">Server</text>
    </g>
    <g fill="rgb(255,255,204)" text-rendering="geometricPrecision" shape-rendering="geometricPrecision" transform="matrix(1,0,0,1,-100,-140)" stroke="rgb(255,255,204)">
      <path d="M285.8806 372 Q285.8806 360 297.8806 360 L331.2248 360 Q343.2248 360 343.2248 372 L343.2248 388 Q343.2248 400 331.2248 400 L297.8806 400 Q285.8806 400 285.8806 388 Z" stroke="none" clip-path="url(#clipPath2)"/>
    </g>
    <g stroke-linecap="butt" transform="matrix(1,0,0,1,-100,-140)" fill="gray" text-rendering="geometricPrecision" shape-rendering="geometricPrecision" stroke="gray" stroke-miterlimit="1.45">
      <path fill="none" d="M285.8806 372 Q285.8806 360 297.8806 360 L331.2248 360 Q343.2248 360 343.2248 372 L343.2248 388 Q343.2248 400 331.2248 400 L297.8806 400 Q285.8806 400 285.8806 388 Z" clip-path="url(#clipPath2)"/>
      <text x="302.3254" y="376.4859" clip-path="url(#clipPath2)" fill="black" font-family="sans-serif" stroke="none" xml:space="preserve">DNS</text>
      <text x="296.4966" y="392.821" clip-path="url(#clipPath2)" fill="black" font-family="sans-serif" stroke="none" xml:space="preserve">Server</text>
    </g>
    <g fill="white" text-rendering="geometricPrecision" shape-rendering="geometricPrecision" transform="matrix(1,0,0,1,-100,-140)" stroke="white">
      <rect x="1270.8938" width="60" height="40" y="295" clip-path="url(#clipPath2)" stroke="none"/>
    </g>
    <g stroke-linecap="butt" transform="matrix(1,0,0,1,-100,-140)" fill="gray" text-rendering="geometricPrecision" shape-rendering="geometricPrecision" stroke-dasharray="6,2" stroke="gray" stroke-miterlimit="1.45">
      <rect fill="none" x="1270.8938" width="60" height="40" y="295" clip-path="url(#clipPath2)"/>
    </g>
    <g text-rendering="geometricPrecision" stroke-miterlimit="1.45" shape-rendering="geometricPrecision" font-family="sans-serif" transform="matrix(1,0,0,1,-100,-140)" stroke-linecap="butt">
      <text x="1278.8978" xml:space="preserve" y="319.6534" clip-path="url(#clipPath2)" stroke="none">redirect</text>
    </g>
    <g fill="white" text-rendering="geometricPrecision" shape-rendering="geometricPrecision" transform="matrix(1,0,0,1,-100,-140)" stroke="white">
      <rect x="721.0032" width="60" height="40" y="295" clip-path="url(#clipPath2)" stroke="none"/>
    </g>
    <g stroke-linecap="butt" transform="matrix(1,0,0,1,-100,-140)" fill="red" text-rendering="geometricPrecision" shape-rendering="geometricPrecision" stroke-dasharray="6,2" stroke="red" stroke-miterlimit="1.45">
      <rect fill="none" x="721.0032" width="60" height="40" y="295" clip-path="url(#clipPath2)"/>
    </g>
    <g text-rendering="geometricPrecision" stroke-miterlimit="1.45" shape-rendering="geometricPrecision" font-family="sans-serif" transform="matrix(1,0,0,1,-100,-140)" stroke-linecap="butt">
      <text x="739.5735" xml:space="preserve" y="311.4859" clip-path="url(#clipPath2)" stroke="none">out-</text>
      <text x="728.4976" xml:space="preserve" y="327.821" clip-path="url(#clipPath2)" stroke="none">transfer</text>
    </g>
    <g fill="white" text-rendering="geometricPrecision" shape-rendering="geometricPrecision" transform="matrix(1,0,0,1,-100,-140)" stroke="white">
      <rect x="203.1728" width="105.4156" height="20.0667" y="175.8958" clip-path="url(#clipPath2)" stroke="none"/>
    </g>
    <g stroke-linecap="butt" transform="matrix(1,0,0,1,-100,-140)" fill="gray" text-rendering="geometricPrecision" shape-rendering="geometricPrecision" stroke="gray" stroke-miterlimit="1.45">
      <rect fill="none" x="203.1728" width="105.4156" height="20.0667" y="175.8958" clip-path="url(#clipPath2)"/>
      <text x="215.223" y="190.5826" clip-path="url(#clipPath2)" fill="black" font-family="sans-serif" stroke="none" xml:space="preserve">conf { chain[] }</text>
    </g>
    <g fill="white" text-rendering="geometricPrecision" shape-rendering="geometricPrecision" transform="matrix(1,0,0,1,-100,-140)" stroke="white">
      <path d="M115.8286 177.9292 Q115.8286 165.9292 127.8286 165.9292 L161.1728 165.9292 Q173.1728 165.9292 173.1728 177.9292 L173.1728 193.9292 Q173.1728 205.9292 161.1728 205.9292 L127.8286 205.9292 Q115.8286 205.9292 115.8286 193.9292 Z" stroke="none" clip-path="url(#clipPath2)"/>
    </g>
    <g stroke-linecap="butt" transform="matrix(1,0,0,1,-100,-140)" fill="gray" text-rendering="geometricPrecision" shape-rendering="geometricPrecision" stroke="gray" stroke-miterlimit="1.45">
      <path fill="none" d="M115.8286 177.9292 Q115.8286 165.9292 127.8286 165.9292 L161.1728 165.9292 Q173.1728 165.9292 173.1728 177.9292 L173.1728 193.9292 Q173.1728 205.9292 161.1728 205.9292 L127.8286 205.9292 Q115.8286 205.9292 115.8286 193.9292 Z" clip-path="url(#clipPath2)"/>
    </g>
    <g stroke-linecap="butt" transform="matrix(1,0,0,1,-100,-140)" text-rendering="geometricPrecision" font-family="sans-serif" shape-rendering="geometricPrecision" font-weight="bold" stroke-miterlimit="1.45">
      <text x="130.7203" xml:space="preserve" y="190.5826" clip-path="url(#clipPath2)" stroke="none">User</text>
    </g>
    <g fill="white" text-rendering="geometricPrecision" shape-rendering="geometricPrecision" transform="matrix(1,0,0,1,-100,-140)" stroke="white">
      <rect x="1349.7383" width="60" height="40" y="295" clip-path="url(#clipPath2)" stroke="none"/>
    </g>
    <g stroke-linecap="butt" transform="matrix(1,0,0,1,-100,-140)" fill="gray" text-rendering="geometricPrecision" shape-rendering="geometricPrecision" stroke="gray" stroke-miterlimit="1.45">
      <rect fill="none" x="1349.7383" width="60" height="40" y="295" clip-path="url(#clipPath2)"/>
      <text x="1365.3702" y="311.4859" clip-path="url(#clipPath2)" fill="black" font-family="sans-serif" stroke="none" xml:space="preserve">user-</text>
      <text x="1361.2686" y="327.821" clip-path="url(#clipPath2)" fill="black" font-family="sans-serif" stroke="none" xml:space="preserve">bridge</text>
    </g>
    <g fill="white" text-rendering="geometricPrecision" shape-rendering="geometricPrecision" transform="matrix(1,0,0,1,-100,-140)" stroke="white">
      <path d="M599.4987 177.9292 Q599.4987 165.9292 611.4987 165.9292 L647.4987 165.9292 Q659.4987 165.9292 659.4987 177.9292 L659.4987 193.9292 Q659.4987 205.9292 647.4987 205.9292 L611.4987 205.9292 Q599.4987 205.9292 599.4987 193.9292 Z" stroke="none" clip-path="url(#clipPath2)"/>
    </g>
    <g stroke-linecap="butt" transform="matrix(1,0,0,1,-100,-140)" fill="gray" text-rendering="geometricPrecision" shape-rendering="geometricPrecision" stroke="gray" stroke-miterlimit="1.45">
      <path fill="none" d="M599.4987 177.9292 Q599.4987 165.9292 611.4987 165.9292 L647.4987 165.9292 Q659.4987 165.9292 659.4987 177.9292 L659.4987 193.9292 Q659.4987 205.9292 647.4987 205.9292 L611.4987 205.9292 Q599.4987 205.9292 599.4987 193.9292 Z" clip-path="url(#clipPath2)"/>
      <text x="619.7721" y="182.4151" clip-path="url(#clipPath2)" fill="black" font-family="sans-serif" stroke="none" xml:space="preserve">SSL</text>
      <text x="608.4023" y="198.7501" clip-path="url(#clipPath2)" fill="black" font-family="sans-serif" stroke="none" xml:space="preserve">context</text>
    </g>
    <g fill="white" text-rendering="geometricPrecision" shape-rendering="geometricPrecision" transform="matrix(1,0,0,1,-100,-140)" stroke="white">
      <path d="M363.975 177.9292 Q363.975 165.9292 375.975 165.9292 L411.975 165.9292 Q423.975 165.9292 423.975 177.9292 L423.975 193.9292 Q423.975 205.9292 411.975 205.9292 L375.975 205.9292 Q363.975 205.9292 363.975 193.9292 Z" stroke="none" clip-path="url(#clipPath2)"/>
    </g>
    <g stroke-linecap="butt" transform="matrix(1,0,0,1,-100,-140)" fill="gray" text-rendering="geometricPrecision" shape-rendering="geometricPrecision" stroke="gray" stroke-miterlimit="1.45">
      <path fill="none" d="M363.975 177.9292 Q363.975 165.9292 375.975 165.9292 L411.975 165.9292 Q423.975 165.9292 423.975 177.9292 L423.975 193.9292 Q423.975 205.9292 411.975 205.9292 L375.975 205.9292 Q363.975 205.9292 363.975 193.9292 Z" clip-path="url(#clipPath2)"/>
      <text x="379.1452" y="182.4151" clip-path="url(#clipPath2)" fill="black" font-family="sans-serif" stroke="none" xml:space="preserve">Conn</text>
      <text x="376.8544" y="198.7501" clip-path="url(#clipPath2)" fill="black" font-family="sans-serif" stroke="none" xml:space="preserve">Cache</text>
    </g>
    <g fill="white" text-rendering="geometricPrecision" shape-rendering="geometricPrecision" transform="matrix(1,0,0,1,-100,-140)" stroke="white">
      <rect x="363.975" width="60" height="40" y="295" clip-path="url(#clipPath2)" stroke="none"/>
    </g>
    <g stroke-linecap="butt" transform="matrix(1,0,0,1,-100,-140)" fill="gray" text-rendering="geometricPrecision" shape-rendering="geometricPrecision" stroke="gray" stroke-miterlimit="1.45">
      <rect fill="none" x="363.975" width="60" height="40" y="295" clip-path="url(#clipPath2)"/>
      <text x="371.6313" y="311.4859" clip-path="url(#clipPath2)" fill="black" font-family="sans-serif" stroke="none" xml:space="preserve">connect</text>
      <text x="377.7659" y="327.821" clip-path="url(#clipPath2)" fill="black" font-family="sans-serif" stroke="none" xml:space="preserve">cache</text>
    </g>
    <g fill="rgb(255,255,204)" text-rendering="geometricPrecision" shape-rendering="geometricPrecision" transform="matrix(1,0,0,1,-100,-140)" stroke="rgb(255,255,204)">
      <path d="M752.2124 372 Q752.2124 360 764.2124 360 L826.3566 360 Q838.3566 360 838.3566 372 L838.3566 388 Q838.3566 400 826.3566 400 L764.2124 400 Q752.2124 400 752.2124 388 Z" stroke="none" clip-path="url(#clipPath2)"/>
    </g>
    <g stroke-linecap="butt" transform="matrix(1,0,0,1,-100,-140)" fill="gray" text-rendering="geometricPrecision" shape-rendering="geometricPrecision" stroke="gray" stroke-miterlimit="1.45">
      <path fill="none" d="M752.2124 372 Q752.2124 360 764.2124 360 L826.3566 360 Q838.3566 360 838.3566 372 L838.3566 388 Q838.3566 400 826.3566 400 L764.2124 400 Q752.2124 400 752.2124 388 Z" clip-path="url(#clipPath2)"/>
      <text x="780.5446" y="376.4859" clip-path="url(#clipPath2)" fill="black" font-family="sans-serif" stroke="none" xml:space="preserve">HTTP</text>
      <text x="777.2284" y="392.821" clip-path="url(#clipPath2)" fill="black" font-family="sans-serif" stroke="none" xml:space="preserve">Server</text>
    </g>
    <g stroke-linecap="butt" transform="matrix(1,0,0,1,-100,-140)" fill="lime" text-rendering="geometricPrecision" shape-rendering="geometricPrecision" stroke="lime" stroke-miterlimit="1.45">
      <path fill="none" d="M582.2419 471.835 L591.465 471.835" clip-path="url(#clipPath2)"/>
    </g>
    <g stroke-linecap="butt" transform="matrix(1,0,0,1,-100,-140)" fill="lime" text-rendering="geometricPrecision" shape-rendering="geometricPrecision" stroke="lime" stroke-miterlimit="1.45">
      <path d="M599.465 471.835 L587.465 466.835 L590.465 471.835 L587.465 476.835 Z" stroke="none" clip-path="url(#clipPath2)"/>
      <path fill="none" d="M599.465 488.835 L590.2419 488.835" clip-path="url(#clipPath2)"/>
      <path d="M582.2419 488.835 L594.2419 493.835 L591.2419 488.835 L594.2419 483.835 Z" clip-path="url(#clipPath2)" stroke="none"/>
      <path fill="none" d="M659.4987 471.835 L668.2183 471.835" clip-path="url(#clipPath2)"/>
      <path d="M676.2183 471.835 L664.2183 466.835 L667.2183 471.835 L664.2183 476.835 Z" clip-path="url(#clipPath2)" stroke="none"/>
      <path fill="none" d="M676.2183 488.835 L667.4987 488.835" clip-path="url(#clipPath2)"/>
      <path d="M659.4987 488.835 L671.4987 493.835 L668.4987 488.835 L671.4987 483.835 Z" clip-path="url(#clipPath2)" stroke="none"/>
      <path fill="none" d="M1070.6555 488.835 L1061.4891 488.835" clip-path="url(#clipPath2)"/>
      <path d="M1053.4891 488.835 L1065.4891 493.835 L1062.4891 488.835 L1065.4891 483.835 Z" clip-path="url(#clipPath2)" stroke="none"/>
      <path fill="none" d="M1053.4891 471.835 L1062.6555 471.835" clip-path="url(#clipPath2)"/>
      <path d="M1070.6555 471.835 L1058.6555 466.835 L1061.6555 471.835 L1058.6555 476.835 Z" clip-path="url(#clipPath2)" stroke="none"/>
      <path fill="none" d="M899.2701 471.835 L912.7376 471.835" clip-path="url(#clipPath2)"/>
      <path d="M920.7376 471.835 L908.7376 466.835 L911.7376 471.835 L908.7376 476.835 Z" clip-path="url(#clipPath2)" stroke="none"/>
      <path fill="none" stroke-dasharray="6,2" d="M980.7796 480.335 L985.4395 480.335" clip-path="url(#clipPath2)"/>
      <path stroke-dasharray="6,2" d="M993.4395 480.335 L981.4395 475.335 L984.4395 480.335 L981.4395 485.335 Z" clip-path="url(#clipPath2)" stroke="none"/>
      <path fill="none" d="M920.7376 488.835 L907.2701 488.835" clip-path="url(#clipPath2)"/>
      <path d="M899.2701 488.835 L911.2701 493.835 L908.2701 488.835 L911.2701 483.835 Z" clip-path="url(#clipPath2)" stroke="none"/>
      <path fill="none" stroke-dasharray="6,2" d="M503.3973 323.5 L538.5 323.5 L552.2419 337.2419 L552.2419 452.305" clip-path="url(#clipPath2)"/>
      <path stroke-dasharray="6,2" d="M552.2419 460.305 L557.2419 448.305 L552.2419 451.305 L547.2419 448.305 Z" clip-path="url(#clipPath2)" stroke="none"/>
      <path fill="none" d="M284.5527 252 L300 252 L306.3027 258.3027 L306.3027 286.9642" clip-path="url(#clipPath2)" stroke="rgb(51,102,255)"/>
      <path fill="rgb(51,102,255)" d="M306.3027 294.9642 L311.3027 282.9642 L306.3027 285.9642 L301.3027 282.9642 Z" clip-path="url(#clipPath2)" stroke="none"/>
      <path fill="none" d="M852.6022 335 L852.6022 452.3044" clip-path="url(#clipPath2)"/>
      <path d="M852.6022 460.3044 L857.6022 448.3044 L852.6022 451.3044 L847.6022 448.3044 Z" clip-path="url(#clipPath2)" stroke="none"/>
      <path fill="none" d="M859.8478 315 L908.7518 315" clip-path="url(#clipPath2)" stroke="rgb(51,102,255)"/>
      <path fill="rgb(51,102,255)" d="M916.7518 315 L904.7518 310 L907.7518 315 L904.7518 320 Z" clip-path="url(#clipPath2)" stroke="none"/>
      <path fill="none" d="M976.7796 315 L985.4565 315" clip-path="url(#clipPath2)" stroke="rgb(51,102,255)"/>
      <path fill="rgb(51,102,255)" d="M993.4565 315 L981.4565 310 L984.4565 315 L981.4565 320 Z" clip-path="url(#clipPath2)" stroke="none"/>
      <path fill="none" d="M1053.4891 315 L1105.1754 315" clip-path="url(#clipPath2)" stroke="rgb(51,102,255)"/>
      <path fill="rgb(51,102,255)" d="M1113.1754 315 L1101.1754 310 L1104.1754 315 L1101.1754 320 Z" clip-path="url(#clipPath2)" stroke="none"/>
      <path fill="none" d="M1121.9469 460.3044 L1121.9469 343" clip-path="url(#clipPath2)"/>
      <path d="M1121.9469 335 L1116.9469 347 L1121.9469 344 L1126.9469 347 Z" clip-path="url(#clipPath2)" stroke="none"/>
      <path fill="none" d="M1173.2046 315 L1184.0123 315" clip-path="url(#clipPath2)" stroke="rgb(51,102,255)"/>
      <path fill="rgb(51,102,255)" d="M1192.0123 315 L1180.0123 310 L1183.0123 315 L1180.0123 320 Z" clip-path="url(#clipPath2)" stroke="none"/>
      <path fill="none" stroke-dasharray="6,2" d="M463.3455 335 L463.3455 549.3455 L485.6684 571.6683 L744.4611 571.6683" clip-path="url(#clipPath2)"/>
      <path stroke-dasharray="6,2" d="M752.4611 571.6683 L740.4611 566.6683 L743.4611 571.6683 L740.4611 576.6683 Z" clip-path="url(#clipPath2)" stroke="none"/>
      <path fill="none" d="M706.251 500.335 L706.251 535.251 L720.0017 549.0017 L744.4619 549.0017" clip-path="url(#clipPath2)"/>
      <path d="M752.4619 549.0017 L740.4619 544.0017 L743.4619 549.0017 L740.4619 554.0017 Z" clip-path="url(#clipPath2)" stroke="none"/>
      <path fill="none" d="M950.7796 500.335 L950.7796 537.2204 L936.165 551.835 L846.3566 551.835" clip-path="url(#clipPath2)"/>
      <path d="M838.3566 551.835 L850.3566 556.835 L847.3566 551.835 L850.3566 546.835 Z" clip-path="url(#clipPath2)" stroke="none"/>
      <path fill="none" d="M752.1677 560.335 L569.335 560.335 L552.2419 543.2419 L552.2419 508.335" clip-path="url(#clipPath2)"/>
      <path d="M552.2419 500.335 L547.2419 512.335 L552.2419 509.335 L557.2419 512.335 Z" clip-path="url(#clipPath2)" stroke="none"/>
      <path fill="none" d="M838.3566 568.835 L1003.165 568.835 L1023.4891 548.5109 L1023.4891 508.335" clip-path="url(#clipPath2)"/>
      <path d="M1023.4891 500.335 L1018.4891 512.335 L1023.4891 509.335 L1028.4891 512.335 Z" clip-path="url(#clipPath2)" stroke="none"/>
      <path fill="none" d="M314.5527 335 L314.5527 351.9512" clip-path="url(#clipPath2)" stroke="rgb(51,102,255)"/>
      <path fill="rgb(51,102,255)" d="M314.5527 359.9512 L319.5527 347.9512 L314.5527 350.9512 L309.5527 347.9512 Z" clip-path="url(#clipPath2)" stroke="none"/>
      <path fill="none" d="M1252.0492 315 L1262.8569 315" clip-path="url(#clipPath2)" stroke="rgb(51,102,255)"/>
      <path fill="rgb(51,102,255)" d="M1270.8569 315 L1258.8569 310 L1261.8569 315 L1258.8569 320 Z" clip-path="url(#clipPath2)" stroke="none"/>
      <path fill="none" stroke-dasharray="6,2" d="M1300.8938 294.9722 L1300.8938 287.8938 L1298 285 L329.8027 285 L329.8027 286.9609" clip-path="url(#clipPath2)" stroke="rgb(51,102,255)"/>
      <path fill="rgb(51,102,255)" stroke-dasharray="6,2" d="M329.8027 294.9609 L334.8027 282.9609 L329.8027 285.9609 L324.8027 282.9609 Z" clip-path="url(#clipPath2)" stroke="none"/>
      <path fill="none" d="M728.6271 460.3044 L728.6271 343" clip-path="url(#clipPath2)"/>
      <path d="M728.6271 335 L723.6271 347 L728.6271 344 L733.6271 347 Z" clip-path="url(#clipPath2)" stroke="none"/>
      <path fill="none" stroke-dasharray="6,2" d="M503.3973 306.5 L712.9766 306.5" clip-path="url(#clipPath2)" stroke="rgb(51,102,255)"/>
      <path fill="rgb(51,102,255)" stroke-dasharray="6,2" d="M720.9766 306.5 L708.9766 301.5 L711.9766 306.5 L708.9766 311.5 Z" clip-path="url(#clipPath2)" stroke="none"/>
      <path fill="none" d="M781.0032 315 L791.811 315" clip-path="url(#clipPath2)" stroke="rgb(51,102,255)"/>
      <path fill="rgb(51,102,255)" d="M799.811 315 L787.811 310 L790.811 315 L787.811 320 Z" clip-path="url(#clipPath2)" stroke="none"/>
      <path fill="none" d="M255.8806 195.9625 L255.8806 223.9648" clip-path="url(#clipPath2)" stroke="gray"/>
      <path fill="gray" d="M255.8806 231.9648 L260.8806 219.9648 L255.8806 222.9648 L250.8806 219.9648 Z" clip-path="url(#clipPath2)" stroke="none"/>
      <path fill="none" stroke-dasharray="6,2" d="M227.1811 252 L171 252 L157.3368 238.3368 L157.3368 213.9292" clip-path="url(#clipPath2)" stroke="red"/>
      <path fill="red" stroke-dasharray="6,2" d="M157.3368 205.9292 L152.3368 217.9292 L157.3368 214.9292 L162.3368 217.9292 Z" clip-path="url(#clipPath2)" stroke="none"/>
      <path fill="none" d="M173.1728 185.9292 L195.1435 185.9292" clip-path="url(#clipPath2)" stroke="gray"/>
      <path fill="gray" d="M203.1435 185.9292 L191.1435 180.9292 L194.1435 185.9292 L191.1435 190.9292 Z" clip-path="url(#clipPath2)" stroke="none"/>
      <path fill="none" d="M1330.8938 315 L1341.7015 315" clip-path="url(#clipPath2)" stroke="rgb(51,102,255)"/>
      <path fill="rgb(51,102,255)" d="M1349.7015 315 L1337.7015 310 L1340.7015 315 L1337.7015 320 Z" clip-path="url(#clipPath2)" stroke="none"/>
      <path fill="none" d="M1379.7384 294.9638 L1379.7384 285.7383 L1376 282 L154 282 L131.6647 259.6647 L131.6647 213.9292" clip-path="url(#clipPath2)" stroke="rgb(51,102,255)"/>
      <path fill="rgb(51,102,255)" d="M131.6647 205.9292 L126.6647 217.9292 L131.6647 214.9292 L136.6647 217.9292 Z" clip-path="url(#clipPath2)" stroke="none"/>
      <path fill="none" d="M255.8806 175.867 L255.8806 161.1194 L261.0708 155.9292 L629.4987 155.9292 L629.4987 157.8901" clip-path="url(#clipPath2)" stroke="gray"/>
      <path fill="gray" d="M629.4987 165.8901 L634.4987 153.8901 L629.4987 156.8901 L624.4987 153.8901 Z" clip-path="url(#clipPath2)" stroke="none"/>
      <path fill="none" d="M629.4987 460.304 L629.4987 213.9292" clip-path="url(#clipPath2)" stroke="gray"/>
      <path fill="gray" d="M629.4987 205.9292 L624.4987 217.9292 L629.4987 214.9292 L634.4987 217.9292 Z" clip-path="url(#clipPath2)" stroke="none"/>
      <path fill="none" d="M308.5885 185.9292 L355.948 185.9292" clip-path="url(#clipPath2)" stroke="gray"/>
      <path fill="gray" d="M363.948 185.9292 L351.948 180.9292 L354.948 185.9292 L351.948 190.9292 Z" clip-path="url(#clipPath2)" stroke="none"/>
      <path fill="none" d="M344.5527 315 L355.9371 315" clip-path="url(#clipPath2)" stroke="rgb(51,102,255)"/>
      <path fill="rgb(51,102,255)" d="M363.9371 315 L351.9371 310 L354.9371 315 L351.9371 320 Z" clip-path="url(#clipPath2)" stroke="none"/>
      <path fill="none" d="M380.475 294.9565 L380.475 213.9292" clip-path="url(#clipPath2)" stroke="gray"/>
      <path fill="gray" d="M380.475 205.9292 L375.475 217.9292 L380.475 214.9292 L385.475 217.9292 Z" clip-path="url(#clipPath2)" stroke="none"/>
      <path fill="none" d="M423.975 315 L435.3594 315" clip-path="url(#clipPath2)" stroke="rgb(51,102,255)"/>
      <path fill="rgb(51,102,255)" d="M443.3594 315 L431.3594 310 L434.3594 315 L431.3594 320 Z" clip-path="url(#clipPath2)" stroke="none"/>
      <path fill="none" stroke-dasharray="6,2" d="M407.475 294.9552 L407.475 283.525 L412 279 L747 279 L751.0032 283.0032 L751.0032 286.9531" clip-path="url(#clipPath2)" stroke="rgb(51,102,255)"/>
      <path fill="rgb(51,102,255)" stroke-dasharray="6,2" d="M751.0032 294.9531 L756.0032 282.9531 L751.0032 285.9531 L746.0032 282.9531 Z" clip-path="url(#clipPath2)" stroke="none"/>
      <path fill="none" d="M946.7796 335 L946.7796 361.2204 L936.5 371.5 L846.3566 371.5" clip-path="url(#clipPath2)" stroke="rgb(51,102,255)"/>
      <path fill="rgb(51,102,255)" d="M838.3566 371.5 L850.3566 376.5 L847.3566 371.5 L850.3566 366.5 Z" clip-path="url(#clipPath2)" stroke="none"/>
      <path fill="none" stroke-dasharray="6,2" d="M497.2419 335 L497.2419 367.2419 L510 380 L744.1828 380" clip-path="url(#clipPath2)" stroke="rgb(51,102,255)"/>
      <path fill="rgb(51,102,255)" stroke-dasharray="6,2" d="M752.1828 380 L740.1828 375 L743.1828 380 L740.1828 385 Z" clip-path="url(#clipPath2)" stroke="none"/>
      <path fill="none" d="M838.3566 388.5 L1007.5 388.5 L1023.4891 372.5108 L1023.4891 343" clip-path="url(#clipPath2)" stroke="rgb(51,102,255)"/>
      <path fill="rgb(51,102,255)" d="M1023.4891 335 L1018.4891 347 L1023.4891 344 L1028.4891 347 Z" clip-path="url(#clipPath2)" stroke="none"/>
    </g>
  </g>
</svg>
