<?xml version="1.0" encoding="UTF-8"?><svg xmlns="http://www.w3.org/2000/svg" xmlns:xlink="http://www.w3.org/1999/xlink" fill-opacity="1" color-rendering="auto" color-interpolation="auto" text-rendering="auto" stroke="black" stroke-linecap="square" width="1125" stroke-miterlimit="10" shape-rendering="auto" stroke-opacity="1" fill="black" stroke-dasharray="none" font-weight="normal" stroke-width="1" height="535" font-family="'Dialog'" font-style="normal" stroke-linejoin="miter" font-size="12px" stroke-dashoffset="0" image-rendering="auto">
  <!--Generated by ySVG 2.5-->
  <defs id="genericDefs"/>
  <g>
    <defs id="defs1">
      <clipPath clipPathUnits="userSpaceOnUse" id="clipPath1">
        <path d="M0 0 L1125 0 L1125 535 L0 535 L0 0 Z"/>
      </clipPath>
      <clipPath clipPathUnits="userSpaceOnUse" id="clipPath2">
        <path d="M-153 -402 L972 -402 L972 133 L-153 133 L-153 -402 Z"/>
      </clipPath>
    </defs>
    <g fill="white" text-rendering="geometricPrecision" shape-rendering="geometricPrecision" transform="translate(153,402)" stroke="white">
      <rect x="-153" width="1125" height="535" y="-402" clip-path="url(#clipPath2)" stroke="none"/>
    </g>
    <g fill="white" text-rendering="geometricPrecision" shape-rendering="geometricPrecision" transform="matrix(1,0,0,1,153,402)" stroke="white">
      <rect x="108.2114" width="60" height="40" y="-120" clip-path="url(#clipPath2)" stroke="none"/>
    </g>
    <g stroke-linecap="butt" transform="matrix(1,0,0,1,153,402)" fill="gray" text-rendering="geometricPrecision" shape-rendering="geometricPrecision" stroke="gray" stroke-miterlimit="1.45">
      <rect fill="none" x="108.2114" width="60" height="40" y="-120" clip-path="url(#clipPath2)"/>
    </g>
    <g font-size="14px" stroke-linecap="butt" transform="matrix(1,0,0,1,153,402)" text-rendering="geometricPrecision" font-family="sans-serif" shape-rendering="geometricPrecision" stroke-miterlimit="1.45">
      <text x="117.5448" xml:space="preserve" y="-104.0997" clip-path="url(#clipPath2)" stroke="none">parse-</text>
      <text x="112.9273" xml:space="preserve" y="-85.0422" clip-path="url(#clipPath2)" stroke="none">request</text>
    </g>
    <g fill="white" text-rendering="geometricPrecision" shape-rendering="geometricPrecision" transform="matrix(1,0,0,1,153,402)" stroke="white">
      <rect x="644.5489" width="60" height="40" y="-120" clip-path="url(#clipPath2)" stroke="none"/>
    </g>
    <g stroke-linecap="butt" transform="matrix(1,0,0,1,153,402)" fill="gray" text-rendering="geometricPrecision" shape-rendering="geometricPrecision" stroke="gray" stroke-miterlimit="1.45">
      <rect fill="none" x="644.5489" width="60" height="40" y="-120" clip-path="url(#clipPath2)"/>
    </g>
    <g font-size="14px" stroke-linecap="butt" transform="matrix(1,0,0,1,153,402)" text-rendering="geometricPrecision" font-family="sans-serif" shape-rendering="geometricPrecision" stroke-miterlimit="1.45">
      <text x="656.8557" xml:space="preserve" y="-104.0997" clip-path="url(#clipPath2)" stroke="none">prep-</text>
      <text x="644.2066" xml:space="preserve" y="-85.0422" clip-path="url(#clipPath2)" stroke="none">response</text>
    </g>
    <g fill="white" text-rendering="geometricPrecision" shape-rendering="geometricPrecision" transform="matrix(1,0,0,1,153,402)" stroke="white">
      <rect x="811.7764" width="60" height="40" y="-120" clip-path="url(#clipPath2)" stroke="none"/>
    </g>
    <g stroke-linecap="butt" transform="matrix(1,0,0,1,153,402)" fill="gray" text-rendering="geometricPrecision" shape-rendering="geometricPrecision" stroke="gray" stroke-miterlimit="1.45">
      <rect fill="none" x="811.7764" width="60" height="40" y="-120" clip-path="url(#clipPath2)"/>
    </g>
    <g font-size="14px" stroke-linecap="butt" transform="matrix(1,0,0,1,153,402)" text-rendering="geometricPrecision" font-family="sans-serif" shape-rendering="geometricPrecision" stroke-miterlimit="1.45">
      <text x="818.2343" xml:space="preserve" y="-104.0997" clip-path="url(#clipPath2)" stroke="none">access-</text>
      <text x="831.4361" xml:space="preserve" y="-85.0422" clip-path="url(#clipPath2)" stroke="none">log</text>
    </g>
    <g fill="white" text-rendering="geometricPrecision" shape-rendering="geometricPrecision" transform="matrix(1,0,0,1,153,402)" stroke="white">
      <rect x="520.0012" width="60" height="40" y="-55.335" clip-path="url(#clipPath2)" stroke="none"/>
    </g>
    <g stroke-linecap="butt" transform="matrix(1,0,0,1,153,402)" fill="gray" text-rendering="geometricPrecision" shape-rendering="geometricPrecision" stroke="gray" stroke-miterlimit="1.45">
      <rect fill="none" x="520.0012" width="60" height="40" y="-55.335" clip-path="url(#clipPath2)"/>
    </g>
    <g font-size="14px" stroke-linecap="butt" transform="matrix(1,0,0,1,153,402)" text-rendering="geometricPrecision" font-family="sans-serif" shape-rendering="geometricPrecision" stroke-miterlimit="1.45">
      <text x="533.1545" xml:space="preserve" y="-29.906" clip-path="url(#clipPath2)" stroke="none">error</text>
    </g>
    <g fill="white" text-rendering="geometricPrecision" shape-rendering="geometricPrecision" transform="matrix(1,0,0,1,153,402)" stroke="white">
      <rect x="896.4905" width="60" height="40" y="-120" clip-path="url(#clipPath2)" stroke="none"/>
    </g>
    <g stroke-linecap="butt" transform="matrix(1,0,0,1,153,402)" fill="gray" text-rendering="geometricPrecision" shape-rendering="geometricPrecision" stroke="gray" stroke-miterlimit="1.45">
      <rect fill="none" x="896.4905" width="60" height="40" y="-120" clip-path="url(#clipPath2)"/>
    </g>
    <g font-size="14px" stroke-linecap="butt" transform="matrix(1,0,0,1,153,402)" text-rendering="geometricPrecision" font-family="sans-serif" shape-rendering="geometricPrecision" stroke-miterlimit="1.45">
      <text x="908.3075" xml:space="preserve" y="-104.0997" clip-path="url(#clipPath2)" stroke="none">keep-</text>
      <text x="911.4557" xml:space="preserve" y="-85.0422" clip-path="url(#clipPath2)" stroke="none">alive</text>
    </g>
    <g fill="white" text-rendering="geometricPrecision" shape-rendering="geometricPrecision" transform="matrix(1,0,0,1,153,402)" stroke="white">
      <rect x="562.0356" width="60" height="40" y="-120" clip-path="url(#clipPath2)" stroke="none"/>
    </g>
    <g stroke-linecap="butt" transform="matrix(1,0,0,1,153,402)" fill="gray" text-rendering="geometricPrecision" shape-rendering="geometricPrecision" stroke="gray" stroke-miterlimit="1.45">
      <rect fill="none" x="562.0356" width="60" height="40" y="-120" clip-path="url(#clipPath2)"/>
    </g>
    <g font-size="14px" stroke-linecap="butt" transform="matrix(1,0,0,1,153,402)" text-rendering="geometricPrecision" font-family="sans-serif" shape-rendering="geometricPrecision" stroke-miterlimit="1.45">
      <text x="578.7009" xml:space="preserve" y="-104.0997" clip-path="url(#clipPath2)" stroke="none">out-</text>
      <text x="565.779" xml:space="preserve" y="-85.0422" clip-path="url(#clipPath2)" stroke="none">transfer</text>
    </g>
    <g fill="white" text-rendering="geometricPrecision" shape-rendering="geometricPrecision" transform="matrix(1,0,0,1,153,402)" stroke="white">
      <rect x="33.116" width="60" height="40" y="-120" clip-path="url(#clipPath2)" stroke="none"/>
    </g>
    <g stroke-linecap="butt" transform="matrix(1,0,0,1,153,402)" fill="gray" text-rendering="geometricPrecision" shape-rendering="geometricPrecision" stroke="gray" stroke-miterlimit="1.45">
      <rect fill="none" x="33.116" width="60" height="40" y="-120" clip-path="url(#clipPath2)"/>
    </g>
    <g font-size="14px" stroke-linecap="butt" transform="matrix(1,0,0,1,153,402)" text-rendering="geometricPrecision" font-family="sans-serif" shape-rendering="geometricPrecision" stroke-miterlimit="1.45">
      <text x="37.4191" xml:space="preserve" y="-104.0997" clip-path="url(#clipPath2)" stroke="none">receive-</text>
      <text x="37.8319" xml:space="preserve" y="-85.0422" clip-path="url(#clipPath2)" stroke="none">request</text>
    </g>
    <g fill="white" text-rendering="geometricPrecision" shape-rendering="geometricPrecision" transform="matrix(1,0,0,1,153,402)" stroke="white">
      <rect x="727.0623" width="60" height="40" y="-120" clip-path="url(#clipPath2)" stroke="none"/>
    </g>
    <g stroke-linecap="butt" transform="matrix(1,0,0,1,153,402)" fill="gray" text-rendering="geometricPrecision" shape-rendering="geometricPrecision" stroke="gray" stroke-miterlimit="1.45">
      <rect fill="none" x="727.0623" width="60" height="40" y="-120" clip-path="url(#clipPath2)"/>
    </g>
    <g font-size="14px" stroke-linecap="butt" transform="matrix(1,0,0,1,153,402)" text-rendering="geometricPrecision" font-family="sans-serif" shape-rendering="geometricPrecision" stroke-miterlimit="1.45">
      <text x="738.8862" xml:space="preserve" y="-104.0997" clip-path="url(#clipPath2)" stroke="none">send-</text>
      <text x="726.7199" xml:space="preserve" y="-85.0422" clip-path="url(#clipPath2)" stroke="none">response</text>
    </g>
    <g fill="rgb(255,255,204)" text-rendering="geometricPrecision" shape-rendering="geometricPrecision" transform="matrix(1,0,0,1,153,402)" stroke="rgb(255,255,204)">
      <path d="M-137.0949 -214.0042 Q-137.0949 -226.0042 -125.0949 -226.0042 L-91.7507 -226.0042 Q-79.7507 -226.0042 -79.7507 -214.0042 L-79.7507 -198.0042 Q-79.7507 -186.0042 -91.7507 -186.0042 L-125.0949 -186.0042 Q-137.0949 -186.0042 -137.0949 -198.0042 Z" stroke="none" clip-path="url(#clipPath2)"/>
    </g>
    <g stroke-linecap="butt" transform="matrix(1,0,0,1,153,402)" fill="gray" text-rendering="geometricPrecision" shape-rendering="geometricPrecision" stroke="gray" stroke-miterlimit="1.45">
      <path fill="none" d="M-137.0949 -214.0042 Q-137.0949 -226.0042 -125.0949 -226.0042 L-91.7507 -226.0042 Q-79.7507 -226.0042 -79.7507 -214.0042 L-79.7507 -198.0042 Q-79.7507 -186.0042 -91.7507 -186.0042 L-125.0949 -186.0042 Q-137.0949 -186.0042 -137.0949 -198.0042 Z" clip-path="url(#clipPath2)"/>
    </g>
    <g font-size="14px" stroke-linecap="butt" transform="matrix(1,0,0,1,153,402)" text-rendering="geometricPrecision" font-family="sans-serif" shape-rendering="geometricPrecision" stroke-miterlimit="1.45">
      <text x="-125.6194" xml:space="preserve" y="-210.104" clip-path="url(#clipPath2)" stroke="none">HTTP</text>
      <text x="-127.2495" xml:space="preserve" y="-191.0464" clip-path="url(#clipPath2)" stroke="none">Client</text>
    </g>
    <g fill="white" text-rendering="geometricPrecision" shape-rendering="geometricPrecision" transform="matrix(1,0,0,1,153,402)" stroke="white">
      <rect x="0.1802" width="37.7346" height="40" y="-366.5482" clip-path="url(#clipPath2)" stroke="none"/>
    </g>
    <g stroke-linecap="butt" transform="matrix(1,0,0,1,153,402)" fill="gray" text-rendering="geometricPrecision" shape-rendering="geometricPrecision" stroke="gray" stroke-miterlimit="1.45">
      <rect fill="none" x="0.1802" width="37.7346" height="40" y="-366.5482" clip-path="url(#clipPath2)"/>
    </g>
    <g font-size="14px" stroke-linecap="butt" transform="matrix(1,0,0,1,153,402)" text-rendering="geometricPrecision" font-family="sans-serif" shape-rendering="geometricPrecision" stroke-miterlimit="1.45">
      <text x="2.4527" xml:space="preserve" y="-341.1191" clip-path="url(#clipPath2)" stroke="none">main</text>
    </g>
    <g fill="white" text-rendering="geometricPrecision" shape-rendering="geometricPrecision" transform="matrix(1,0,0,1,153,402)" stroke="white">
      <rect x="-60.1677" width="57.3442" height="40" y="-251.4662" clip-path="url(#clipPath2)" stroke="none"/>
    </g>
    <g stroke-linecap="butt" transform="matrix(1,0,0,1,153,402)" fill="gray" text-rendering="geometricPrecision" shape-rendering="geometricPrecision" stroke="gray" stroke-miterlimit="1.45">
      <rect fill="none" x="-60.1677" width="57.3442" height="40" y="-251.4662" clip-path="url(#clipPath2)"/>
    </g>
    <g font-size="14px" stroke-linecap="butt" transform="matrix(1,0,0,1,153,402)" text-rendering="geometricPrecision" font-family="sans-serif" shape-rendering="geometricPrecision" stroke-miterlimit="1.45">
      <text x="-44.0397" xml:space="preserve" y="-235.5659" clip-path="url(#clipPath2)" stroke="none">TCP</text>
      <text x="-57.948" xml:space="preserve" y="-216.5084" clip-path="url(#clipPath2)" stroke="none">Listener</text>
    </g>
    <g fill="white" text-rendering="geometricPrecision" shape-rendering="geometricPrecision" transform="matrix(1,0,0,1,153,402)" stroke="white">
      <rect x="34.4439" width="57.3442" height="40" y="-180" clip-path="url(#clipPath2)" stroke="none"/>
    </g>
    <g stroke-linecap="butt" transform="matrix(1,0,0,1,153,402)" fill="gray" text-rendering="geometricPrecision" shape-rendering="geometricPrecision" stroke="gray" stroke-miterlimit="1.45">
      <rect fill="none" x="34.4439" width="57.3442" height="40" y="-180" clip-path="url(#clipPath2)"/>
    </g>
    <g font-size="14px" stroke-linecap="butt" transform="matrix(1,0,0,1,153,402)" text-rendering="geometricPrecision" font-family="sans-serif" shape-rendering="geometricPrecision" font-weight="bold" stroke-miterlimit="1.45">
      <text x="45.2688" xml:space="preserve" y="-164.0997" clip-path="url(#clipPath2)" stroke="none">HTTP</text>
      <text x="45.1359" xml:space="preserve" y="-145.0422" clip-path="url(#clipPath2)" stroke="none">Conn</text>
    </g>
    <g fill="white" text-rendering="geometricPrecision" shape-rendering="geometricPrecision" transform="matrix(1,0,0,1,153,402)" stroke="white">
      <rect x="-31.7348" width="101.5647" height="20.0667" y="-293.0005" clip-path="url(#clipPath2)" stroke="none"/>
    </g>
    <g stroke-linecap="butt" transform="matrix(1,0,0,1,153,402)" fill="gray" text-rendering="geometricPrecision" shape-rendering="geometricPrecision" stroke="gray" stroke-miterlimit="1.45">
      <rect fill="none" x="-31.7348" width="101.5647" height="20.0667" y="-293.0005" clip-path="url(#clipPath2)"/>
    </g>
    <g font-size="14px" stroke-linecap="butt" transform="matrix(1,0,0,1,153,402)" text-rendering="geometricPrecision" font-family="sans-serif" shape-rendering="geometricPrecision" stroke-miterlimit="1.45">
      <text x="-29.3798" xml:space="preserve" y="-277.5381" clip-path="url(#clipPath2)" stroke="none">conf { filters[] }</text>
    </g>
    <g fill="white" text-rendering="geometricPrecision" shape-rendering="geometricPrecision" transform="matrix(1,0,0,1,153,402)" stroke="white">
      <rect x="-37.5544" width="37.7346" height="20.0667" y="-346.6148" clip-path="url(#clipPath2)" stroke="none"/>
    </g>
    <g stroke-linecap="butt" transform="matrix(1,0,0,1,153,402)" fill="gray" text-rendering="geometricPrecision" shape-rendering="geometricPrecision" stroke="gray" stroke-miterlimit="1.45">
      <rect fill="none" x="-37.5544" width="37.7346" height="20.0667" y="-346.6148" clip-path="url(#clipPath2)"/>
    </g>
    <g font-size="14px" stroke-linecap="butt" transform="matrix(1,0,0,1,153,402)" text-rendering="geometricPrecision" font-family="sans-serif" shape-rendering="geometricPrecision" stroke-miterlimit="1.45">
      <text x="-32.9033" xml:space="preserve" y="-331.1525" clip-path="url(#clipPath2)" stroke="none">KCQ</text>
    </g>
    <g fill="white" text-rendering="geometricPrecision" shape-rendering="geometricPrecision" transform="matrix(1,0,0,1,153,402)" stroke="white">
      <rect x="-37.5544" width="37.7346" height="20.0667" y="-366.6815" clip-path="url(#clipPath2)" stroke="none"/>
    </g>
    <g stroke-linecap="butt" transform="matrix(1,0,0,1,153,402)" fill="gray" text-rendering="geometricPrecision" shape-rendering="geometricPrecision" stroke="gray" stroke-miterlimit="1.45">
      <rect fill="none" x="-37.5544" width="37.7346" height="20.0667" y="-366.6815" clip-path="url(#clipPath2)"/>
    </g>
    <g font-size="14px" stroke-linecap="butt" transform="matrix(1,0,0,1,153,402)" text-rendering="geometricPrecision" font-family="sans-serif" shape-rendering="geometricPrecision" stroke-miterlimit="1.45">
      <text x="-29.0274" xml:space="preserve" y="-351.2191" clip-path="url(#clipPath2)" stroke="none">log</text>
    </g>
    <g fill="white" text-rendering="geometricPrecision" shape-rendering="geometricPrecision" transform="matrix(1,0,0,1,153,402)" stroke="white">
      <rect x="0.1802" width="37.7346" height="20.0667" y="-386.6148" clip-path="url(#clipPath2)" stroke="none"/>
    </g>
    <g stroke-linecap="butt" transform="matrix(1,0,0,1,153,402)" fill="gray" text-rendering="geometricPrecision" shape-rendering="geometricPrecision" stroke="gray" stroke-miterlimit="1.45">
      <rect fill="none" x="0.1802" width="37.7346" height="20.0667" y="-386.6148" clip-path="url(#clipPath2)"/>
    </g>
    <g font-size="14px" stroke-linecap="butt" transform="matrix(1,0,0,1,153,402)" text-rendering="geometricPrecision" font-family="sans-serif" shape-rendering="geometricPrecision" stroke-miterlimit="1.45">
      <text x="4.8453" xml:space="preserve" y="-371.1525" clip-path="url(#clipPath2)" stroke="none">cmd</text>
    </g>
    <g fill="white" text-rendering="geometricPrecision" shape-rendering="geometricPrecision" transform="matrix(1,0,0,1,153,402)" stroke="white">
      <rect x="37.9148" width="42.8801" height="20.0667" y="-346.6148" clip-path="url(#clipPath2)" stroke="none"/>
    </g>
    <g stroke-linecap="butt" transform="matrix(1,0,0,1,153,402)" fill="gray" text-rendering="geometricPrecision" shape-rendering="geometricPrecision" stroke="gray" stroke-miterlimit="1.45">
      <rect fill="none" x="37.9148" width="42.8801" height="20.0667" y="-346.6148" clip-path="url(#clipPath2)"/>
    </g>
    <g font-size="14px" stroke-linecap="butt" transform="matrix(1,0,0,1,153,402)" text-rendering="geometricPrecision" font-family="sans-serif" shape-rendering="geometricPrecision" stroke-miterlimit="1.45">
      <text x="49.5603" xml:space="preserve" y="-331.1525" clip-path="url(#clipPath2)" stroke="none">KQ</text>
    </g>
    <g fill="white" text-rendering="geometricPrecision" shape-rendering="geometricPrecision" transform="matrix(1,0,0,1,153,402)" stroke="white">
      <rect x="37.9148" width="42.8801" height="20.0667" y="-366.6815" clip-path="url(#clipPath2)" stroke="none"/>
    </g>
    <g stroke-linecap="butt" transform="matrix(1,0,0,1,153,402)" fill="gray" text-rendering="geometricPrecision" shape-rendering="geometricPrecision" stroke="gray" stroke-miterlimit="1.45">
      <rect fill="none" x="37.9148" width="42.8801" height="20.0667" y="-366.6815" clip-path="url(#clipPath2)"/>
    </g>
    <g font-size="14px" stroke-linecap="butt" transform="matrix(1,0,0,1,153,402)" text-rendering="geometricPrecision" font-family="sans-serif" shape-rendering="geometricPrecision" stroke-miterlimit="1.45">
      <text x="40.2834" xml:space="preserve" y="-351.2191" clip-path="url(#clipPath2)" stroke="none">Timer</text>
    </g>
    <g fill="white" text-rendering="geometricPrecision" shape-rendering="geometricPrecision" transform="matrix(1,0,0,1,153,402)" stroke="white">
      <rect x="110.795" width="57.3442" height="40" y="-293.0005" clip-path="url(#clipPath2)" stroke="none"/>
    </g>
    <g stroke-linecap="butt" transform="matrix(1,0,0,1,153,402)" fill="red" text-rendering="geometricPrecision" shape-rendering="geometricPrecision" stroke-dasharray="6,2" stroke="red" stroke-miterlimit="1.45">
      <rect fill="none" x="110.795" width="57.3442" height="40" y="-293.0005" clip-path="url(#clipPath2)"/>
    </g>
    <g font-size="14px" stroke-linecap="butt" transform="matrix(1,0,0,1,153,402)" text-rendering="geometricPrecision" font-family="sans-serif" shape-rendering="geometricPrecision" stroke-miterlimit="1.45">
      <text x="120.3955" xml:space="preserve" y="-267.5715" clip-path="url(#clipPath2)" stroke="none">linger</text>
    </g>
    <g fill="white" text-rendering="geometricPrecision" shape-rendering="geometricPrecision" transform="matrix(1,0,0,1,153,402)" stroke="white">
      <rect x="189.3667" width="60" height="40" y="-120" clip-path="url(#clipPath2)" stroke="none"/>
    </g>
    <g stroke-linecap="butt" transform="matrix(1,0,0,1,153,402)" fill="red" text-rendering="geometricPrecision" shape-rendering="geometricPrecision" stroke-dasharray="6,2" stroke="red" stroke-miterlimit="1.45">
      <rect fill="none" x="189.3667" width="60" height="40" y="-120" clip-path="url(#clipPath2)"/>
    </g>
    <g font-size="14px" stroke-linecap="butt" transform="matrix(1,0,0,1,153,402)" text-rendering="geometricPrecision" font-family="sans-serif" shape-rendering="geometricPrecision" stroke-miterlimit="1.45">
      <text x="210.9853" xml:space="preserve" y="-104.0997" clip-path="url(#clipPath2)" stroke="none">in-</text>
      <text x="193.1101" xml:space="preserve" y="-85.0422" clip-path="url(#clipPath2)" stroke="none">transfer</text>
    </g>
    <g stroke-linecap="butt" transform="matrix(1,0,0,1,153,402)" fill="rgb(255,153,153)" text-rendering="geometricPrecision" shape-rendering="geometricPrecision" stroke="rgb(255,153,153)" stroke-miterlimit="1.45">
      <path fill="none" d="M138.2114 -80 L138.2114 115 L550.0012 115 L550.0012 -7.335" clip-path="url(#clipPath2)"/>
    </g>
    <g stroke-linecap="butt" transform="matrix(1,0,0,1,153,402)" fill="rgb(255,153,153)" text-rendering="geometricPrecision" shape-rendering="geometricPrecision" stroke="rgb(255,153,153)" stroke-miterlimit="1.45">
      <path d="M550.0012 -15.335 L545.0012 -3.335 L550.0012 -6.335 L555.0012 -3.335 Z" stroke="none" clip-path="url(#clipPath2)"/>
      <path fill="none" d="M871.7764 -100 L888.4423 -100" clip-path="url(#clipPath2)" stroke="rgb(51,153,102)"/>
      <path fill="rgb(51,153,102)" d="M896.4423 -100 L884.4423 -105 L887.4423 -100 L884.4423 -95 Z" clip-path="url(#clipPath2)" stroke="none"/>
      <path fill="none" d="M573.0127 -55.3832 L573.0127 -72" clip-path="url(#clipPath2)" stroke="rgb(51,153,102)"/>
      <path fill="rgb(51,153,102)" d="M573.0127 -80 L568.0127 -68 L573.0127 -71 L578.0127 -68 Z" clip-path="url(#clipPath2)" stroke="none"/>
      <path fill="none" d="M622.0356 -100 L636.5049 -100" clip-path="url(#clipPath2)" stroke="rgb(51,153,102)"/>
      <path fill="rgb(51,153,102)" d="M644.5049 -100 L632.5049 -105 L635.5049 -100 L632.5049 -95 Z" clip-path="url(#clipPath2)" stroke="none"/>
      <path fill="none" d="M926.4905 -80 L926.4905 118 L63.116 118 L63.116 -72" clip-path="url(#clipPath2)" stroke="rgb(51,153,102)"/>
      <path fill="rgb(51,153,102)" d="M63.116 -80 L58.116 -68 L63.116 -71 L68.116 -68 Z" clip-path="url(#clipPath2)" stroke="none"/>
      <path fill="none" d="M93.116 -100 L100.1819 -100" clip-path="url(#clipPath2)" stroke="rgb(51,153,102)"/>
      <path fill="rgb(51,153,102)" d="M108.1819 -100 L96.1819 -105 L99.1819 -100 L96.1819 -95 Z" clip-path="url(#clipPath2)" stroke="none"/>
      <path fill="none" d="M704.549 -100 L719.0183 -100" clip-path="url(#clipPath2)" stroke="rgb(51,153,102)"/>
      <path fill="rgb(51,153,102)" d="M727.0183 -100 L715.0183 -105 L718.0183 -100 L715.0183 -95 Z" clip-path="url(#clipPath2)" stroke="none"/>
      <path fill="none" d="M787.0623 -100 L803.7281 -100" clip-path="url(#clipPath2)" stroke="rgb(51,153,102)"/>
      <path fill="rgb(51,153,102)" d="M811.7281 -100 L799.7281 -105 L802.7281 -100 L799.7281 -95 Z" clip-path="url(#clipPath2)" stroke="none"/>
      <path fill="none" d="M757.0623 -120.0342 L757.0623 -190 L-73.8814 -190" clip-path="url(#clipPath2)" stroke="rgb(51,153,102)"/>
      <path fill="rgb(51,153,102)" d="M-81.8814 -190 L-69.8814 -185 L-72.8814 -190 L-69.8814 -195 Z" clip-path="url(#clipPath2)" stroke="none"/>
      <path fill="none" d="M-108.4228 -186.0042 L-108.4228 -100 L25.0814 -100" clip-path="url(#clipPath2)" stroke="rgb(51,153,102)"/>
      <path fill="rgb(51,153,102)" d="M33.0814 -100 L21.0814 -105 L24.0814 -100 L21.0814 -95 Z" clip-path="url(#clipPath2)" stroke="none"/>
      <path fill="none" d="M-80.3051 -218.7352 L-68.207 -218.7352" clip-path="url(#clipPath2)" stroke="gray"/>
      <path fill="gray" d="M-60.207 -218.7352 L-72.207 -223.7352 L-69.207 -218.7352 L-72.207 -213.7352 Z" clip-path="url(#clipPath2)" stroke="none"/>
      <path fill="none" d="M-49.4512 -251.4968 L-49.4512 -314.2902 L12.3971 -314.2902 L12.3971 -318.5482" clip-path="url(#clipPath2)" stroke="rgb(51,153,102)"/>
      <path fill="rgb(51,153,102)" d="M12.3971 -326.5482 L7.3971 -314.5482 L12.3971 -317.5482 L17.3971 -314.5482 Z" clip-path="url(#clipPath2)" stroke="none"/>
      <path fill="none" d="M63.116 -140 L63.116 -128.0391" clip-path="url(#clipPath2)" stroke="rgb(51,153,102)"/>
      <path fill="rgb(51,153,102)" d="M63.116 -120.0391 L68.116 -132.0391 L63.116 -129.0391 L58.116 -132.0391 Z" clip-path="url(#clipPath2)" stroke="none"/>
      <path fill="none" d="M84.309 -180.0306 L84.309 -305.2585 L21.2644 -305.2585 L21.2644 -318.5482" clip-path="url(#clipPath2)"/>
      <path d="M21.2644 -326.5482 L16.2644 -314.5482 L21.2644 -317.5482 L26.2644 -314.5482 Z" clip-path="url(#clipPath2)" stroke="none"/>
      <path fill="none" d="M16.8307 -326.5482 L16.8307 -301.0333" clip-path="url(#clipPath2)" stroke="gray"/>
      <path fill="gray" d="M16.8307 -293.0333 L21.8307 -305.0333 L16.8307 -302.0333 L11.8307 -305.0333 Z" clip-path="url(#clipPath2)" stroke="none"/>
      <path fill="none" d="M52.1369 -272.9338 L52.1369 -188.0454" clip-path="url(#clipPath2)" stroke="rgb(51,153,102)"/>
      <path fill="rgb(51,153,102)" d="M52.1369 -180.0454 L57.1369 -192.0454 L52.1369 -189.0454 L47.1369 -192.0454 Z" clip-path="url(#clipPath2)" stroke="none"/>
      <path fill="none" d="M-17.2791 -272.9338 L-17.2791 -259.5081" clip-path="url(#clipPath2)" stroke="gray"/>
      <path fill="gray" d="M-17.2791 -251.5081 L-12.2791 -263.5081 L-17.2791 -260.5081 L-22.2791 -263.5081 Z" clip-path="url(#clipPath2)" stroke="none"/>
      <path fill="none" d="M25.698 -326.5482 L25.698 -309.7743 L139.4671 -309.7743 L139.4671 -301.0333" clip-path="url(#clipPath2)"/>
      <path d="M139.4671 -293.0333 L144.4671 -305.0333 L139.4671 -302.0333 L134.4671 -305.0333 Z" clip-path="url(#clipPath2)" stroke="none"/>
      <path fill="none" d="M168.2114 -100 L181.3254 -100" clip-path="url(#clipPath2)" stroke="rgb(51,153,102)"/>
      <path fill="rgb(51,153,102)" d="M189.3254 -100 L177.3254 -105 L180.3254 -100 L177.3254 -95 Z" clip-path="url(#clipPath2)" stroke="none"/>
    </g>
    <g fill="rgb(104,176,227)" text-rendering="geometricPrecision" shape-rendering="geometricPrecision" transform="matrix(1,0,0,1,153,402)" stroke="rgb(104,176,227)">
      <path d="M256.9886 -155.335 L256.9886 -65 L512.0153 -65 L512.0153 -155.335 ZM257.9886 -133.335 L257.9886 -66 L511.0152 -66 L511.0152 -133.335 Z" fill-rule="evenodd" clip-path="url(#clipPath2)" stroke="none"/>
    </g>
    <g stroke-linecap="butt" transform="matrix(1,0,0,1,153,402)" fill="white" text-rendering="geometricPrecision" font-family="sans-serif" shape-rendering="geometricPrecision" stroke="white" stroke-miterlimit="1.45">
      <text x="258.9886" xml:space="preserve" y="-140.5141" clip-path="url(#clipPath2)" stroke="none">Local File Mode</text>
    </g>
    <g fill="white" text-rendering="geometricPrecision" shape-rendering="geometricPrecision" transform="matrix(1,0,0,1,153,402)" stroke="white">
      <rect x="271.9886" width="60" height="40" y="-120" clip-path="url(#clipPath2)" stroke="none"/>
    </g>
    <g stroke-linecap="butt" transform="matrix(1,0,0,1,153,402)" fill="gray" text-rendering="geometricPrecision" shape-rendering="geometricPrecision" stroke="gray" stroke-miterlimit="1.45">
      <rect fill="none" x="271.9886" width="60" height="40" y="-120" clip-path="url(#clipPath2)"/>
    </g>
    <g font-size="14px" stroke-linecap="butt" transform="matrix(1,0,0,1,153,402)" text-rendering="geometricPrecision" font-family="sans-serif" shape-rendering="geometricPrecision" stroke-miterlimit="1.45">
      <text x="283.9105" xml:space="preserve" y="-94.571" clip-path="url(#clipPath2)" stroke="none">index</text>
    </g>
    <g fill="white" text-rendering="geometricPrecision" shape-rendering="geometricPrecision" transform="matrix(1,0,0,1,153,402)" stroke="white">
      <rect x="437.0152" width="60" height="40" y="-120" clip-path="url(#clipPath2)" stroke="none"/>
    </g>
    <g stroke-linecap="butt" transform="matrix(1,0,0,1,153,402)" fill="gray" text-rendering="geometricPrecision" shape-rendering="geometricPrecision" stroke="gray" stroke-miterlimit="1.45">
      <rect fill="none" x="437.0152" width="60" height="40" y="-120" clip-path="url(#clipPath2)"/>
    </g>
    <g font-size="14px" stroke-linecap="butt" transform="matrix(1,0,0,1,153,402)" text-rendering="geometricPrecision" font-family="sans-serif" shape-rendering="geometricPrecision" stroke-miterlimit="1.45">
      <text x="457.0527" xml:space="preserve" y="-94.571" clip-path="url(#clipPath2)" stroke="none">file</text>
    </g>
    <g fill="white" text-rendering="geometricPrecision" shape-rendering="geometricPrecision" transform="matrix(1,0,0,1,153,402)" stroke="white">
      <rect x="354.5019" width="60" height="40" y="-120" clip-path="url(#clipPath2)" stroke="none"/>
    </g>
    <g stroke-linecap="butt" transform="matrix(1,0,0,1,153,402)" fill="gray" text-rendering="geometricPrecision" shape-rendering="geometricPrecision" stroke="gray" stroke-miterlimit="1.45">
      <rect fill="none" x="354.5019" width="60" height="40" y="-120" clip-path="url(#clipPath2)"/>
    </g>
    <g font-size="14px" stroke-linecap="butt" transform="matrix(1,0,0,1,153,402)" text-rendering="geometricPrecision" font-family="sans-serif" shape-rendering="geometricPrecision" stroke-miterlimit="1.45">
      <text x="367.2424" xml:space="preserve" y="-104.0997" clip-path="url(#clipPath2)" stroke="none">auto-</text>
      <text x="366.4238" xml:space="preserve" y="-85.0422" clip-path="url(#clipPath2)" stroke="none">index</text>
    </g>
    <g stroke-linecap="butt" transform="matrix(1,0,0,1,153,402)" fill="rgb(51,153,102)" text-rendering="geometricPrecision" shape-rendering="geometricPrecision" stroke-dasharray="6,2" stroke="rgb(51,153,102)" stroke-miterlimit="1.45">
      <path fill="none" d="M249.3667 -100 L263.9444 -100" clip-path="url(#clipPath2)"/>
      <path d="M271.9444 -100 L259.9444 -105 L262.9444 -100 L259.9444 -95 Z" clip-path="url(#clipPath2)" stroke="none"/>
      <path fill="none" stroke-dasharray="none" d="M301.9886 -120.0391 L301.9886 -130 L548.3624 -130 L548.3624 -63.3715" clip-path="url(#clipPath2)" stroke="rgb(255,153,153)"/>
      <path fill="rgb(255,153,153)" stroke-dasharray="none" d="M548.3624 -55.3715 L553.3624 -67.3715 L548.3624 -64.3715 L543.3624 -67.3715 Z" clip-path="url(#clipPath2)" stroke="none"/>
      <path fill="none" stroke-dasharray="none" d="M301.9886 -80 L301.9886 -70 L467.0152 -70 L467.0152 -72" clip-path="url(#clipPath2)"/>
      <path stroke-dasharray="none" d="M467.0152 -80 L462.0152 -68 L467.0152 -71 L472.0152 -68 Z" clip-path="url(#clipPath2)" stroke="none"/>
      <path fill="none" stroke-dasharray="none" d="M497.0152 -91.5 L541.0159 -91.5 L541.0159 -63.3703" clip-path="url(#clipPath2)" stroke="rgb(255,153,153)"/>
      <path fill="rgb(255,153,153)" stroke-dasharray="none" d="M541.0159 -55.3703 L546.0159 -67.3703 L541.0159 -64.3703 L536.0159 -67.3703 Z" clip-path="url(#clipPath2)" stroke="none"/>
      <path fill="none" stroke-dasharray="none" d="M497.0152 -108.5 L554.0038 -108.5" clip-path="url(#clipPath2)"/>
      <path stroke-dasharray="none" d="M562.0038 -108.5 L550.0038 -113.5 L553.0038 -108.5 L550.0038 -103.5 Z" clip-path="url(#clipPath2)" stroke="none"/>
      <path fill="none" d="M331.9886 -100 L346.4579 -100" clip-path="url(#clipPath2)"/>
      <path d="M354.4579 -100 L342.4579 -105 L345.4579 -100 L342.4579 -95 Z" clip-path="url(#clipPath2)" stroke="none"/>
      <path fill="none" d="M414.5019 -100 L428.9713 -100" clip-path="url(#clipPath2)"/>
      <path d="M436.9713 -100 L424.9713 -105 L427.9713 -100 L424.9713 -95 Z" clip-path="url(#clipPath2)" stroke="none"/>
      <path fill="none" stroke-dasharray="none" d="M371.0019 -80 L371.0019 -65.8338 L529.0061 -65.8338 L529.0061 -63.376" clip-path="url(#clipPath2)" stroke="rgb(255,153,153)"/>
      <path fill="rgb(255,153,153)" stroke-dasharray="none" d="M529.0061 -55.376 L534.0061 -67.376 L529.0061 -64.376 L524.0061 -67.376 Z" clip-path="url(#clipPath2)" stroke="none"/>
      <path fill="none" stroke-dasharray="none" d="M384.5019 -120.0254 L384.5019 -133 L592.0356 -133 L592.0356 -128.0254" clip-path="url(#clipPath2)"/>
      <path stroke-dasharray="none" d="M592.0356 -120.0254 L597.0356 -132.0254 L592.0356 -129.0254 L587.0356 -132.0254 Z" clip-path="url(#clipPath2)" stroke="none"/>
    </g>
    <g fill="rgb(104,176,227)" text-rendering="geometricPrecision" shape-rendering="geometricPrecision" transform="matrix(1,0,0,1,153,402)" stroke="rgb(104,176,227)">
      <path d="M258.3165 -55.335 L258.3165 105 L512.0153 105 L512.0153 -55.335 ZM259.3165 -33.335 L259.3165 104 L511.0152 104 L511.0152 -33.335 Z" fill-rule="evenodd" clip-path="url(#clipPath2)" stroke="none"/>
    </g>
    <g stroke-linecap="butt" transform="matrix(1,0,0,1,153,402)" fill="white" text-rendering="geometricPrecision" font-family="sans-serif" shape-rendering="geometricPrecision" stroke="white" stroke-miterlimit="1.45">
      <text x="260.3165" xml:space="preserve" y="-40.5141" clip-path="url(#clipPath2)" stroke="none">Proxy Mode</text>
    </g>
    <g fill="white" text-rendering="geometricPrecision" shape-rendering="geometricPrecision" transform="matrix(1,0,0,1,153,402)" stroke="white">
      <rect x="360.3704" width="60" height="40" y="-20" clip-path="url(#clipPath2)" stroke="none"/>
    </g>
    <g stroke-linecap="butt" transform="matrix(1,0,0,1,153,402)" fill="gray" text-rendering="geometricPrecision" shape-rendering="geometricPrecision" stroke="gray" stroke-miterlimit="1.45">
      <rect fill="none" x="360.3704" width="60" height="40" y="-20" clip-path="url(#clipPath2)"/>
    </g>
    <g font-size="14px" stroke-linecap="butt" transform="matrix(1,0,0,1,153,402)" text-rendering="geometricPrecision" font-family="sans-serif" shape-rendering="geometricPrecision" stroke-miterlimit="1.45">
      <text x="371.6767" xml:space="preserve" y="5.429" clip-path="url(#clipPath2)" stroke="none">proxy</text>
    </g>
    <g fill="rgb(255,255,204)" text-rendering="geometricPrecision" shape-rendering="geometricPrecision" transform="matrix(1,0,0,1,153,402)" stroke="rgb(255,255,204)">
      <path d="M347.2983 62 Q347.2983 50 359.2983 50 L421.4425 50 Q433.4425 50 433.4425 62 L433.4425 78 Q433.4425 90 421.4425 90 L359.2983 90 Q347.2983 90 347.2983 78 Z" stroke="none" clip-path="url(#clipPath2)"/>
    </g>
    <g stroke-linecap="butt" transform="matrix(1,0,0,1,153,402)" fill="gray" text-rendering="geometricPrecision" shape-rendering="geometricPrecision" stroke="gray" stroke-miterlimit="1.45">
      <path fill="none" d="M347.2983 62 Q347.2983 50 359.2983 50 L421.4425 50 Q433.4425 50 433.4425 62 L433.4425 78 Q433.4425 90 421.4425 90 L359.2983 90 Q347.2983 90 347.2983 78 Z" clip-path="url(#clipPath2)"/>
    </g>
    <g font-size="14px" stroke-linecap="butt" transform="matrix(1,0,0,1,153,402)" text-rendering="geometricPrecision" font-family="sans-serif" shape-rendering="geometricPrecision" stroke-miterlimit="1.45">
      <text x="350.6952" xml:space="preserve" y="65.9003" clip-path="url(#clipPath2)" stroke="none">HTTP|Proxy</text>
      <text x="369.305" xml:space="preserve" y="84.9578" clip-path="url(#clipPath2)" stroke="none">Server</text>
    </g>
    <g fill="rgb(255,255,204)" text-rendering="geometricPrecision" shape-rendering="geometricPrecision" transform="matrix(1,0,0,1,153,402)" stroke="rgb(255,255,204)">
      <path d="M273.3165 62 Q273.3165 50 285.3165 50 L318.6606 50 Q330.6606 50 330.6606 62 L330.6606 78 Q330.6606 90 318.6606 90 L285.3165 90 Q273.3165 90 273.3165 78 Z" stroke="none" clip-path="url(#clipPath2)"/>
    </g>
    <g stroke-linecap="butt" transform="matrix(1,0,0,1,153,402)" fill="gray" text-rendering="geometricPrecision" shape-rendering="geometricPrecision" stroke="gray" stroke-miterlimit="1.45">
      <path fill="none" d="M273.3165 62 Q273.3165 50 285.3165 50 L318.6606 50 Q330.6606 50 330.6606 62 L330.6606 78 Q330.6606 90 318.6606 90 L285.3165 90 Q273.3165 90 273.3165 78 Z" clip-path="url(#clipPath2)"/>
    </g>
    <g font-size="14px" stroke-linecap="butt" transform="matrix(1,0,0,1,153,402)" text-rendering="geometricPrecision" font-family="sans-serif" shape-rendering="geometricPrecision" stroke-miterlimit="1.45">
      <text x="287.7234" xml:space="preserve" y="65.9003" clip-path="url(#clipPath2)" stroke="none">DNS</text>
      <text x="280.9232" xml:space="preserve" y="84.9578" clip-path="url(#clipPath2)" stroke="none">Server</text>
    </g>
    <g stroke-linecap="butt" transform="matrix(1,0,0,1,153,402)" fill="rgb(51,153,102)" text-rendering="geometricPrecision" shape-rendering="geometricPrecision" stroke-dasharray="6,2" stroke="rgb(51,153,102)" stroke-miterlimit="1.45">
      <path fill="none" d="M219.3667 -80 L219.3667 -8.5 L352.336 -8.5" clip-path="url(#clipPath2)"/>
      <path d="M360.336 -8.5 L348.336 -13.5 L351.336 -8.5 L348.336 -3.5 Z" clip-path="url(#clipPath2)" stroke="none"/>
      <path fill="none" stroke-dasharray="none" d="M390.3704 -20.0413 L390.3704 -41.1675 L511.9696 -41.1675" clip-path="url(#clipPath2)" stroke="rgb(255,153,153)"/>
      <path fill="rgb(255,153,153)" stroke-dasharray="none" d="M519.9696 -41.1675 L507.9696 -46.1675 L510.9696 -41.1675 L507.9696 -36.1675 Z" clip-path="url(#clipPath2)" stroke="none"/>
      <path fill="none" stroke-dasharray="none" d="M420.3704 5.8325 L604.5184 5.8325 L604.5184 -72" clip-path="url(#clipPath2)"/>
      <path stroke-dasharray="none" d="M604.5184 -80 L599.5184 -68 L604.5184 -71 L609.5184 -68 Z" clip-path="url(#clipPath2)" stroke="none"/>
      <path fill="none" stroke-dasharray="none" d="M390.3704 20 L390.3704 41.9707" clip-path="url(#clipPath2)" stroke="gray"/>
      <path fill="gray" stroke-dasharray="none" d="M390.3704 49.9707 L395.3704 37.9707 L390.3704 40.9707 L385.3704 37.9707 Z" clip-path="url(#clipPath2)" stroke="none"/>
      <path fill="none" stroke-dasharray="none" d="M360.3419 8.5 L301.9886 8.5 L301.9886 41.9595" clip-path="url(#clipPath2)" stroke="gray"/>
      <path fill="gray" stroke-dasharray="none" d="M301.9886 49.9595 L306.9886 37.9595 L301.9886 40.9595 L296.9886 37.9595 Z" clip-path="url(#clipPath2)" stroke="none"/>
    </g>
  </g>
</svg>
